{"glyphs":{"0":{"ha":864,"x_min":-101,"x_max":932,"o":"m -99 115 q 18 426 -94 259 q 279 721 129 594 l 292 760 q 436 861 321 811 q 632 911 551 911 q 840 832 748 911 q 928 658 932 752 q 850 425 925 560 q 670 172 776 290 q 438 -28 564 54 q 216 -111 312 -111 q 74 -87 145 -111 q -50 -8 2 -62 q -99 115 -101 46 m 830 721 q 796 817 832 783 q 697 851 760 851 q 504 772 621 851 q 280 580 387 693 q 96 326 174 466 q 13 76 17 186 q 108 -45 9 -45 q 295 13 192 -45 q 488 161 397 71 q 657 354 579 251 q 782 556 735 456 q 830 721 828 655 z "},"1":{"ha":464,"x_min":-46,"x_max":611,"o":"m 609 829 q 457 630 556 764 q 309 422 358 496 q 54 -65 57 36 q 67 -104 57 -91 q 64 -106 67 -106 q -2 -70 42 -106 q -45 6 -46 -34 q -41 31 -45 19 q 225 496 26 202 l 361 694 q 240 613 316 653 q 90 549 165 574 q 88 550 89 548 q 88 554 88 551 q 94 578 88 565 q 107 593 100 591 q 387 786 201 612 q 502 928 501 893 q 491 951 502 944 l 496 952 l 498 952 q 536 935 516 952 q 589 880 566 910 q 611 835 611 849 q 609 829 611 833 z "},"2":{"ha":775,"x_min":-254,"x_max":874,"o":"m 44 100 q 228 236 113 145 q 468 436 343 326 q 685 654 594 546 q 778 821 776 762 q 758 869 780 851 q 684 886 736 886 q 499 827 601 886 q 318 691 397 768 q 183 540 238 614 q 127 432 128 465 q 146 409 126 409 q 261 468 181 409 q 449 631 342 527 q 455 634 452 635 q 457 627 458 632 q 345 462 432 558 q 192 365 257 365 q 91 405 140 365 q 45 495 43 444 q 100 620 47 544 q 233 768 154 697 q 419 891 313 840 q 621 942 526 942 q 803 870 733 942 q 871 728 874 797 q 746 538 869 661 q 474 306 623 416 q 186 110 326 197 q 467 64 311 110 q 718 -58 623 17 q 715 -62 721 -60 q 709 -62 712 -63 q 548 -3 628 -25 q 420 23 467 18 q 302 31 373 28 q 58 11 186 34 q -95 -71 -5 -29 q -220 -113 -184 -113 q -244 -87 -233 -113 q -253 -32 -254 -60 q -229 18 -252 -4 q -165 53 -206 40 q -81 76 -123 67 q 18 96 -38 85 q 27 98 25 97 q 35 99 30 98 q 44 100 40 99 z "},"3":{"ha":872,"x_min":-178,"x_max":900,"o":"m 309 368 q 323 363 324 373 q 312 354 323 358 q 39 171 185 290 q -109 -3 -107 53 q -82 -38 -110 -28 q 0 -48 -53 -48 q 215 -2 90 -48 q 447 107 340 44 q 632 243 554 171 q 715 363 710 315 q 676 431 719 405 q 564 466 634 457 q 354 394 433 409 q 343 393 350 393 q 317 407 317 393 q 344 459 321 424 q 381 502 368 495 q 482 507 392 509 q 715 662 615 580 q 822 807 815 744 q 798 869 825 853 q 721 886 771 886 q 563 843 651 886 q 408 746 475 801 q 292 639 340 690 q 243 568 245 589 q 260 556 241 552 q 485 674 323 568 q 489 672 488 676 q 488 667 489 669 q 396 569 458 623 q 298 514 333 515 q 212 545 264 514 q 160 615 159 576 q 237 746 162 668 q 434 886 312 824 q 669 949 557 949 q 840 879 781 949 q 896 713 900 809 q 610 486 892 612 q 745 413 688 466 q 794 285 801 360 q 706 131 787 212 q 513 -7 624 51 q 284 -103 403 -65 q 83 -141 165 -141 q -24 -119 37 -141 q -131 -52 -84 -96 q -174 40 -178 -9 q -118 144 -169 91 q 9 240 -67 198 q 162 315 85 282 q 309 368 238 347 z "},"4":{"ha":837,"x_min":-106,"x_max":933,"o":"m 917 783 q 684 465 859 712 q 913 465 809 473 q 928 460 924 464 q 928 452 933 456 q 913 449 924 449 q 655 419 828 449 q 611 350 641 397 q 566 282 580 303 q 526 219 551 260 q 487 157 500 178 q 455 101 474 135 q 426 48 436 68 q 407 3 417 27 q 392 -40 396 -21 q 387 -74 387 -59 q 397 -112 387 -101 q 394 -114 397 -114 q 330 -79 375 -114 q 285 -3 284 -43 q 291 21 287 14 q 503 392 344 156 l 460 382 q 214 313 340 355 q 35 241 88 271 q 15 220 24 234 q 6 193 6 205 q -49 240 -2 190 q -100 304 -96 291 q -83 331 -106 322 q 306 609 72 416 q 553 894 521 786 q 558 970 566 935 q 619 907 582 962 q 642 826 655 853 q 553 721 625 790 q 413 598 482 653 q 252 470 345 543 q 146 388 158 397 q 308 422 196 403 q 544 454 421 441 q 640 595 588 518 q 717 707 692 671 q 768 783 743 744 q 802 843 793 822 q 812 881 811 865 q 802 904 814 897 l 806 905 l 808 905 q 848 888 828 905 q 900 833 879 863 q 919 790 920 803 q 917 783 919 787 z "},"5":{"ha":808,"x_min":-113,"x_max":903,"o":"m 392 880 q 485 869 421 869 q 811 913 621 869 q 895 959 891 929 l 895 964 l 897 963 q 901 952 899 962 q 902 927 903 943 q 880 841 897 886 q 850 792 862 797 q 419 764 598 781 q 348 713 391 760 q 324 650 306 666 q 421 574 356 623 q 534 487 487 525 q 631 401 581 449 q 706 307 682 354 q 726 217 731 261 q 621 55 718 134 q 409 -67 525 -24 q 212 -111 294 -111 q 48 -84 124 -111 q -71 -10 -28 -57 q -107 91 -113 37 q -36 209 -99 150 q 122 316 28 269 q 300 396 216 363 q 463 453 384 429 q 467 451 466 454 q 463 443 467 447 q 304 350 381 399 q 149 245 228 302 q 20 134 69 188 q -34 38 -30 79 q -4 -12 -37 3 q 84 -28 30 -28 q 299 23 171 -28 q 527 152 427 74 q 629 294 627 230 q 514 454 631 353 q 246 637 397 556 q 240 657 240 640 q 299 773 245 698 q 392 880 354 848 z "},"6":{"ha":853,"x_min":-81,"x_max":953,"o":"m 701 623 q 671 626 672 618 q 675 631 670 628 q 761 691 718 658 q 843 767 804 723 q 882 843 881 811 q 839 888 885 888 q 479 714 702 888 q 124 332 256 541 q 331 503 217 434 q 553 573 446 573 q 711 505 641 573 q 778 363 781 438 q 683 152 775 263 q 462 -30 592 42 q 221 -103 332 -103 q 9 -37 99 -103 q -78 120 -81 28 q -15 333 -75 216 q 139 555 45 450 q 343 750 234 660 q 565 893 453 840 q 763 946 677 946 q 892 897 831 946 q 951 782 953 848 q 871 686 950 732 q 701 623 792 640 m 597 513 q 98 296 374 513 q 24 64 26 174 q 41 -14 21 12 q 123 -41 61 -41 q 292 8 193 -41 q 476 126 391 57 q 623 277 562 196 q 686 417 684 358 q 597 513 690 513 z "},"7":{"ha":629,"x_min":-68,"x_max":885,"o":"m 217 224 q 112 87 150 147 q 66 -14 74 26 q 63 -77 58 -53 q 87 -118 68 -101 q 88 -122 89 -120 q 85 -126 88 -124 q 79 -127 82 -127 q 31 -111 59 -124 q -22 -75 3 -97 q -58 -24 -48 -52 q -54 36 -68 4 q 183 353 4 157 q 458 604 263 439 q 791 868 653 769 q 507 772 694 813 q 271 740 319 731 q 225 780 240 744 q 212 853 209 816 q 219 913 214 890 q 325 863 232 874 q 624 882 419 853 q 697 895 674 890 q 747 913 720 900 q 781 949 774 927 l 782 949 q 789 946 784 948 q 799 942 794 944 q 812 934 804 940 q 827 921 819 928 q 866 863 847 896 q 874 825 885 830 q 599 612 786 778 q 217 224 411 446 z "},"8":{"ha":787,"x_min":-128,"x_max":870,"o":"m -125 115 q -76 242 -123 178 q 39 354 -30 306 q 182 439 108 403 q 322 490 256 474 q 246 559 278 517 q 216 649 214 601 q 256 759 217 707 q 361 850 295 811 q 401 900 380 892 q 531 933 455 920 q 656 946 607 946 q 819 899 769 946 q 868 770 870 851 q 766 618 864 697 q 546 497 668 538 q 675 420 629 481 q 719 285 721 360 q 652 144 717 219 q 496 12 588 69 q 298 -83 404 -45 q 110 -121 192 -121 q 59 -116 79 -121 q -65 -36 -2 -106 q -125 115 -128 34 m 520 459 q 364 421 460 459 q 177 325 268 382 q 19 192 85 267 q -50 51 -48 116 q -30 -10 -52 10 q 46 -29 -7 -29 q 290 37 150 -29 q 534 199 429 103 q 642 376 639 296 q 613 435 643 411 q 520 459 583 459 m 696 905 q 615 894 666 905 q 393 745 494 840 q 290 578 293 651 q 342 540 290 540 q 522 596 411 540 q 717 725 634 653 q 802 838 801 797 q 774 890 803 875 q 696 905 745 905 z "},"9":{"ha":907,"x_min":-116,"x_max":1034,"o":"m 916 634 q 738 267 855 440 q 472 -17 622 93 q 183 -127 323 -127 q -22 -71 73 -127 q -114 60 -116 -15 q -41 192 -112 125 q 115 300 31 259 q 269 358 200 341 q 170 496 167 435 q 277 692 173 585 q 527 870 381 798 q 790 942 673 942 q 894 922 839 942 q 992 861 950 902 q 1033 769 1034 819 q 1025 738 1032 753 q 1003 708 1018 723 q 977 683 988 693 q 945 657 966 673 q 916 634 924 640 m 71 -47 q 275 -2 175 -47 q 452 113 375 43 q 598 275 530 183 q 712 456 667 368 q 791 632 757 544 q 593 413 719 518 q 400 309 468 309 q 286 350 345 309 q 70 193 165 291 q -27 29 -25 95 q -4 -28 -28 -9 q 71 -47 19 -47 m 311 379 q 553 474 396 379 q 795 686 709 568 q 803 718 803 701 q 784 757 803 752 q 797 762 787 762 q 831 754 816 762 q 915 685 874 736 q 966 815 965 756 q 939 862 967 844 q 876 880 911 880 q 677 832 786 880 q 479 714 567 783 q 329 566 390 645 q 265 431 267 487 q 311 379 263 379 z "},"\u0000":{"ha":0,"x_min":0,"x_max":0,"o":""},"\r":{"ha":197,"x_min":0,"x_max":0,"o":""}," ":{"ha":256,"x_min":0,"x_max":0,"o":""},"!":{"ha":579,"x_min":30,"x_max":619,"o":"m 271 333 q 249 278 249 295 q 251 269 248 272 q 253 264 253 265 q 249 259 253 261 q 243 259 246 257 q 207 282 228 264 q 188 316 187 300 q 231 428 189 343 q 332 610 272 514 q 478 855 455 810 q 504 924 502 899 q 495 943 504 939 l 496 943 q 498 944 496 943 q 503 944 500 944 q 509 943 505 944 q 516 941 512 942 q 525 938 520 940 q 535 933 530 936 q 546 926 541 931 q 559 916 552 921 q 600 869 582 894 q 618 832 619 843 q 614 826 618 829 q 439 584 551 745 q 271 333 327 424 m 129 -28 q 74 0 109 -26 q 35 45 38 26 q 52 115 30 73 q 101 165 75 157 q 151 147 115 168 q 186 112 187 127 q 182 103 186 106 q 148 54 168 92 q 127 -13 128 16 q 129 -28 127 -19 z "},"\"":{"ha":423,"x_min":208,"x_max":549,"o":"m 403 826 q 348 731 403 802 q 244 619 298 667 q 232 621 241 616 q 216 631 223 625 q 210 640 208 637 q 295 892 300 791 q 278 924 293 917 q 281 925 278 924 q 369 881 318 932 q 403 826 403 847 m 549 826 q 495 731 549 797 q 390 619 442 661 q 371 626 387 615 q 358 640 356 636 q 441 892 447 793 q 424 924 439 917 q 427 925 424 925 q 516 881 465 932 q 549 826 549 846 z "},"#":{"ha":1088,"x_min":43,"x_max":1183,"o":"m 536 -9 q 443 49 479 -5 q 425 104 424 85 q 519 280 426 132 q 401 270 462 277 q 372 228 399 266 q 334 170 346 189 q 254 7 256 50 q 256 -2 253 2 q 259 -7 259 -6 q 247 -13 259 -13 q 196 25 228 -13 q 165 84 163 63 q 168 105 165 93 q 179 130 172 116 q 194 157 187 144 q 211 185 201 169 q 228 211 221 202 q 244 235 234 220 q 256 253 254 250 q 51 194 104 224 q 47 201 48 192 q 64 270 44 231 q 106 309 81 302 q 311 343 215 335 q 400 466 366 419 q 234 424 296 451 q 234 398 217 417 q 271 368 251 379 q 214 383 241 372 q 173 405 187 394 q 159 422 159 416 q 180 481 159 441 q 217 525 201 520 q 456 561 316 550 q 605 814 604 766 q 596 835 605 832 q 601 837 597 837 q 635 821 615 837 q 683 769 657 802 q 708 723 709 735 q 706 718 708 722 l 593 565 q 703 564 629 566 q 828 747 785 678 q 872 845 871 815 q 863 865 872 862 q 869 866 864 866 q 906 848 885 866 q 952 799 928 831 q 974 754 975 766 q 973 748 974 750 l 833 559 q 1027 534 915 553 q 1183 489 1140 514 q 1125 489 1169 487 q 798 493 985 501 l 690 343 q 1016 283 922 328 q 963 283 1003 281 q 658 285 809 293 q 594 191 608 213 q 518 49 529 93 q 575 57 513 24 q 689 126 637 90 q 698 127 696 130 q 697 125 698 126 q 610 36 661 81 q 536 -9 559 -10 m 561 348 l 658 487 l 542 479 l 448 348 q 561 348 503 349 z "},"$":{"ha":795,"x_min":-13,"x_max":788,"o":"m 403 441 q 467 412 426 429 q 535 382 507 394 q 591 354 563 370 q 632 322 619 338 q 643 290 645 306 q 577 184 637 243 q 433 77 518 126 q 254 1 327 16 q 176 -132 206 -69 q 144 -219 145 -196 q 150 -235 144 -228 l 155 -241 q 135 -249 154 -249 q 87 -221 120 -249 q 56 -171 54 -192 q 136 -10 57 -136 q 77 7 107 -10 q 12 70 36 30 q -10 150 -13 110 q 109 265 -4 202 q 287 330 222 329 q 290 321 300 330 q 138 191 225 277 q 50 72 51 106 q 56 59 49 62 q 77 57 63 57 q 244 107 138 57 q 435 223 350 157 q 524 328 520 288 q 493 359 525 340 q 372 420 474 370 q 310 448 348 432 q 246 476 271 465 q 194 503 220 488 q 157 533 169 517 q 146 564 145 548 q 214 671 152 611 q 362 780 276 732 q 527 848 449 829 q 656 1075 655 1030 q 644 1105 656 1098 q 652 1106 645 1106 q 701 1080 671 1106 q 737 1042 721 1063 q 752 1010 753 1020 l 750 1006 q 748 1000 749 1002 l 645 866 q 747 813 705 862 q 783 705 788 764 q 659 594 778 657 q 494 531 541 531 q 491 540 481 531 q 575 608 528 567 q 676 706 623 650 q 730 786 729 762 q 725 799 731 796 q 713 802 720 802 q 544 752 652 802 q 351 635 436 701 q 263 531 266 569 q 295 496 262 516 q 403 441 328 476 z "},"%":{"ha":1141,"x_min":89,"x_max":998,"o":"m 92 415 q 142 548 96 475 q 247 665 187 620 q 306 713 249 689 q 415 736 363 736 q 520 697 476 736 q 559 603 563 658 q 507 476 556 551 q 383 343 458 402 q 241 284 308 284 q 140 321 191 284 q 92 415 89 358 m 476 663 q 456 699 485 699 q 363 636 423 699 q 251 492 302 574 q 188 359 199 410 q 204 332 185 332 q 360 472 255 332 q 476 663 465 612 m 829 766 q 838 768 831 768 q 912 743 869 768 q 964 696 956 718 q 964 688 966 688 q 951 692 955 692 q 615 403 889 692 q 404 161 498 277 q 309 26 310 46 q 310 18 309 21 q 312 12 312 14 q 306 7 312 7 q 284 14 298 7 q 261 32 269 21 q 255 64 250 45 q 501 407 267 119 q 829 766 735 696 m 529 129 q 578 262 533 190 q 682 379 623 334 q 741 427 684 404 q 849 451 798 451 q 955 412 911 451 q 994 317 998 373 q 942 191 990 266 q 817 58 893 116 q 676 -1 741 -1 q 575 36 626 -1 q 529 129 525 73 m 912 378 q 891 413 921 413 q 741 284 842 413 q 623 74 640 155 q 641 47 619 47 q 740 119 675 47 q 855 270 804 191 q 912 378 906 349 z "},"&":{"ha":1274,"x_min":20,"x_max":1241,"o":"m 1236 622 q 707 160 1024 392 q 864 -5 804 47 q 959 -56 923 -57 q 1045 4 993 -56 q 1050 8 1049 9 q 1050 1 1051 7 q 1021 -51 1041 -25 q 965 -111 991 -92 q 902 -143 938 -129 q 792 -97 862 -158 q 613 104 722 -36 q 450 -8 507 30 q 329 -80 393 -46 q 232 -113 264 -113 q 84 -41 149 -113 q 22 99 20 32 q 36 158 22 128 q 171 286 69 220 q 402 404 274 353 q 359 552 356 486 q 439 760 362 654 q 623 934 515 866 q 824 1001 731 1001 q 954 931 901 1001 q 1002 763 1006 861 q 921 651 1001 718 q 706 518 841 583 q 695 517 700 515 q 690 522 690 518 q 696 531 690 526 q 873 706 795 612 q 953 845 952 800 q 942 873 954 859 q 906 892 931 887 q 727 864 842 906 q 518 745 612 823 q 421 595 423 668 q 496 432 419 545 q 661 215 574 319 q 978 429 826 316 q 1223 635 1130 542 q 1233 640 1229 640 q 1241 632 1241 640 q 1236 622 1241 627 m 562 160 q 415 380 540 190 q 189 184 275 287 q 101 27 104 80 q 132 -5 101 -5 q 311 40 193 -5 q 562 160 429 84 z "},"'":{"ha":299,"x_min":204,"x_max":421,"o":"m 418 815 q 329 717 390 771 q 233 643 267 663 q 216 647 229 641 q 206 657 204 653 q 286 776 251 712 q 324 895 321 841 q 312 929 324 922 q 314 931 312 931 q 384 889 347 931 q 420 825 421 848 q 418 815 420 819 z "},"(":{"ha":640,"x_min":98,"x_max":794,"o":"m 235 -30 q 259 -90 244 -66 q 290 -113 275 -113 q 284 -121 302 -112 q 188 -135 235 -143 q 183 -134 186 -135 q 158 -120 167 -128 q 101 100 98 -73 q 146 339 103 218 q 257 556 190 459 q 405 738 325 653 q 563 880 486 824 q 702 966 640 936 q 794 993 764 997 q 701 930 764 980 q 554 792 638 880 q 396 602 470 704 q 270 368 322 500 q 219 113 219 236 q 235 -30 219 60 z "},")":{"ha":622,"x_min":-116,"x_max":578,"o":"m 442 894 q 387 978 422 978 q 393 985 375 976 q 490 999 444 1007 q 494 998 491 998 q 521 984 512 993 q 566 890 553 956 q 575 764 578 825 q 530 526 574 646 q 419 308 486 405 q 272 126 353 212 q 114 -15 191 41 q -25 -102 37 -72 q -116 -128 -87 -132 q -57 -91 -96 -120 q 35 -14 -18 -63 q 146 95 89 34 q 259 233 203 156 q 360 392 315 311 q 432 567 404 472 q 459 751 459 661 q 442 894 459 811 z "},"*":{"ha":846,"x_min":119,"x_max":726,"o":"m 694 618 q 705 610 698 619 q 709 597 713 600 q 518 450 646 557 q 720 411 646 435 q 724 397 726 410 q 717 385 721 385 q 459 377 596 389 q 457 375 458 376 q 455 372 456 373 q 571 147 509 236 q 561 134 573 143 q 546 129 550 125 q 479 210 525 151 q 391 332 433 269 q 205 107 215 166 q 185 115 204 95 q 160 153 170 131 q 152 201 151 175 q 165 240 153 226 q 329 377 215 295 q 126 308 159 353 q 122 312 122 303 q 136 379 119 337 q 160 424 144 404 q 192 449 176 444 q 323 467 244 464 q 291 549 304 502 q 333 612 284 578 q 400 641 372 639 q 405 638 407 642 q 422 467 381 594 q 447 466 431 466 q 694 618 637 595 z "},"+":{"ha":813,"x_min":129,"x_max":725,"o":"m 526 671 q 535 676 531 676 q 580 676 543 683 q 647 649 616 670 q 669 624 663 639 l 669 619 q 643 614 660 627 q 496 465 584 578 q 720 420 636 452 q 722 407 725 418 q 714 396 718 396 q 450 389 588 401 q 352 237 393 310 q 310 142 311 165 q 313 133 310 137 q 315 128 315 129 q 303 123 315 121 q 266 138 284 126 q 249 168 248 151 q 339 377 250 214 q 135 308 168 351 q 130 311 131 303 q 147 385 129 338 q 202 450 174 441 q 381 468 268 470 q 526 671 463 608 z "},",":{"ha":370,"x_min":-127,"x_max":140,"o":"m -66 -159 q -124 -170 -95 -170 q -127 -169 -127 -169 q -45 -66 -100 -144 q 27 46 10 12 q 37 142 68 127 l 38 142 q 41 142 38 142 q 45 142 43 142 q 51 141 48 142 q 59 138 54 140 q 69 134 63 137 q 80 127 75 131 q 126 77 111 105 q 139 34 140 49 l 136 28 q 38 -76 123 0 q -66 -159 -47 -152 z "},"-":{"ha":806,"x_min":126,"x_max":673,"o":"m 144 254 q 131 248 135 237 q 147 312 126 257 q 197 399 168 366 q 275 428 213 418 q 395 436 338 438 q 620 391 509 431 q 668 360 672 371 q 658 358 666 358 q 313 338 449 370 q 144 254 177 306 z "},".":{"ha":451,"x_min":34,"x_max":192,"o":"m 191 82 q 153 21 190 63 q 99 -32 115 -21 q 61 -9 89 -37 q 35 32 34 20 q 45 52 35 36 q 66 89 54 67 q 83 125 78 110 q 85 132 84 128 q 88 139 87 137 q 89 144 89 141 q 90 149 90 147 q 90 153 90 151 q 89 157 90 155 q 87 159 88 158 q 149 140 105 174 q 191 82 192 107 z "},"/":{"ha":699,"x_min":62,"x_max":666,"o":"m 63 18 q 188 278 65 67 q 434 693 311 489 q 559 928 558 897 q 548 954 559 950 l 552 955 l 554 955 q 597 935 574 955 q 644 887 623 915 q 665 845 666 860 q 662 837 665 843 q 545 666 646 812 q 361 395 444 519 q 202 146 277 271 q 127 -12 128 21 q 130 -24 127 -19 q 132 -29 132 -28 q 120 -36 131 -36 q 82 -19 103 -36 q 63 18 62 -1 z "},":":{"ha":466,"x_min":50,"x_max":335,"o":"m 231 318 q 210 320 224 313 q 185 337 196 327 q 176 350 174 347 q 193 380 179 357 q 219 425 207 403 q 231 521 262 503 q 272 504 251 521 q 317 455 299 483 q 333 415 335 427 q 331 408 333 412 q 298 373 322 395 q 254 335 274 351 q 231 318 234 319 m 194 178 q 159 121 193 160 q 111 74 125 81 q 76 95 101 68 q 51 132 50 121 q 60 150 51 136 q 80 184 68 165 q 95 217 91 203 q 98 249 104 243 q 155 231 114 263 q 194 178 196 200 z "},";":{"ha":444,"x_min":-89,"x_max":281,"o":"m -32 -159 q -85 -170 -56 -169 l -89 -169 q -9 -67 -63 -145 q 65 46 46 11 q 76 142 103 127 q 92 139 85 142 q 107 128 98 135 q 153 77 129 109 q 175 34 176 45 l 172 28 q 71 -76 155 -1 q -32 -159 -13 -152 m 280 300 q 244 244 279 283 q 194 196 208 204 q 161 216 187 190 q 136 254 135 243 q 144 272 136 257 q 163 306 152 286 q 179 339 174 325 q 183 371 188 364 q 239 353 198 385 q 280 300 281 322 z "},"<":{"ha":849,"x_min":44,"x_max":723,"o":"m 94 261 q 263 337 137 261 q 496 491 390 412 q 600 581 601 571 q 625 593 607 593 q 664 582 639 593 q 706 557 689 572 q 716 533 723 542 q 576 431 678 491 q 346 307 474 371 q 216 243 218 244 q 332 188 275 223 q 426 115 389 152 q 486 46 463 78 q 509 1 509 15 q 505 -1 507 -1 q 347 112 439 75 q 116 150 254 150 l 48 145 q 53 174 44 145 q 76 232 63 203 q 94 261 90 261 z "},"=":{"ha":886,"x_min":78,"x_max":718,"o":"m 192 296 q 175 295 179 286 q 189 345 171 304 q 237 413 207 385 q 442 434 272 448 q 622 396 534 426 q 717 345 709 365 q 712 343 718 343 q 372 343 506 362 q 192 296 238 325 m 96 103 q 81 96 85 84 q 99 159 78 107 q 146 243 120 210 q 222 270 165 262 q 345 275 279 278 q 568 231 462 268 q 614 202 619 212 q 609 200 612 200 q 262 182 397 212 q 96 103 127 153 z "},">":{"ha":911,"x_min":-6,"x_max":693,"o":"m 542 324 q 399 446 427 397 q 386 487 385 468 q 426 568 388 519 q 452 583 451 597 q 503 490 451 545 q 611 400 554 436 q 686 364 668 364 q 686 334 693 360 q 664 278 679 309 q 642 248 649 248 q 528 234 591 248 q 405 198 466 220 q 284 150 345 176 q 172 98 223 124 q 81 50 121 72 q 18 14 42 28 l -5 0 q -5 1 -6 0 q 21 38 -5 11 q 99 103 48 65 q 214 179 150 140 q 366 259 279 219 q 542 324 454 298 z "},"?":{"ha":923,"x_min":185,"x_max":981,"o":"m 528 499 q 626 561 552 515 q 731 629 699 607 q 809 688 763 652 q 876 753 856 724 q 896 809 895 782 q 803 909 901 909 q 638 868 725 909 q 488 772 551 827 q 382 664 424 717 q 339 584 340 611 q 346 570 338 574 q 366 567 355 566 q 470 614 395 571 q 588 697 545 658 q 595 697 595 702 q 593 687 596 693 q 504 575 565 637 q 406 514 442 514 q 303 552 359 514 q 249 639 248 591 q 295 737 251 681 q 405 845 340 794 q 559 931 471 895 q 728 967 647 967 q 850 942 798 967 q 930 876 903 917 q 969 794 957 835 q 980 713 981 753 q 970 675 979 693 q 942 637 960 656 q 904 603 923 619 q 855 568 886 588 q 803 537 824 549 q 747 506 782 526 q 697 476 713 486 q 645 447 691 473 q 572 405 598 421 q 501 358 546 390 q 429 302 455 327 q 382 246 403 278 q 360 186 361 214 q 363 163 359 176 q 358 162 361 161 q 321 228 342 171 q 317 324 300 285 q 340 358 325 341 q 368 389 355 376 q 408 420 381 402 q 446 447 434 439 q 490 475 458 455 q 528 499 521 495 m 282 -61 q 227 -34 262 -59 q 189 10 192 -10 q 207 81 185 38 q 255 129 229 123 q 315 105 277 134 q 334 69 348 80 q 298 12 318 57 q 282 -61 277 -33 z "},"@":{"ha":1121,"x_min":-104,"x_max":1173,"o":"m 218 69 q 332 132 237 69 q 517 271 427 196 q 607 373 606 346 q 600 386 607 381 q 603 387 601 387 q 628 373 614 387 q 669 323 647 353 q 691 281 691 293 q 688 276 691 277 q 561 118 647 260 q 529 44 529 59 q 531 34 529 34 q 597 84 542 34 q 718 207 653 135 q 838 373 784 279 q 894 543 892 468 q 863 634 896 594 q 747 674 829 674 q 420 567 597 674 q 121 304 244 460 q -5 14 -1 147 q 9 -60 -6 -29 q 48 -109 24 -92 q 108 -137 72 -126 q 175 -150 144 -147 q 245 -153 206 -153 q 420 -124 323 -153 q 635 -36 518 -95 q 890 130 752 24 q 1167 378 1029 237 q 1171 373 1173 378 q 911 84 1043 208 q 663 -110 779 -40 q 448 -214 547 -181 q 266 -248 349 -248 q 10 -151 124 -248 q -99 63 -104 -54 q -19 308 -95 183 q 168 526 58 433 q 408 678 278 619 q 644 737 537 737 q 900 663 809 737 q 986 469 990 589 q 924 299 983 389 q 789 144 865 209 q 638 35 713 78 q 527 -9 564 -9 q 460 23 499 -9 q 423 90 421 54 q 538 256 426 122 q 502 224 527 247 q 463 189 476 201 q 380 112 407 137 q 314 53 353 87 q 253 6 276 20 q 216 -7 230 -7 q 151 30 191 -7 q 108 108 110 68 q 196 271 105 167 q 410 456 287 375 q 607 534 532 536 q 714 504 675 532 q 751 432 752 475 q 718 388 750 415 q 658 350 686 361 q 656 353 656 349 l 657 358 q 699 463 697 425 q 684 483 699 483 q 564 433 640 483 q 422 327 487 382 q 274 177 337 252 q 214 77 212 101 q 218 69 214 69 z "},"A":{"ha":1401,"x_min":-141,"x_max":1561,"o":"m 1161 -271 q 1019 -212 1074 -271 q 966 -94 964 -153 q 1024 174 970 16 q 1147 468 1077 332 q 1021 481 1099 476 q 937 388 993 450 q 846 286 881 326 q 753 186 810 247 q 657 84 697 125 q 562 -9 616 44 q 466 -97 507 -62 q 376 -169 425 -131 q 288 -228 327 -206 q 208 -263 249 -249 q 135 -277 168 -277 q -47 -197 47 -277 q -138 -10 -141 -116 q 32 253 -132 128 q 433 448 197 377 q 895 518 669 518 q 975 516 950 518 q 1338 884 1190 720 q 1434 1018 1432 989 q 1423 1041 1434 1032 q 1428 1043 1423 1043 q 1509 994 1463 1043 q 1546 942 1532 968 q 1553 904 1561 917 q 1286 472 1428 756 q 1505 370 1426 429 q 1506 365 1506 369 q 1503 361 1505 362 q 1498 361 1501 359 q 1275 448 1397 418 q 1085 -127 1093 61 q 1087 -161 1085 -147 q 1092 -192 1088 -175 q 1108 -219 1096 -209 q 1139 -229 1120 -229 q 1269 -179 1196 -229 q 1277 -179 1277 -173 q 1272 -188 1276 -183 q 1219 -243 1252 -215 q 1161 -271 1186 -271 m -54 -87 q -33 -163 -57 -134 q 36 -193 -10 -193 q 416 10 150 -192 q 941 483 683 212 q 635 438 787 478 q 362 337 482 399 q 147 202 241 276 q 0 54 52 129 q -54 -87 -52 -21 m 1425 955 q 1048 512 1233 702 q 1163 496 1097 507 q 1425 955 1278 719 z "},"B":{"ha":1402,"x_min":-155,"x_max":1417,"o":"m 811 -151 q 271 -290 559 -260 q 253 -371 245 -354 l 256 -376 q 234 -373 256 -382 q 189 -341 212 -363 q 168 -292 167 -318 q 157 -291 163 -292 q 146 -291 150 -291 q -31 -231 64 -286 q -139 -106 -126 -176 q -60 67 -155 -20 q 197 220 34 154 q 554 322 359 285 q 650 437 611 393 q 624 471 624 456 q 692 488 624 482 q 735 538 707 506 q 779 589 763 571 q 819 636 795 607 q 857 682 843 665 q 889 723 871 700 q 918 763 907 747 q 939 796 928 779 q 955 826 950 813 q 962 850 960 840 q 953 880 965 874 l 956 882 q 959 882 958 882 q 1005 855 979 879 q 1063 760 1072 794 q 934 588 1060 737 q 850 491 904 551 q 1113 602 980 517 q 1272 765 1247 687 q 1240 883 1296 839 q 1103 936 1184 927 q 840 920 980 949 q 577 829 701 891 q 429 733 497 790 q 360 628 361 677 q 449 563 358 587 q 462 554 462 560 q 452 550 462 549 q 330 585 372 556 q 290 628 306 601 q 276 683 275 654 q 369 837 280 764 q 598 956 457 910 q 877 1010 734 1001 q 1139 986 1020 1018 q 1254 925 1204 967 q 1328 838 1304 884 q 1361 753 1351 793 q 1362 690 1370 714 q 1236 554 1340 610 q 990 466 1132 499 q 1239 331 1186 428 q 1407 288 1338 313 q 1416 281 1417 285 q 1403 280 1415 277 q 1250 307 1315 301 q 1261 261 1261 279 q 1139 45 1261 152 q 811 -151 1018 -61 m 1171 311 q 661 279 878 324 q 584 184 592 193 q 333 -172 427 -12 q 777 -25 532 -129 q 1054 146 944 46 q 1171 311 1163 247 m 26 -196 q 203 -193 107 -205 q 484 233 298 -6 q 456 224 474 230 q 423 213 438 218 q 394 204 408 208 q 50 26 174 129 q -57 -146 -75 -77 q 26 -196 -46 -186 m 905 443 q 797 434 870 443 q 718 346 746 377 q 1167 340 941 371 q 1073 415 1150 387 q 905 443 996 443 z "},"C":{"ha":1156,"x_min":-50,"x_max":1248,"o":"m 897 509 q 882 509 887 501 q 892 527 880 516 q 1077 729 997 622 q 1159 899 1157 835 q 1143 932 1160 920 q 1103 946 1126 943 q 786 863 973 955 q 442 621 598 771 q 164 268 266 448 q 76 -44 62 89 q 129 -139 82 -105 q 251 -174 175 -174 q 682 -15 415 -174 q 1223 403 949 143 q 1235 402 1236 415 q 1231 390 1235 394 q 1084 236 1158 311 q 904 67 1010 161 q 707 -97 799 -28 q 517 -214 614 -166 q 350 -262 420 -262 q 257 -252 307 -262 q 154 -218 207 -241 q 59 -162 101 -196 q -13 -79 16 -129 q -45 33 -42 -28 q 36 318 -50 158 q 267 622 123 478 q 638 897 436 787 q 995 1006 840 1006 q 1093 993 1049 1006 q 1165 960 1138 980 q 1209 915 1191 940 q 1235 870 1228 890 q 1244 831 1243 849 q 1146 669 1248 769 q 897 509 1044 569 z "},"D":{"ha":1382,"x_min":-169,"x_max":1439,"o":"m 1266 309 q 1021 50 1185 173 q 662 -153 858 -73 q 282 -255 467 -234 q 256 -344 260 -303 q 261 -369 256 -356 q 239 -362 262 -375 q 191 -321 216 -348 q 165 -265 167 -293 q 75 -249 126 -264 q -27 -208 24 -234 q -116 -140 -78 -182 q -159 -53 -154 -99 q -73 110 -169 30 q 190 249 24 190 q 560 338 356 308 q 767 598 625 422 q 899 772 877 735 q 919 823 917 802 q 910 853 922 846 q 912 855 908 855 q 921 855 917 856 q 957 833 940 849 q 1006 776 986 807 q 1024 732 1026 746 q 865 528 1020 715 l 721 357 q 1147 353 912 372 q 1254 610 1244 483 q 1237 727 1260 674 q 1174 813 1214 780 q 1080 869 1135 845 q 974 902 1026 892 q 871 916 923 912 q 634 891 756 922 q 424 813 512 860 q 279 713 337 765 q 221 626 222 661 q 228 603 220 614 q 266 577 236 592 q 348 550 296 563 q 354 546 353 549 q 354 542 356 544 q 345 541 351 541 q 201 572 262 544 q 154 610 176 583 q 134 670 132 636 q 195 791 136 729 q 349 904 254 854 q 579 982 444 954 q 848 999 713 1010 q 1024 958 938 993 q 1181 866 1109 924 q 1294 717 1252 808 q 1331 517 1335 626 q 1278 331 1328 427 q 1423 299 1381 317 q 1438 290 1438 293 q 1417 291 1437 287 q 1266 309 1351 301 m 1125 323 q 670 295 880 330 q 356 -129 474 59 q 794 48 588 -72 q 1125 323 1000 168 m 43 -169 q 205 -157 128 -169 q 255 -79 226 -122 q 323 18 284 -36 q 371 85 362 73 q 500 261 447 191 q 193 154 338 223 q -28 11 48 85 q -81 -115 -105 -63 q -28 -157 -67 -145 q 43 -169 12 -169 z "},"E":{"ha":1152,"x_min":-56,"x_max":1231,"o":"m 328 -268 q 209 -252 274 -270 q 84 -201 144 -234 q -15 -113 25 -168 q -56 6 -56 -58 q -3 142 -56 75 q 132 260 50 209 q 308 350 214 311 q 488 409 402 389 q 630 428 574 429 q 536 447 590 429 q 434 505 482 465 q 386 595 386 545 q 506 796 385 692 q 784 963 628 901 q 1029 1002 915 1013 q 1171 948 1112 994 q 1231 832 1230 902 q 1147 712 1231 787 q 976 598 1064 637 q 967 599 971 595 q 968 605 965 601 q 1089 755 1033 668 q 1145 888 1144 842 q 1075 942 1145 942 q 848 879 980 942 q 613 722 715 815 q 509 550 512 628 q 552 488 507 518 q 701 448 596 458 q 755 464 710 450 q 845 488 800 478 q 915 499 890 499 q 935 496 927 499 q 941 487 942 494 q 908 422 942 462 q 829 382 874 382 q 741 395 793 382 q 681 408 690 407 q 244 198 411 332 q 71 -68 76 64 q 100 -149 68 -118 q 204 -179 131 -179 q 456 -126 317 -179 q 732 20 594 -72 q 988 205 871 112 q 1218 404 1105 298 q 1228 406 1228 413 q 1222 391 1228 397 q 1060 222 1161 321 q 826 9 958 123 q 557 -185 694 -105 q 328 -268 420 -265 z "},"F":{"ha":1108,"x_min":-73,"x_max":1206,"o":"m 1105 876 q 1063 946 1106 925 q 957 967 1019 967 q 707 914 844 969 q 460 779 569 859 q 275 610 350 700 q 198 456 200 520 q 231 427 198 427 q 494 516 317 427 q 804 715 671 605 q 816 718 817 728 q 807 699 815 709 q 548 455 690 549 q 313 361 406 361 q 179 423 238 361 q 121 542 121 484 q 240 761 121 645 q 541 955 359 877 q 889 1033 723 1033 q 1001 1013 943 1033 q 1105 959 1058 994 q 1179 870 1153 924 q 1200 754 1206 816 q 1147 648 1196 721 q 1044 507 1098 575 q 902 334 989 440 q 878 307 886 316 q 1115 229 1028 284 q 1115 226 1116 228 q 1113 225 1114 225 q 841 263 982 256 q 583 -68 671 58 q 495 -261 495 -194 q 498 -267 495 -265 q 626 -186 510 -275 q 793 -41 741 -97 q 803 -35 796 -34 q 803 -42 807 -35 q 674 -219 760 -125 q 551 -313 589 -313 q 480 -290 519 -313 q 421 -239 442 -267 q 402 -183 401 -210 q 473 -17 402 -124 q 686 265 544 90 q 464 240 575 260 q 267 195 353 221 q 114 139 182 169 q 11 82 47 109 q -26 36 -26 56 q 25 3 -26 20 q 126 -15 75 -15 l 126 -16 q 108 -26 127 -19 q 61 -40 90 -33 q 10 -46 32 -46 q -48 -33 -24 -46 q -72 12 -73 -19 q -19 150 -71 88 q 106 245 32 213 q 397 316 221 294 q 733 323 573 338 q 1011 681 922 556 q 1082 798 1061 755 q 1105 876 1104 841 z "},"G":{"ha":1254,"x_min":-56,"x_max":1391,"o":"m 559 -327 q 651 -128 561 -261 q 850 132 741 4 q 298 -183 489 -183 q 194 -169 251 -183 q 79 -127 138 -155 q -18 -43 20 -98 q -53 84 -56 13 q 10 298 -50 182 q 164 524 69 415 q 377 731 259 632 q 619 900 496 830 q 997 1019 827 1019 q 1103 999 1056 1019 q 1176 949 1151 979 q 1215 890 1202 919 q 1229 840 1229 862 q 1138 707 1229 783 q 902 568 1047 631 q 886 569 888 561 q 896 588 886 577 q 1138 907 1134 797 q 1125 943 1139 931 q 1082 955 1111 955 q 668 804 887 950 q 240 415 410 634 q 63 11 69 197 q 95 -81 61 -51 q 198 -111 128 -111 q 589 34 319 -111 q 1016 322 858 179 q 1071 388 1041 342 q 1106 466 1101 434 q 657 408 866 471 q 486 340 553 376 q 418 280 419 303 q 468 247 417 264 q 571 231 519 231 l 571 230 q 552 220 571 226 q 505 206 533 213 q 455 200 476 200 q 397 213 420 200 q 375 255 374 225 q 442 406 378 345 q 607 499 505 467 q 953 540 740 542 q 1220 508 1096 536 q 1389 439 1343 480 q 1387 437 1391 437 q 1137 466 1268 463 q 1189 419 1169 448 q 1214 360 1219 375 q 876 -15 996 139 q 704 -267 772 -149 q 661 -399 635 -386 q 762 -355 679 -407 q 922 -237 844 -302 q 938 -233 938 -223 l 937 -238 q 824 -384 889 -318 q 721 -449 760 -449 q 627 -420 679 -449 q 559 -327 558 -382 z "},"H":{"ha":1424,"x_min":89,"x_max":1641,"o":"m 1522 724 q 1280 368 1306 407 q 1402 312 1363 341 q 1402 310 1403 311 q 1400 310 1401 309 q 1263 342 1345 326 q 1086 30 1140 149 q 1030 -167 1032 -88 q 1057 -223 1027 -219 q 1131 -203 1079 -226 q 1201 -167 1184 -179 q 1208 -167 1209 -160 q 1205 -175 1208 -170 q 1149 -233 1188 -200 q 1085 -266 1110 -266 q 998 -238 1044 -266 q 936 -185 959 -217 q 913 -125 912 -153 q 970 69 917 -45 q 1132 358 1022 183 q 816 361 978 376 q 639 133 738 268 q 473 -103 541 -2 q 395 -259 397 -214 q 409 -281 395 -278 q 536 -209 427 -286 q 721 -72 645 -132 q 734 -67 728 -65 q 734 -73 736 -68 q 592 -235 684 -147 q 460 -323 500 -323 q 355 -288 402 -323 q 312 -245 328 -269 q 297 -199 296 -221 q 405 19 299 -140 q 643 340 511 178 q 433 285 532 319 q 271 217 333 251 q 173 152 209 183 q 137 103 137 122 q 187 68 136 85 q 288 50 238 50 q 270 38 288 46 q 224 25 252 31 q 173 18 196 18 q 114 32 139 18 q 90 76 89 46 q 149 229 93 155 q 279 335 205 303 q 703 423 427 400 q 799 537 735 464 q 889 642 863 610 q 944 713 925 688 q 994 790 964 737 q 1026 874 1025 843 q 994 941 1027 922 q 903 959 962 959 q 677 907 803 959 q 450 780 551 854 q 277 629 348 707 q 205 503 206 551 q 215 481 204 488 q 244 473 225 473 q 477 555 308 472 q 755 729 646 638 q 767 732 768 739 q 760 717 766 725 q 518 494 646 579 q 308 408 390 408 q 190 465 243 408 q 139 573 137 521 q 212 735 142 651 q 385 882 281 818 q 619 986 489 947 q 863 1019 749 1025 q 1037 945 963 1014 q 1109 783 1112 876 q 1076 703 1108 755 q 1013 610 1045 651 q 928 505 981 568 q 868 432 876 442 q 1158 407 1025 432 q 1300 613 1202 474 q 1447 826 1399 752 q 1525 975 1524 938 q 1511 1005 1527 999 q 1517 1006 1513 1006 q 1611 950 1565 1006 q 1639 884 1641 911 q 1636 875 1639 880 q 1522 724 1571 794 z "},"I":{"ha":1103,"x_min":-219,"x_max":1283,"o":"m 106 -37 q 329 -5 191 -20 q 566 12 467 10 q 711 237 613 99 q 893 486 809 375 q 1044 701 978 596 q 1112 850 1111 807 q 1105 897 1113 878 q 1079 926 1096 917 q 1048 940 1062 936 q 1013 947 1033 944 q 785 906 919 958 q 536 774 651 854 q 340 600 422 693 q 255 442 257 506 q 287 415 253 415 q 522 485 379 415 q 833 699 666 554 q 845 704 844 708 q 835 685 845 699 q 610 451 757 569 q 381 333 462 333 q 240 400 293 333 q 189 529 187 467 q 265 698 192 608 q 447 858 339 787 q 691 973 556 928 q 946 1011 827 1017 q 1132 932 1052 1004 q 1208 752 1213 859 q 1151 632 1207 720 q 1021 448 1094 544 q 854 223 949 351 q 706 11 760 94 q 1017 -29 861 6 q 1280 -111 1172 -64 q 1278 -115 1282 -113 q 1270 -115 1275 -116 q 755 -68 980 -65 q 663 -72 708 -68 q 622 -157 639 -112 q 604 -218 605 -201 q 626 -214 604 -223 q 681 -186 647 -205 q 741 -145 715 -167 q 749 -144 747 -142 q 748 -151 751 -146 q 700 -228 733 -184 q 644 -280 668 -271 q 614 -275 638 -283 q 578 -256 591 -266 q 528 -205 547 -235 q 511 -152 510 -175 q 529 -81 511 -125 q 286 -118 429 -91 q 61 -168 143 -144 q -166 -267 -143 -222 q -150 -301 -176 -287 q -64 -325 -123 -314 q 65 -344 30 -343 q 67 -347 74 -344 q -98 -375 -26 -374 q -196 -353 -171 -376 q -210 -268 -219 -325 q -173 -169 -202 -210 q 106 -37 -112 -82 z "},"J":{"ha":1223,"x_min":-176,"x_max":1308,"o":"m 1300 762 q 1124 384 1297 647 q 1295 362 1218 377 q 1303 353 1308 360 q 1293 349 1301 348 q 1112 362 1249 355 q 944 153 1042 256 q 533 -177 759 -46 q 106 -309 308 -309 q -69 -251 25 -309 q -169 -127 -162 -192 q -92 37 -176 -49 q 137 201 -9 124 q 712 373 379 328 q 973 385 801 385 q 1143 651 1079 526 q 1209 853 1207 777 q 1178 929 1212 908 q 1082 950 1144 950 q 845 896 976 951 q 608 766 713 842 q 431 610 503 690 q 356 479 358 529 q 366 450 355 462 q 395 438 377 438 q 602 509 454 438 q 934 709 750 580 q 946 714 946 718 q 936 696 947 708 q 671 460 800 545 q 455 376 542 376 q 333 433 386 376 q 283 544 281 489 q 356 707 286 622 q 529 860 425 793 q 765 971 634 927 q 1017 1013 897 1014 q 1116 996 1066 1013 q 1209 950 1167 980 q 1277 871 1251 920 q 1300 762 1302 822 m -68 -168 q -42 -223 -69 -207 q 30 -239 -14 -239 q 427 -92 177 -238 q 855 243 676 54 q 950 354 902 290 q 232 154 563 342 q 11 -15 89 73 q -68 -168 -66 -103 z "},"K":{"ha":1267,"x_min":11,"x_max":1697,"o":"m 676 438 q 876 713 812 618 q 940 855 939 809 q 905 931 942 907 q 823 954 869 954 q 587 897 720 954 q 346 763 454 841 q 162 600 238 685 q 85 464 87 516 q 118 426 83 426 q 367 512 201 426 q 661 704 533 597 q 673 707 674 716 q 665 690 672 700 q 413 452 553 549 q 188 356 274 356 q 65 418 119 356 q 13 536 11 480 q 89 703 16 614 q 271 862 162 792 q 517 976 380 933 q 772 1014 654 1020 q 957 933 877 1009 q 1033 759 1037 858 q 979 647 1032 725 q 824 438 925 569 q 1131 726 964 580 q 1579 1011 1440 994 q 1661 957 1626 1016 q 1694 850 1697 899 q 1635 763 1693 818 q 1528 678 1576 707 q 1518 678 1518 673 l 1522 690 q 1564 745 1529 701 q 1624 828 1598 788 q 1649 885 1650 868 q 1636 905 1647 900 q 1607 907 1624 910 q 1407 817 1530 893 q 1175 658 1284 740 q 768 326 917 465 q 965 99 851 208 q 1191 -77 1078 -10 q 1370 -139 1298 -139 q 1491 -66 1452 -139 q 1498 -61 1496 -60 q 1498 -69 1500 -62 q 1476 -135 1495 -92 q 1444 -196 1458 -177 q 1394 -245 1418 -231 q 1119 -160 1311 -287 q 715 270 920 -28 q 695 252 709 265 q 671 230 681 239 q 499 -12 519 20 q 480 -44 498 -14 q 454 -88 462 -74 q 433 -128 447 -103 q 414 -174 420 -154 q 407 -212 408 -194 q 415 -230 405 -228 q 525 -155 429 -234 q 681 -18 620 -77 q 691 -14 687 -12 q 691 -19 693 -15 q 569 -187 642 -100 q 464 -275 496 -275 q 382 -252 423 -275 q 327 -204 348 -231 q 307 -149 306 -176 q 371 3 308 -95 q 629 371 434 101 q 584 449 584 438 q 619 519 587 481 q 628 528 623 525 q 636 534 632 532 q 643 537 640 536 q 647 538 645 538 q 651 537 650 537 q 654 536 653 537 q 646 524 647 532 q 676 438 642 503 z "},"L":{"ha":1092,"x_min":-234,"x_max":1331,"o":"m 925 -129 q 435 -84 713 -76 q 150 -116 240 -89 q -13 -204 123 -139 q -199 -271 -150 -268 q -224 -263 -215 -272 q -233 -240 -234 -254 q -218 -189 -233 -224 q -188 -135 -204 -154 q 60 -52 -157 -91 q 138 -5 95 -41 q 216 68 182 31 q 307 179 251 105 q 393 295 363 253 q 488 431 423 338 q 580 563 546 515 q 667 681 614 611 q 754 790 719 750 q 834 877 788 830 q 917 949 880 924 q 996 993 954 974 q 1076 1012 1037 1011 q 1256 952 1182 1016 q 1310 798 1331 889 q 1201 650 1292 726 q 1000 513 1111 574 q 989 510 994 510 q 984 514 984 510 q 993 529 984 519 q 1033 574 997 534 q 1097 647 1068 613 q 1159 725 1125 681 q 1213 809 1193 769 q 1234 875 1233 848 q 1219 935 1235 918 q 1170 951 1203 953 q 1073 917 1126 949 q 970 839 1020 886 q 856 717 920 793 q 741 576 792 642 q 622 415 691 510 q 394 130 514 265 q 223 -44 274 -4 q 556 -11 385 -16 q 862 -20 729 -5 q 1026 -66 996 -34 q 1048 -99 1036 -77 q 1092 -226 1090 -169 q 1091 -235 1093 -235 l 1087 -230 q 1074 -206 1079 -214 q 1052 -183 1068 -199 q 1004 -154 1035 -167 q 925 -129 972 -141 z "},"M":{"ha":1832,"x_min":85,"x_max":2026,"o":"m 533 112 q 725 376 585 197 q 875 568 865 556 q 1041 855 1040 787 q 1002 934 1043 911 q 896 956 960 956 q 691 915 803 957 q 469 799 579 872 q 248 614 339 713 q 157 454 158 515 q 170 419 156 432 q 206 406 184 406 q 454 500 282 407 q 751 699 626 593 q 763 703 763 709 q 753 684 763 696 q 497 437 642 542 q 266 332 351 332 q 139 392 192 332 q 88 524 85 452 q 138 666 90 591 q 269 806 187 740 q 448 923 350 871 q 657 1002 546 974 q 865 1024 768 1029 q 1053 937 972 1018 q 1129 751 1134 856 q 1028 568 1127 704 q 1282 797 1145 686 q 1460 908 1418 908 q 1556 859 1514 908 q 1581 813 1575 837 q 1577 781 1588 790 q 1495 704 1540 756 q 1369 532 1451 651 q 1178 232 1266 388 q 1379 470 1248 327 q 1655 741 1511 612 q 1877 907 1799 871 q 1946 893 1907 921 q 2005 826 1985 864 q 2010 776 2026 787 q 1739 460 1922 710 q 1620 283 1686 388 q 1489 43 1554 178 q 1424 -158 1424 -92 q 1474 -239 1425 -224 q 1668 -190 1534 -259 q 1900 -38 1801 -122 q 1910 -34 1906 -33 q 1907 -44 1913 -34 q 1730 -228 1827 -160 q 1566 -296 1632 -296 q 1395 -229 1473 -296 q 1321 -74 1317 -161 q 1372 109 1323 -2 q 1494 331 1422 220 q 1646 551 1565 442 q 1794 737 1726 659 q 1901 848 1862 815 q 1900 856 1910 856 q 1779 780 1873 856 q 1614 639 1686 704 q 1193 201 1323 370 q 1088 43 1130 120 q 1044 -66 1046 -34 q 1060 -105 1042 -89 q 984 -73 1021 -105 q 941 -2 947 -42 q 1100 340 933 56 q 1455 845 1267 624 q 1456 850 1457 847 q 1450 853 1454 854 q 1268 729 1377 818 q 909 388 1084 579 q 615 26 765 232 q 532 -157 534 -90 q 543 -181 532 -179 q 542 -189 550 -184 q 525 -192 534 -194 q 470 -147 509 -191 q 436 -75 431 -103 q 533 112 446 -30 z "},"N":{"ha":1543,"x_min":97,"x_max":1716,"o":"m 959 671 q 1054 858 1051 806 q 1046 906 1056 887 q 1020 935 1037 925 q 988 950 1003 946 q 953 956 973 954 q 729 927 855 970 q 482 802 604 884 q 262 617 351 716 q 171 457 172 518 q 184 422 170 435 q 220 409 198 409 q 468 503 296 410 q 765 702 640 596 q 777 705 777 713 q 767 687 776 700 q 510 440 655 545 q 280 335 365 335 q 152 395 206 335 q 99 527 97 455 q 150 669 101 594 q 280 809 199 744 q 460 926 362 874 q 670 1005 559 978 q 879 1027 781 1032 q 1067 940 986 1021 q 1143 754 1147 859 q 993 502 1141 703 q 1181 665 1068 575 q 1391 818 1294 754 q 1582 917 1538 917 q 1668 864 1628 917 q 1698 782 1716 795 q 1435 465 1614 719 q 1322 290 1385 393 q 1197 51 1259 186 q 1139 -151 1136 -84 q 1161 -210 1140 -187 q 1220 -234 1183 -234 q 1407 -170 1291 -233 q 1611 -31 1524 -107 q 1621 -27 1616 -27 q 1619 -36 1625 -28 q 1445 -223 1538 -159 q 1282 -287 1351 -287 q 1114 -214 1192 -287 q 1037 -65 1035 -141 q 1106 160 1041 20 q 1260 435 1171 300 q 1435 684 1349 571 q 1575 849 1521 797 q 1581 869 1595 870 q 1577 868 1579 869 q 1313 714 1457 817 q 887 326 1104 564 q 696 93 781 209 q 583 -92 611 -24 q 570 -150 569 -128 q 582 -174 571 -172 q 583 -183 593 -176 q 564 -186 575 -187 q 508 -140 548 -185 q 473 -67 468 -95 q 703 317 493 28 q 823 481 729 354 q 959 671 918 609 z "},"O":{"ha":1342,"x_min":42,"x_max":1362,"o":"m 99 17 q 119 118 100 54 q 45 267 42 188 q 142 519 49 380 q 378 772 234 658 q 671 947 515 881 q 985 1012 828 1012 q 1168 969 1082 1012 q 1308 842 1253 926 q 1359 651 1362 757 q 1297 427 1356 552 q 1139 181 1238 302 q 922 -43 1041 60 q 667 -209 803 -145 q 411 -272 531 -272 q 313 -254 365 -272 q 210 -202 260 -236 q 129 -111 160 -169 q 99 17 97 -53 m 497 494 q 332 304 404 409 q 225 89 261 199 l 245 87 q 435 135 307 87 q 741 289 563 184 q 1063 525 919 394 q 1067 526 1067 530 q 1063 514 1067 519 q 664 173 896 312 q 293 33 432 33 q 213 53 262 33 q 193 -60 194 -6 q 228 -161 191 -122 q 338 -200 265 -200 q 571 -137 442 -200 q 817 28 699 -75 q 1035 253 935 131 q 1198 506 1136 375 q 1264 743 1261 637 q 1202 896 1267 845 q 1036 946 1138 948 q 728 873 884 942 q 439 687 572 803 q 222 435 309 572 q 131 203 135 299 q 134 162 131 174 q 273 405 176 275 q 473 621 370 535 q 573 695 516 657 q 699 769 629 733 q 841 823 768 806 q 969 828 913 841 q 1053 775 1022 815 q 1090 686 1085 734 q 1088 675 1091 676 q 1082 679 1085 674 q 973 740 1050 740 q 744 673 870 740 q 497 494 619 605 z "},"P":{"ha":1230,"x_min":99,"x_max":1360,"o":"m 493 160 q 325 -101 393 28 q 255 -290 257 -231 q 262 -308 255 -303 q 256 -310 262 -310 q 204 -279 239 -310 q 169 -213 168 -249 q 173 -189 169 -206 q 248 -28 191 -138 q 358 161 306 81 q 259 185 301 168 q 152 287 174 216 q 154 302 147 299 q 162 296 158 304 q 319 223 200 223 q 403 229 355 223 q 699 631 568 463 q 741 686 712 649 q 780 737 770 723 q 806 774 791 750 q 827 812 822 797 q 833 841 832 827 q 825 866 833 859 q 829 869 825 869 q 897 824 851 869 q 942 751 943 780 q 813 577 942 728 q 567 263 728 476 q 810 349 689 296 q 1036 469 932 403 q 1206 615 1140 535 q 1275 769 1272 694 q 1199 881 1277 840 q 966 934 1122 923 q 697 909 840 943 q 443 818 553 874 q 260 695 333 762 q 184 576 186 628 q 222 525 183 546 q 306 496 261 504 q 321 487 322 493 q 309 481 321 481 q 169 511 221 481 q 119 558 139 529 q 100 619 99 588 q 213 816 104 724 q 493 960 322 908 q 848 1013 663 1013 q 988 1002 919 1013 q 1126 965 1057 991 q 1247 900 1196 939 q 1329 799 1298 861 q 1357 660 1360 737 q 1229 462 1354 564 q 928 278 1105 360 q 493 160 699 170 z "},"Q":{"ha":1257,"x_min":34,"x_max":1331,"o":"m 1298 717 q 1239 502 1300 625 q 1085 268 1177 378 q 888 65 993 157 q 700 -68 783 -27 q 1053 -104 880 -74 q 1330 -184 1225 -135 q 1330 -186 1331 -185 q 1327 -188 1329 -187 q 1322 -188 1326 -189 q 785 -138 1058 -129 q 505 -159 652 -141 q 268 -243 428 -192 q 61 -299 108 -294 q 43 -245 34 -302 q 80 -154 53 -182 q 391 -77 140 -98 l 471 -71 q 826 168 656 15 q 1097 485 996 322 q 1203 771 1199 649 q 1169 903 1205 855 q 1050 952 1132 952 q 859 911 964 952 q 655 803 754 870 q 462 650 556 737 q 298 473 368 563 q 188 293 229 384 q 149 132 146 202 q 231 73 150 73 q 539 218 325 73 q 892 524 753 363 q 906 533 900 534 q 903 513 913 533 q 603 162 793 317 q 282 7 412 7 q 124 71 204 7 q 48 230 45 135 q 108 413 51 309 q 262 622 165 518 q 475 814 359 725 q 728 957 592 902 q 984 1012 863 1012 q 1200 934 1107 1012 q 1298 717 1293 857 z "},"R":{"ha":1218,"x_min":96,"x_max":1346,"o":"m 987 926 q 481 825 729 940 q 269 693 356 767 q 179 567 182 620 q 220 512 178 534 q 303 481 261 489 q 319 471 321 478 q 307 467 316 467 q 165 497 218 467 q 115 541 135 513 q 97 601 96 569 q 221 808 101 712 q 517 957 340 905 q 905 1009 714 1016 q 1090 975 1009 1004 q 1220 906 1172 947 q 1297 818 1267 865 q 1337 731 1327 770 q 1342 662 1346 691 q 1228 493 1331 579 q 964 341 1124 406 q 546 231 806 276 q 928 -71 722 49 q 1176 -165 1101 -165 q 1233 -157 1208 -165 q 1275 -134 1259 -150 q 1296 -111 1291 -118 q 1311 -89 1301 -105 q 1316 -84 1315 -81 q 1316 -92 1317 -87 q 1276 -193 1312 -130 q 1212 -271 1241 -253 q 1163 -281 1190 -281 q 995 -231 1094 -281 q 800 -105 895 -181 q 623 47 704 -29 q 488 185 542 123 q 293 -118 355 11 q 283 -137 287 -129 q 274 -158 279 -145 q 264 -178 268 -170 q 259 -194 261 -186 q 256 -206 256 -202 q 260 -210 256 -210 q 369 -130 274 -210 q 520 4 465 -49 q 533 9 531 16 q 531 3 533 6 q 405 -165 485 -74 q 292 -255 325 -255 q 220 -232 256 -255 q 161 -144 160 -197 q 380 233 162 -72 l 369 240 q 352 293 349 261 q 376 354 355 325 q 421 380 397 382 q 455 334 426 379 q 520 416 469 351 q 593 509 571 480 q 689 624 635 561 q 769 719 743 688 q 815 783 795 750 q 837 839 835 816 q 828 862 837 855 q 832 864 828 864 q 899 819 854 864 q 942 746 943 774 q 814 579 940 723 q 591 313 666 409 q 919 443 677 338 q 1160 595 1064 506 q 1259 768 1255 684 q 1196 874 1261 829 q 987 926 1130 919 z "},"S":{"ha":1249,"x_min":-204,"x_max":1257,"o":"m 1245 344 q 1254 334 1256 341 q 1248 332 1253 331 q 1080 359 1183 347 q 1098 280 1099 316 q 993 89 1095 191 q 743 -95 891 -13 q 423 -226 594 -177 q 136 -275 251 -275 q -12 -248 65 -275 q -147 -172 -90 -222 q -202 -63 -204 -122 q -79 131 -198 35 q 226 295 40 226 q 830 402 512 399 q 981 393 901 402 q 706 526 925 463 q 625 548 683 532 q 533 574 567 563 q 473 594 498 584 q 418 632 439 607 q 406 675 404 653 q 510 826 408 745 q 763 958 606 902 q 1045 1014 921 1014 q 1182 957 1129 1014 q 1231 818 1234 901 q 1155 712 1230 771 q 999 615 1081 653 q 882 577 918 577 q 874 581 875 577 q 880 590 873 584 q 1071 752 964 645 q 1173 896 1178 858 q 1114 934 1168 934 q 858 881 998 934 q 624 758 718 828 q 528 639 530 688 q 533 625 528 631 q 550 612 538 619 q 573 601 561 606 q 606 590 585 596 q 642 579 626 583 q 682 568 657 575 q 723 558 707 562 q 1064 386 997 480 q 1245 344 1156 372 m 997 337 q 993 360 997 345 q 889 362 935 363 q 361 252 625 356 q 24 67 159 173 q -113 -121 -111 -38 q -101 -155 -114 -141 q -63 -175 -88 -169 q -19 -182 -38 -181 q 26 -184 1 -184 q 309 -130 140 -184 q 627 -1 478 -77 q 892 175 791 82 q 997 337 994 267 z "},"T":{"ha":957,"x_min":103,"x_max":1871,"o":"m 1864 856 q 1868 849 1871 854 q 1859 848 1865 846 q 1138 958 1498 958 q 794 917 967 958 q 493 811 622 876 q 283 665 364 747 q 198 503 201 582 q 233 452 196 465 q 443 508 282 434 q 730 674 604 582 q 743 676 741 683 q 733 660 743 671 q 512 467 630 548 q 310 387 393 387 q 167 455 232 387 q 105 580 103 524 q 183 750 108 668 q 383 895 259 832 q 683 995 507 957 q 1048 1033 858 1033 q 1491 984 1268 1033 q 1864 856 1714 935 m 827 627 q 935 779 903 728 q 969 864 968 831 q 959 889 969 880 q 965 891 962 891 q 1033 843 986 891 q 1079 770 1080 796 q 968 606 1078 748 q 886 499 950 581 q 796 384 822 417 q 719 283 771 351 q 638 174 667 214 q 574 82 609 134 q 513 -12 538 30 q 494 -44 512 -14 q 468 -88 475 -74 q 447 -128 460 -103 q 428 -174 434 -154 q 421 -212 422 -194 q 427 -230 419 -228 q 532 -161 443 -234 q 693 -18 621 -89 q 705 -13 705 -6 q 704 -19 706 -15 q 581 -189 656 -100 q 474 -277 506 -277 q 387 -253 424 -277 q 316 -149 313 -203 q 368 -18 317 -101 q 546 244 418 65 q 827 627 696 453 z "},"U":{"ha":1517,"x_min":57,"x_max":1716,"o":"m 1100 777 q 1070 684 1099 732 q 982 564 1041 636 q 856 415 952 528 q 710 240 760 302 q 593 90 660 178 q 495 -57 526 2 q 463 -152 464 -116 q 474 -184 462 -174 q 506 -194 486 -194 q 757 -26 566 -194 q 1171 373 949 143 q 1517 762 1344 552 q 1579 857 1554 808 q 1604 936 1604 906 q 1590 967 1605 956 q 1596 968 1592 968 q 1684 911 1640 968 q 1714 842 1716 869 q 1710 832 1714 837 q 1541 605 1628 716 q 1448 487 1453 495 q 1353 346 1400 419 q 1251 179 1306 274 q 1165 -1 1197 84 q 1137 -140 1134 -87 q 1192 -217 1140 -199 q 1384 -173 1250 -237 q 1607 -26 1517 -108 q 1616 -21 1612 -20 q 1613 -31 1621 -21 q 1435 -221 1522 -161 q 1277 -280 1347 -280 q 1106 -207 1182 -280 q 1034 -56 1031 -134 q 1108 176 1037 36 q 1265 431 1178 315 q 868 -28 1091 205 q 590 -261 645 -261 q 468 -233 527 -261 q 377 -157 410 -205 q 355 -57 344 -109 q 400 45 363 -16 q 501 185 437 106 q 621 331 564 264 q 761 493 678 399 q 885 636 843 587 q 1020 834 1018 790 q 980 915 1022 892 q 871 937 938 937 q 637 882 767 937 q 401 748 507 827 q 219 580 294 670 q 142 425 144 490 q 174 393 142 393 q 432 479 261 393 q 730 675 604 565 q 743 679 743 687 q 732 660 743 672 q 473 412 610 506 q 248 318 337 318 q 116 385 176 318 q 59 507 57 451 q 137 681 62 589 q 324 845 213 772 q 576 964 436 918 q 839 1002 717 1010 q 1018 926 933 997 q 1100 777 1103 856 z "},"V":{"ha":1324,"x_min":50,"x_max":1874,"o":"m 1779 872 q 1497 732 1676 879 q 1052 269 1287 560 q 708 -246 816 -22 q 635 -236 692 -281 q 563 -152 583 -197 q 558 -128 558 -138 q 660 143 560 -75 q 860 582 760 361 q 962 863 959 802 q 960 887 963 877 q 950 913 958 897 q 916 939 941 929 q 851 948 891 948 q 639 892 763 948 q 411 756 516 835 q 230 586 306 677 q 153 429 155 495 q 209 372 151 372 q 396 435 266 372 q 699 646 526 499 q 707 652 703 651 q 713 650 712 653 q 707 639 714 647 q 465 390 588 479 q 281 301 343 301 q 132 361 215 301 q 52 482 50 420 q 134 671 56 575 q 325 837 213 767 q 563 952 437 907 q 787 997 689 997 q 986 939 902 997 q 1067 812 1069 880 q 996 582 1065 746 q 848 260 927 419 q 712 -41 769 101 q 670 -217 654 -184 q 1026 328 817 46 q 1428 793 1234 610 q 1605 932 1522 882 q 1733 978 1687 981 q 1809 936 1774 974 q 1871 819 1854 888 q 1871 810 1874 811 q 1865 814 1870 810 l 1855 827 q 1836 848 1843 841 q 1813 863 1829 855 q 1779 872 1797 871 z "},"W":{"ha":1630,"x_min":37,"x_max":2179,"o":"m 1813 732 q 1639 563 1738 673 q 1444 322 1540 452 q 1141 -213 1218 15 q 1110 -233 1134 -233 q 1001 -168 1065 -234 q 937 -51 936 -101 q 1037 240 939 10 q 1245 628 1136 471 q 984 332 1176 579 q 735 -14 838 142 q 598 -234 631 -170 q 583 -244 594 -244 q 485 -183 548 -246 q 422 -72 421 -120 q 479 91 424 -15 q 610 314 533 198 q 762 543 686 429 q 892 750 838 656 q 947 884 946 844 q 947 906 950 893 q 939 931 944 919 q 908 952 933 943 q 844 960 884 960 q 630 904 754 960 q 401 767 506 847 q 219 596 295 687 q 141 439 143 504 q 149 403 140 415 q 186 391 158 391 q 276 410 218 391 q 447 494 334 428 q 676 662 559 560 q 690 668 685 670 q 686 655 694 666 q 443 410 564 493 q 251 327 322 327 q 111 381 185 327 q 40 499 37 435 q 128 690 48 593 q 319 856 207 786 q 556 969 431 925 q 780 1013 682 1013 q 972 955 894 1013 q 1047 826 1049 896 q 992 674 1045 774 q 864 462 939 574 q 714 236 788 349 q 585 17 639 122 q 530 -150 532 -89 q 538 -179 528 -181 q 544 -175 541 -179 q 619 -76 557 -159 q 771 127 681 7 q 940 344 862 246 q 1294 739 1115 563 q 1334 728 1306 750 q 1387 677 1363 706 q 1409 641 1410 649 q 1408 634 1411 635 q 1183 264 1312 545 q 1050 -125 1054 -16 q 1063 -169 1049 -162 q 1072 -165 1068 -172 q 1395 344 1206 81 q 1860 891 1685 752 q 2022 966 1962 971 q 2124 906 2082 960 q 2175 806 2154 870 q 2176 796 2179 797 q 2171 800 2175 796 q 2158 814 2170 801 q 2137 834 2145 827 q 2112 849 2129 841 q 2078 858 2095 857 q 1984 838 2037 861 q 1895 792 1931 815 q 1813 732 1860 768 z "},"X":{"ha":1279,"x_min":40,"x_max":1765,"o":"m 140 -249 q 166 -275 140 -275 q 419 -168 233 -275 q 433 -167 432 -161 q 429 -172 433 -169 q 315 -280 380 -233 q 202 -327 250 -327 q 148 -310 178 -327 q 91 -267 118 -294 q 52 -204 65 -239 q 52 -130 40 -168 q 321 167 91 -27 q 850 561 550 361 q 876 804 876 743 q 849 917 877 881 q 748 952 821 952 q 573 899 674 952 q 387 772 472 846 q 241 614 302 698 q 178 473 181 531 q 190 447 177 457 q 224 436 202 436 q 415 499 276 436 q 730 692 554 563 q 745 696 744 702 q 739 685 746 692 q 553 498 646 573 q 400 399 459 424 q 298 373 340 373 q 158 430 233 373 q 84 551 83 487 q 140 689 84 611 q 280 836 196 767 q 481 952 365 905 q 705 1000 597 1000 q 864 955 792 1000 q 972 847 937 909 q 1000 730 1007 784 l 985 640 q 1081 706 1000 651 q 1192 780 1161 761 q 1294 847 1222 800 q 1404 914 1365 893 q 1497 962 1443 935 q 1590 1001 1551 989 q 1659 1012 1629 1012 q 1699 995 1678 1012 q 1733 957 1720 979 q 1764 822 1756 919 q 1763 814 1765 815 q 1757 818 1762 813 q 1623 902 1710 902 q 1529 888 1581 902 q 1412 842 1478 874 q 1302 787 1347 810 q 1178 714 1256 764 q 1075 647 1100 663 q 976 581 1050 630 q 965 505 974 567 q 952 420 955 442 q 940 341 949 399 q 928 255 932 284 q 918 177 924 226 q 910 96 912 128 q 904 27 907 64 q 902 -42 902 -11 q 951 -157 902 -157 q 1185 -41 1013 -157 q 1190 -41 1187 -38 q 1190 -46 1192 -44 q 1107 -147 1159 -93 q 1022 -205 1054 -201 q 858 -171 929 -218 q 779 -43 787 -125 q 777 22 774 -29 q 782 103 780 73 q 793 194 784 132 q 808 294 802 256 q 825 397 814 331 q 841 500 835 463 q 361 71 580 306 q 140 -249 141 -163 z "},"Y":{"ha":1387,"x_min":35,"x_max":1562,"o":"m 995 147 q 1063 241 1029 193 q 1129 339 1097 290 q 1185 427 1161 388 q 1239 516 1209 466 q 1284 591 1269 566 q 1324 662 1298 615 q 1355 717 1350 709 q 1027 327 1229 530 q 752 124 825 124 q 609 167 668 124 q 551 288 550 210 q 567 341 551 310 q 619 418 582 372 q 680 495 655 465 q 756 583 705 525 q 803 636 764 592 q 869 711 843 681 q 919 785 894 741 q 944 858 943 828 q 937 900 946 882 q 912 926 928 918 q 883 939 896 935 q 851 946 870 943 q 649 911 770 957 q 422 794 528 865 q 239 638 316 722 q 160 496 162 553 q 169 468 159 480 q 198 457 179 457 q 419 541 260 457 q 686 717 579 625 q 698 722 698 726 q 688 703 699 717 q 464 483 593 573 q 255 393 335 393 q 135 457 192 393 q 79 572 77 520 q 152 726 82 644 q 323 871 221 808 q 553 974 425 935 q 790 1006 681 1014 q 957 931 886 1001 q 1025 768 1028 860 q 1018 738 1025 755 q 998 699 1012 721 q 974 661 984 677 q 942 618 964 645 q 911 579 920 590 q 878 539 902 567 q 851 509 854 511 q 793 440 830 483 q 735 372 755 397 q 690 316 714 347 q 656 262 667 285 q 644 219 645 238 q 675 183 643 183 q 972 369 748 183 q 1340 736 1197 556 q 1424 855 1382 790 q 1467 956 1466 921 q 1454 984 1467 978 q 1459 985 1456 985 q 1503 965 1479 985 q 1561 878 1562 917 q 1559 864 1561 871 q 1169 179 1374 468 q 1340 193 1265 191 q 1347 186 1348 193 q 1339 178 1347 181 q 1144 150 1286 174 q 1027 -19 1090 65 q 879 -200 965 -103 q 712 -371 794 -298 q 538 -493 629 -444 q 370 -542 447 -542 q 224 -518 300 -542 q 92 -447 149 -495 q 37 -339 35 -399 q 147 -168 41 -254 q 433 -7 254 -82 q 569 41 488 16 q 695 77 650 65 q 858 116 740 89 q 995 147 975 143 m 142 -401 q 182 -459 147 -439 q 259 -480 217 -480 q 438 -429 342 -480 q 627 -293 533 -379 q 806 -108 721 -206 q 971 106 890 -10 q 780 51 855 75 q 596 -21 705 27 q 385 -130 486 -68 q 201 -274 267 -202 q 142 -401 136 -346 z "},"Z":{"ha":1166,"x_min":-84,"x_max":1491,"o":"m 557 453 q 557 444 565 447 q 540 449 551 444 q 456 506 493 468 q 426 584 419 544 q 474 717 437 645 q 578 851 512 790 q 850 979 681 950 q 1433 926 1029 1001 q 1461 893 1443 925 q 1485 833 1479 860 q 1480 800 1491 806 q 1214 709 1442 816 q 854 518 986 601 q 388 181 584 354 q 195 -4 276 83 q 113 -112 114 -91 q 657 -48 339 -44 q 978 -89 818 -50 q 1214 -198 1137 -128 q 1213 -205 1219 -202 q 1204 -203 1208 -206 q 1012 -132 1126 -150 q 736 -113 899 -115 q 444 -139 600 -112 q 172 -203 287 -167 q 38 -274 67 -238 q -5 -269 27 -288 q -60 -216 -36 -250 q -77 -160 -84 -182 q 236 173 -16 -30 q 847 580 487 375 q 1150 737 1014 674 q 1425 834 1286 799 q 1233 852 1333 845 q 1013 861 1134 859 q 819 851 893 863 q 493 667 548 811 q 504 545 474 620 q 557 453 534 470 z "},"[":{"ha":735,"x_min":-10,"x_max":1020,"o":"m 1014 942 q 1018 934 1020 940 q 1011 927 1016 927 q 621 890 859 933 q 641 837 641 851 q 639 828 641 832 q 432 532 522 665 q 306 342 342 399 q 228 218 269 285 q 184 145 187 151 q 92 -31 116 38 q 231 -13 140 -30 q 385 20 323 4 q 394 19 390 22 q 392 14 399 17 q 215 -71 308 -34 q 83 -93 123 -107 q 29 -46 67 -87 q -9 11 -10 -6 q 79 190 -7 60 q 213 395 107 233 q 397 684 318 558 q 507 872 476 810 q 412 825 428 848 q 410 826 410 822 q 437 902 410 850 q 487 958 463 951 q 679 977 561 981 q 887 963 797 973 q 1014 942 976 952 z "},"\\":{"ha":810,"x_min":306,"x_max":503,"o":"m 491 -61 q 463 -86 487 -76 q 420 -93 438 -96 q 412 -88 416 -92 q 411 -79 409 -83 l 417 -77 q 425 -67 423 -75 q 371 413 436 -22 q 312 877 306 849 q 333 906 317 894 q 415 940 369 929 q 449 942 434 944 q 468 934 464 940 q 446 917 451 936 q 449 639 432 857 q 485 206 467 421 q 491 -61 503 -9 z "},"]":{"ha":666,"x_min":-209,"x_max":738,"o":"m 389 -83 q 392 -90 394 -85 q 386 -94 390 -94 q 15 -113 201 -88 q -206 -183 -171 -138 q -209 -181 -209 -187 q -182 -103 -208 -153 q -134 -51 -158 -59 q 104 -34 -53 -27 q 76 31 74 6 q 78 40 76 33 q 541 726 390 483 q 631 907 614 847 q 493 890 589 908 q 331 856 397 873 q 321 858 321 854 q 324 862 319 860 q 505 943 397 905 q 642 969 613 982 q 700 920 662 960 q 738 861 738 879 q 652 682 735 817 q 501 452 622 634 q 297 139 379 270 q 198 -38 215 9 q 389 -83 314 -49 z "},"^":{"ha":0,"x_min":-838,"x_max":981,"o":"m -780 -349 q -791 -340 -784 -346 q -811 -318 -797 -334 q -831 -286 -825 -301 q -833 -251 -838 -270 q -808 -216 -829 -231 q -427 -103 -698 -139 q 85 -66 -157 -66 q 593 -99 351 -66 q 975 -178 835 -131 q 973 -182 980 -181 l 962 -183 q 284 -141 606 -135 q -484 -214 -193 -150 q -663 -263 -566 -231 q -777 -325 -760 -296 q -780 -349 -785 -343 z "},"_":{"ha":792,"x_min":-109,"x_max":558,"o":"m -88 -94 q -106 -100 -98 -111 q -99 -68 -109 -95 q -69 -5 -90 -41 q -26 53 -49 31 q 71 84 -5 74 q 217 92 146 95 q 490 46 356 87 q 551 14 558 25 q 540 12 549 12 q 116 -9 282 24 q -88 -94 -49 -41 z "},"`":{"ha":366,"x_min":222,"x_max":474,"o":"m 239 655 q 233 663 235 659 q 235 743 222 686 q 278 814 248 800 l 281 814 q 281 777 269 800 q 356 684 303 728 q 468 611 409 641 q 473 605 471 610 q 473 597 474 600 q 469 593 471 593 q 354 610 429 593 q 239 655 279 626 z "},"a":{"ha":659,"x_min":-153,"x_max":687,"o":"m 534 448 q 468 395 534 425 q 496 358 484 380 q 506 327 509 335 q 504 322 506 326 l 478 292 q 372 155 415 219 q 327 74 329 91 q 332 68 327 68 q 458 161 348 68 q 671 354 568 253 q 679 356 674 357 q 685 353 684 356 q 685 345 687 349 q 500 142 637 279 q 318 -9 363 4 q 313 -10 315 -10 q 246 20 281 -10 q 201 98 197 67 q 203 109 201 103 q 331 286 218 145 q 192 152 241 191 q -38 -9 4 -9 q -110 32 -66 -9 q -152 111 -153 73 q -84 248 -151 161 q 74 412 -18 334 q 233 524 155 481 q 364 567 312 567 q 487 533 438 567 q 534 448 535 499 m 406 417 q 403 424 406 422 q 426 423 409 426 q 450 412 442 420 q 468 471 462 424 q 463 503 470 490 q 439 515 455 515 q 316 463 393 515 q 174 350 239 411 q 19 184 84 266 q -48 75 -47 103 q -40 67 -48 67 q 88 136 -19 67 q 298 292 194 205 q 406 417 401 378 z "},"b":{"ha":576,"x_min":-151,"x_max":653,"o":"m 359 565 q 458 526 403 565 q 516 452 513 487 q 509 378 520 419 q 645 393 598 390 q 652 385 651 393 q 646 375 653 376 q 499 354 548 362 q 411 218 471 286 q 294 108 351 151 q 25 -5 150 -5 q -89 27 -28 -5 q -150 110 -151 59 q -58 212 -147 153 q -65 225 -65 221 q -25 314 -64 246 q 53 440 5 370 q 163 596 101 511 q 255 726 225 682 q 325 842 296 788 q 342 931 368 918 q 392 919 374 931 l 396 916 q 439 869 422 896 q 454 825 455 842 q 452 818 454 823 l 253 545 q 359 565 299 565 m 226 451 q 38 255 118 370 q 369 360 182 324 q 427 499 432 459 q 387 527 423 527 q 226 451 328 527 m -75 75 q -42 54 -75 54 q 20 67 -18 54 q 278 248 134 108 q 344 325 325 299 q 131 240 247 300 q -21 143 28 187 q -75 75 -71 98 z "},"c":{"ha":487,"x_min":-124,"x_max":514,"o":"m 422 507 q 269 440 364 507 q 97 281 173 372 q 16 166 45 218 q -16 87 -13 113 q -10 67 -17 75 q 10 60 -2 60 q 89 81 43 59 q 288 192 177 120 q 499 354 399 265 q 504 354 500 355 q 511 349 509 353 q 512 344 514 346 q 249 106 405 221 q 21 -10 94 -10 q -68 38 -12 -10 q -123 123 -124 85 q -43 294 -122 193 q 142 471 36 394 q 350 564 249 550 q 361 565 359 565 q 444 535 406 565 q 481 467 482 505 q 434 402 480 442 q 359 351 388 361 q 357 351 357 350 q 358 357 356 354 q 404 433 377 385 q 433 497 432 482 q 422 507 433 507 z "},"d":{"ha":662,"x_min":-146,"x_max":842,"o":"m 561 427 q 497 340 542 402 q 393 186 453 278 q 333 75 333 95 q 338 69 333 69 q 462 161 354 69 q 674 354 571 252 q 689 354 683 362 q 689 346 692 350 q 544 183 643 287 q 409 53 481 116 q 316 -10 337 -10 q 257 16 295 -10 q 209 85 207 54 q 215 103 209 90 q 302 254 235 152 l 248 203 q 75 52 154 113 q -32 -9 -4 -9 q -101 32 -58 -9 q -146 107 -145 72 q -122 186 -146 137 q 83 423 -62 297 q 329 564 228 549 q 342 565 339 565 q 439 544 407 565 q 475 498 471 524 q 713 841 682 783 q 729 929 753 917 l 730 929 q 733 929 731 929 q 738 929 735 929 q 746 929 741 929 q 755 927 750 928 q 765 923 760 925 q 776 917 770 920 q 822 868 802 900 q 841 818 842 837 q 839 812 841 816 l 561 427 m 14 176 q -42 77 -44 95 q -34 69 -42 69 q 143 168 -1 69 q 364 362 287 267 q 442 490 441 468 q 434 506 442 500 q 417 512 426 512 q 216 394 343 512 q 14 176 89 277 z "},"e":{"ha":512,"x_min":-125,"x_max":541,"o":"m 163 485 q 359 565 288 565 q 450 523 405 565 q 493 440 495 481 q 447 381 491 420 q 337 305 402 343 q 190 238 272 267 q 41 209 107 209 q -18 80 -10 139 q -12 63 -19 68 q 7 58 -5 58 q 79 75 36 57 q 524 354 313 178 q 530 354 526 355 q 537 349 534 353 q 538 344 541 346 q 259 104 421 219 q 25 -12 97 -12 q -69 38 -14 -12 q -124 127 -125 89 q -69 261 -123 184 q 36 381 -29 319 q 163 485 100 442 m 423 504 q 259 421 365 504 q 64 237 152 339 q 318 376 159 257 q 378 431 351 401 q 416 481 405 462 q 423 504 427 501 z "},"f":{"ha":361,"x_min":-346,"x_max":471,"o":"m 58 423 q 41 446 49 437 q 12 471 12 454 q 31 510 12 481 q 67 553 50 540 q 132 524 104 534 q 343 839 292 745 q 360 927 384 913 l 378 927 q 407 916 392 925 q 455 864 439 895 q 469 817 471 832 q 467 811 469 815 l 252 503 q 310 500 283 500 q 458 515 402 500 q 463 512 463 517 q 460 505 464 507 q 206 440 365 453 l 135 340 q 154 153 156 256 q 122 -65 152 41 q 50 -244 93 -170 q -41 -376 7 -318 q -130 -461 -89 -433 q -197 -489 -171 -489 q -295 -449 -245 -489 q -345 -362 -346 -408 q -79 215 -341 -215 q 58 423 -22 313 m -26 -210 q 91 44 50 -95 q 115 314 132 183 q -134 -121 -13 122 q -256 -421 -254 -364 q -255 -431 -256 -427 q -252 -435 -253 -435 q -247 -435 -250 -435 q -154 -370 -222 -435 q -26 -210 -87 -304 z "},"g":{"ha":584,"x_min":-524,"x_max":534,"o":"m 337 291 q 290 245 322 276 q 235 192 257 214 q 190 152 212 170 q 44 35 108 78 q -41 -9 -19 -9 q -112 32 -68 -9 q -154 111 -155 73 q -87 248 -153 161 q 72 412 -20 334 q 231 524 153 481 q 362 567 310 567 q 486 532 437 567 q 532 448 534 497 q 493 394 531 422 q 422 355 454 365 q 455 307 454 323 q 453 295 453 302 q 355 82 436 221 q 458 92 386 85 q 463 88 462 92 q 463 79 465 83 q 456 74 462 75 q 337 51 418 67 q 181 -177 268 -62 q -41 -405 91 -296 q -267 -514 -172 -514 q -441 -466 -362 -514 q -522 -347 -519 -419 q -437 -220 -524 -293 q -217 -84 -351 -146 q 196 54 -33 -1 q 337 291 268 168 m 65 -137 q 169 12 72 -128 l 139 2 q -239 -189 -59 -67 q -314 -244 -279 -216 q -388 -321 -349 -272 q -427 -408 -426 -369 q -415 -440 -428 -427 q -382 -453 -402 -453 q -159 -360 -285 -453 q 65 -137 -33 -267 m 405 372 q 442 427 424 393 q 460 484 459 460 q 437 515 463 515 q 316 464 391 515 q 172 350 240 413 q 17 184 82 266 q -50 75 -49 103 q -42 67 -50 67 q 88 141 -22 67 q 276 280 199 215 q 290 292 280 283 q 303 304 299 300 q 316 315 308 308 q 329 327 325 323 q 340 338 333 331 q 350 348 346 344 q 357 357 354 353 q 363 366 361 362 q 364 373 364 370 q 353 391 364 385 q 356 392 353 391 q 405 372 388 392 z "},"h":{"ha":619,"x_min":-155,"x_max":646,"o":"m -147 93 q 63 427 -126 162 q 127 515 76 444 q 199 615 177 585 q 257 697 220 645 q 315 783 294 749 q 350 841 337 816 q 366 929 390 918 l 368 929 q 371 930 369 929 q 376 930 373 931 q 384 929 379 929 q 393 927 388 928 q 403 923 397 925 q 416 916 409 920 q 460 864 443 896 q 475 818 478 832 q 473 812 475 816 l 197 427 q 15 163 65 241 q 193 354 69 232 q 455 564 409 564 q 522 524 484 564 q 559 453 560 484 q 557 447 559 451 q 512 395 546 435 q 454 326 478 356 q 400 254 431 296 q 288 75 292 109 q 293 69 288 69 q 417 159 310 69 q 630 354 524 249 q 638 356 634 357 q 645 353 643 356 q 644 345 646 349 q 499 183 578 264 q 272 -10 312 -10 q 202 32 243 -10 q 165 103 161 73 q 167 113 165 107 q 307 329 187 163 q 363 402 328 359 q 420 473 397 446 q 442 502 442 501 l 440 504 q 408 487 435 504 q 325 425 380 469 q 212 324 270 380 q 4 111 88 206 q -57 30 -50 44 q -61 -2 -65 7 q -66 -12 -51 -11 q -76 -12 -71 -13 q -122 30 -90 -10 q -147 93 -155 69 z "},"i":{"ha":298,"x_min":-150,"x_max":365,"o":"m 178 393 q 71 249 120 317 q -30 75 -28 112 q -25 69 -30 69 q 99 161 -9 69 q 310 354 207 252 q 325 354 318 362 q 325 346 328 350 q 179 183 279 287 q 44 53 115 115 q -47 -10 -27 -10 q -111 29 -73 -10 q -149 94 -150 67 q -144 111 -149 100 q -97 198 -129 146 q 1 342 -64 250 q 94 475 66 435 q 127 550 127 522 q 120 567 128 563 q 170 550 149 567 q 207 513 188 537 q 225 470 226 488 q 178 393 225 457 m 235 611 q 217 608 225 607 q 202 615 208 610 q 198 623 196 620 q 264 806 261 743 q 251 832 264 827 q 300 817 276 832 q 349 769 332 797 q 364 726 365 741 q 361 720 364 724 q 321 681 351 707 q 264 633 291 654 q 235 611 238 612 z "},"j":{"ha":263,"x_min":-447,"x_max":369,"o":"m -115 178 q 90 467 79 451 q 113 559 138 546 l 128 561 q 157 547 144 558 q 203 498 185 525 q 220 460 221 472 q 201 426 220 453 q 136 340 182 400 q 69 251 91 280 q -140 -63 -17 137 l -114 -34 q 257 339 165 256 q 265 340 262 342 q 270 333 268 338 q 270 327 272 329 q 100 146 229 286 q -121 -106 -29 6 q -322 -395 -270 -284 q -342 -452 -337 -424 q -340 -490 -347 -481 q -370 -483 -340 -500 q -423 -431 -400 -466 q -434 -363 -447 -396 q -115 178 -348 -152 m 238 611 q 219 609 229 607 q 202 616 209 611 q 197 625 194 622 q 263 808 260 745 q 250 834 263 829 q 299 819 275 834 q 350 770 331 799 q 366 726 369 741 l 364 720 q 324 681 355 707 q 268 633 294 654 q 238 611 241 612 z "},"k":{"ha":543,"x_min":-155,"x_max":568,"o":"m -147 90 q 40 396 -125 160 q 46 447 40 429 q 58 461 49 454 q 73 471 66 468 q 90 479 79 474 l 101 484 q 355 841 307 754 q 371 929 394 918 l 372 929 q 374 931 372 931 q 379 931 376 931 q 385 930 381 931 q 393 928 389 929 q 403 924 397 926 q 415 918 409 921 q 464 866 446 896 q 480 823 482 837 q 478 816 480 821 l 213 448 q 404 571 353 571 q 484 533 443 571 q 524 452 525 496 q 436 337 521 402 q 269 271 351 271 q 159 299 201 271 q 314 18 220 143 q 467 -107 408 -107 q 515 -88 486 -107 q 560 -53 544 -69 q 566 -51 564 -49 q 566 -58 568 -52 q 534 -110 545 -95 q 473 -177 511 -142 q 408 -212 436 -212 q 317 -156 369 -210 q 221 -23 266 -101 q 140 134 176 56 q 87 268 105 212 q 17 167 37 201 q -60 -1 -73 21 q -65 -11 -50 -10 q -75 -11 -69 -12 q -122 29 -89 -9 q -147 90 -155 66 m 429 520 q 308 479 387 520 q 154 361 230 437 q 203 334 171 334 q 307 376 249 334 q 400 462 364 417 q 429 520 435 506 z "},"l":{"ha":298,"x_min":-152,"x_max":478,"o":"m 197 427 q 171 392 197 426 q 114 312 146 358 q 49 216 82 266 q -7 127 16 167 q -30 75 -30 88 q -25 69 -30 69 q 99 161 -9 69 q 310 354 207 252 q 325 354 318 362 q 325 346 328 350 q 179 183 279 287 q 44 53 115 115 q -47 -10 -27 -10 q -105 18 -67 -10 q -151 85 -152 60 q -145 103 -151 90 q 62 427 -114 181 q 142 538 82 456 q 232 661 202 620 q 299 757 262 703 q 351 841 335 811 q 368 929 391 918 q 370 929 369 929 q 374 929 372 929 q 380 929 377 929 q 386 929 382 929 q 393 927 389 928 q 400 925 396 926 q 408 920 404 923 q 417 915 412 918 q 462 865 446 893 q 476 818 478 838 q 474 812 476 816 l 197 427 z "},"m":{"ha":880,"x_min":-160,"x_max":909,"o":"m -156 98 q -110 185 -151 125 q -4 334 -69 245 q 91 467 62 423 q 114 559 139 546 l 115 559 q 119 559 116 559 q 124 559 121 560 q 132 558 128 559 q 141 556 137 558 q 151 552 145 554 q 161 545 156 549 q 205 500 190 524 q 220 460 220 476 q 192 413 220 452 q 110 302 165 374 q 26 190 54 231 q 168 348 80 260 q 309 484 225 408 q 419 560 393 560 q 474 535 448 560 q 515 489 500 514 q 528 452 530 465 q 526 446 528 450 q 411 310 452 360 q 311 175 365 253 q 463 347 374 255 q 536 420 497 382 q 630 505 575 458 q 707 558 686 552 l 709 558 q 714 559 712 559 q 777 521 741 559 q 816 449 819 472 q 814 442 816 447 q 701 307 740 357 q 606 182 661 262 q 550 75 551 101 q 554 69 550 69 q 678 159 572 69 q 892 354 785 249 q 903 355 897 359 q 906 345 909 350 q 761 183 840 264 q 534 -10 574 -10 q 463 32 504 -10 q 424 103 421 73 q 426 113 424 107 q 565 319 442 155 q 706 512 688 483 q 483 321 642 482 q 230 15 246 80 q 234 9 232 10 q 233 1 241 5 q 221 0 226 -1 q 173 40 208 2 q 143 98 138 77 q 273 307 156 146 q 416 512 390 468 q 330 451 393 501 q 188 322 267 402 q 1 122 92 226 q -73 10 -91 18 q -71 9 -72 9 q -72 1 -62 5 q -83 0 -78 -1 q -128 40 -95 2 q -156 98 -160 77 z "},"n":{"ha":607,"x_min":-161,"x_max":635,"o":"m 546 447 q 501 395 535 435 q 443 326 467 356 q 389 254 420 296 q 278 75 281 109 q 283 69 278 69 q 406 160 299 69 q 619 354 513 250 q 627 356 622 357 q 633 353 631 356 q 632 345 635 349 q 488 183 577 275 q 261 -10 299 -10 q 187 30 225 -10 q 153 101 149 71 q 155 112 153 106 q 296 328 175 163 q 351 401 317 358 q 407 471 385 443 q 428 499 428 498 l 426 501 q 394 483 421 501 q 311 422 366 466 q 198 322 256 378 q 10 130 97 225 q -73 13 -77 35 q -68 9 -71 9 q -69 1 -60 5 q -81 0 -76 -1 q -131 42 -100 3 q -156 98 -161 80 q -108 184 -149 124 q -3 334 -68 245 q 91 467 62 423 q 114 559 139 546 l 115 559 q 117 559 115 559 q 121 559 119 559 q 127 559 124 560 q 133 558 129 559 q 141 556 137 558 q 150 553 145 554 q 159 548 154 551 q 168 542 163 545 q 222 460 222 500 q 191 409 222 451 q 105 295 160 368 q 18 178 50 223 q 181 350 75 247 q 440 564 394 564 q 500 533 465 564 q 548 453 553 486 q 546 447 548 451 z "},"o":{"ha":577,"x_min":-119,"x_max":689,"o":"m -116 134 q 2 349 -113 228 q 220 502 116 471 q 286 546 244 526 q 360 567 328 567 q 466 526 425 567 q 513 425 507 484 q 673 427 631 419 q 688 422 687 429 q 670 410 688 417 l 668 409 q 507 389 614 390 q 459 278 503 346 q 353 147 415 210 q 213 37 291 83 q 73 -9 136 -9 q -63 30 -7 -9 q -116 134 -119 68 m -20 75 q -17 48 -21 57 q 4 40 -13 40 q 206 159 72 40 q 400 391 340 278 q 285 421 337 395 q 173 355 230 402 q 74 255 115 308 q 7 153 33 203 q -20 75 -19 104 m 431 480 q 420 523 432 510 q 386 532 409 536 q 347 513 363 528 q 327 482 331 499 q 420 432 319 446 q 431 480 431 459 z "},"p":{"ha":608,"x_min":-438,"x_max":689,"o":"m 682 366 q 536 347 603 358 q 440 205 498 269 q 261 53 360 118 q 69 -12 161 -12 q -1 7 41 -12 q -63 54 -43 27 q -161 -106 -122 -40 q -249 -262 -200 -172 q -316 -411 -298 -353 q -317 -490 -333 -469 q -350 -482 -317 -500 q -411 -428 -384 -464 q -424 -360 -438 -393 q -296 -111 -387 -267 q -130 155 -206 46 q 91 469 -115 177 q 114 561 142 547 q 157 547 140 560 q 212 490 189 527 q 407 563 310 563 q 513 522 464 563 q 561 437 563 481 q 546 370 560 415 q 682 385 644 382 q 687 380 685 385 q 688 371 689 376 q 682 366 687 366 m 58 233 q 214 304 140 280 q 385 349 287 329 l 402 353 q 463 488 462 434 q 429 524 465 524 q 262 443 371 524 q 58 233 177 382 m -25 71 q -17 58 -26 61 q 3 54 -9 54 q 178 131 75 54 q 372 314 281 208 q 211 255 304 300 q 47 156 118 209 q -25 71 -24 103 z "},"q":{"ha":578,"x_min":-206,"x_max":578,"o":"m 243 155 q 293 223 252 169 q 351 300 334 278 q 128 99 259 206 q -38 -9 -2 -9 q -110 32 -66 -9 q -152 111 -153 73 q -84 248 -151 161 q 74 412 -18 334 q 233 524 155 481 q 364 567 312 567 q 486 533 437 567 q 534 448 535 498 q 468 395 534 425 q 493 365 482 382 q 507 327 512 333 q 502 319 506 325 q 489 303 497 313 q 475 286 481 294 q 254 -24 371 150 q 518 -38 420 -20 q 577 -52 574 -48 q 577 -54 578 -53 q 574 -54 577 -54 q 557 -55 569 -54 q 535 -56 545 -56 q 209 -92 429 -56 q 32 -512 -19 -449 q -1 -504 31 -520 q -59 -452 -33 -487 q -73 -385 -85 -418 q 64 -115 -19 -252 q -4 -130 41 -120 q -82 -157 -34 -138 q -139 -186 -129 -175 q -134 -208 -147 -196 q -101 -230 -121 -220 q -99 -233 -98 -231 q -104 -235 -100 -235 q -164 -218 -138 -232 q -194 -193 -190 -204 q -178 -128 -206 -162 q -130 -85 -151 -94 q 118 -31 -21 -45 q 243 155 172 57 m 406 417 q 403 424 406 422 q 426 423 409 426 q 450 412 442 420 q 468 471 462 424 q 463 503 470 490 q 439 515 455 515 q 316 463 393 515 q 174 350 239 411 q 19 184 84 266 q -48 75 -47 103 q -40 67 -48 67 q 88 136 -19 67 q 298 292 194 205 q 406 417 401 378 z "},"r":{"ha":444,"x_min":-163,"x_max":495,"o":"m 197 355 q -41 76 35 217 q -66 9 -73 19 q -69 0 -59 2 q -79 0 -75 -1 q -128 40 -92 2 q -156 98 -163 77 q -115 173 -150 119 l -59 255 q 89 467 13 361 q 112 559 137 546 q 120 560 114 560 q 138 558 126 561 q 161 546 150 554 q 208 499 193 524 q 222 460 223 475 q 121 315 221 450 q 206 403 146 345 q 440 576 382 563 q 476 544 457 579 q 490 472 495 509 q 467 403 482 417 q 459 435 468 416 q 402 454 442 458 q 197 355 299 441 z "},"s":{"ha":482,"x_min":-184,"x_max":524,"o":"m 107 324 q 165 290 123 307 q 518 375 342 353 q 524 372 524 376 q 518 362 522 365 q 452 343 502 357 q 342 310 402 330 q 222 265 283 291 q 284 223 259 248 q 308 176 309 199 q 296 135 307 154 q 253 90 286 116 q 102 8 193 43 q -58 -27 11 -27 q -144 15 -105 -27 q -176 88 -184 57 q -72 184 -165 127 q 129 276 20 240 q 84 293 101 285 q 47 313 67 301 q 17 340 27 325 q 9 372 7 355 q 68 463 10 415 q 205 544 127 512 q 341 576 283 576 q 420 543 385 576 q 454 479 455 510 q 402 416 453 446 q 321 386 350 386 q 311 392 312 388 q 329 408 313 394 q 355 433 344 422 q 379 457 365 443 q 401 482 393 471 q 409 499 409 494 q 400 504 409 504 q 314 485 366 504 q 215 437 262 466 q 151 391 178 416 q 112 349 124 366 q 107 324 100 331 m 122 149 q 210 232 209 200 q 207 243 210 239 q 191 251 204 247 q 79 197 137 228 q -29 130 21 166 q -105 71 -80 94 q -129 41 -129 48 q -23 76 -118 33 q 122 149 72 119 z "},"t":{"ha":302,"x_min":-152,"x_max":835,"o":"m 197 427 q 171 392 197 426 q 114 312 146 358 q 49 216 82 266 q -7 127 16 167 q -30 75 -30 88 q -25 69 -30 69 q 102 162 -9 69 q 314 354 213 254 q 321 356 317 357 q 326 353 325 356 q 325 346 327 350 q 179 183 279 287 q 44 53 115 115 q -47 -10 -27 -10 q -105 18 -67 -10 q -151 85 -152 60 q -145 103 -151 90 q 62 427 -114 181 l 237 669 q 121 621 146 646 q 153 577 107 607 q 155 573 156 575 q 151 572 154 572 q 94 589 119 575 q 67 613 69 604 q 81 679 57 645 q 125 720 106 713 q 297 754 177 743 q 326 800 308 770 q 351 841 344 829 q 368 929 391 918 q 370 929 369 929 q 374 929 372 929 q 380 929 377 929 q 386 929 382 929 q 393 927 389 928 q 400 925 396 926 q 408 920 404 923 q 417 915 412 918 q 462 865 446 893 q 476 818 478 838 q 474 812 476 816 l 438 762 q 667 743 535 762 q 835 705 799 723 l 834 702 q 537 703 734 710 q 389 693 440 699 l 197 427 z "},"u":{"ha":630,"x_min":-146,"x_max":658,"o":"m 564 447 q 518 394 544 425 q 375 200 449 308 q 299 75 301 92 q 304 69 299 69 q 429 160 322 69 q 642 354 536 250 q 656 354 650 361 q 656 346 658 349 q 510 183 612 288 q 376 53 448 116 q 283 -10 304 -10 q 216 31 253 -10 q 179 101 178 72 q 315 316 181 134 q -24 -7 48 31 l -27 -9 q -103 36 -60 -9 q -145 118 -146 80 q -138 141 -145 126 q -115 179 -130 156 q -85 225 -100 203 q -44 282 -69 247 q -1 340 -18 316 q 48 405 17 364 q 96 469 79 447 q 138 537 131 513 q 122 561 143 557 q 130 563 124 562 q 148 559 136 563 q 171 546 160 556 q 232 446 238 487 q 230 439 232 443 q 112 303 153 354 q 11 164 52 228 q -31 83 -30 100 q -24 73 -31 73 q 186 233 2 73 q 426 465 370 394 q 464 546 465 513 q 456 563 465 559 l 457 563 q 459 563 457 563 q 463 563 460 563 q 467 563 465 563 q 474 561 470 562 q 481 559 478 561 q 489 556 485 558 q 497 552 493 554 q 505 546 501 549 q 552 494 537 521 q 565 453 567 467 q 565 450 565 452 q 564 447 564 448 z "},"v":{"ha":504,"x_min":-101,"x_max":516,"o":"m 233 456 q 149 346 213 439 q 34 157 84 252 q 2 49 -17 61 q 30 50 13 43 q 129 123 61 62 q 323 347 230 219 q 431 567 416 475 q 418 615 435 591 q 482 561 449 608 q 514 487 516 515 q 394 306 512 435 q 152 75 277 177 q 16 -7 52 -10 q -59 32 -17 -6 q -100 106 -101 69 q 52 426 -100 175 q 67 450 59 437 q 82 472 76 463 q 95 491 88 481 q 106 510 101 502 q 114 525 110 517 q 119 539 118 533 q 120 550 120 545 q 116 559 120 556 q 108 564 113 562 l 123 566 q 158 553 141 564 q 212 506 189 534 q 235 462 235 479 l 233 456 z "},"w":{"ha":730,"x_min":-128,"x_max":744,"o":"m -45 278 q 34 387 -21 312 q 94 469 89 462 q 124 526 116 499 q 118 561 131 553 q 161 546 143 561 q 213 494 189 525 q 234 451 236 463 q 232 444 234 449 q 121 309 159 359 q 57 223 94 278 q -22 75 -25 99 q -15 64 -22 64 q 103 160 7 64 q 317 393 199 255 q 349 436 331 409 q 368 480 366 463 q 361 502 368 497 l 368 504 q 402 494 381 505 q 458 443 434 474 q 480 399 482 411 q 475 392 479 396 q 464 378 471 387 q 450 359 456 369 q 366 234 411 308 q 285 53 287 98 q 296 38 285 40 q 312 41 304 37 q 331 54 319 44 l 344 65 q 557 327 433 131 q 623 454 599 394 q 647 540 646 513 q 638 585 650 574 q 709 541 674 575 q 741 482 744 506 q 709 404 739 460 q 646 304 679 347 q 427 73 540 167 q 301 -6 328 -7 q 224 28 266 -5 q 185 104 182 62 q 213 188 187 127 q 284 314 239 248 q 3 -5 66 31 q -1 -6 0 -6 q -82 44 -36 -6 q -126 132 -127 94 q -45 278 -128 163 z "},"x":{"ha":536,"x_min":-235,"x_max":560,"o":"m 101 46 q 87 270 82 99 q -34 149 47 235 q -96 69 -61 122 q -135 -11 -131 17 q -130 -33 -136 -28 q -146 -33 -131 -34 q -179 -27 -160 -32 q -209 -14 -199 -21 q -235 25 -233 2 q -163 120 -235 53 q 17 263 -92 186 l 89 313 q 93 463 93 437 q 84 515 93 495 q 61 533 75 536 q 63 538 59 533 q 77 547 67 543 q 101 550 88 551 q 171 534 141 548 q 209 507 202 520 q 214 453 216 500 q 213 442 214 451 q 212 417 213 433 q 210 386 210 401 q 400 525 354 493 q 491 575 466 575 q 527 563 509 575 q 549 535 545 551 q 545 471 557 506 q 513 416 533 435 q 506 448 515 433 q 487 463 502 457 q 452 467 471 469 q 340 427 408 462 q 209 349 271 393 q 230 69 197 69 q 548 354 253 69 q 558 353 554 361 q 557 345 559 349 q 411 183 499 272 q 368 137 397 169 q 317 84 338 105 q 272 39 297 63 q 231 3 248 15 q 204 -10 214 -10 q 144 7 178 -10 q 101 46 109 25 z "},"y":{"ha":599,"x_min":-140,"x_max":611,"o":"m 231 441 q 115 306 156 356 q -45 75 -43 108 q -36 64 -45 64 q 97 152 -15 64 q 318 345 208 239 q 356 381 331 358 q 399 424 380 405 q 435 463 418 442 q 473 548 474 512 q 466 564 473 560 q 468 564 467 564 q 472 564 470 564 q 477 564 474 564 q 483 563 480 563 q 490 560 486 562 q 497 557 494 559 q 505 552 501 554 q 514 546 510 549 q 557 499 542 522 q 572 463 573 475 l 568 456 q 458 313 502 370 q 198 -65 310 112 q 409 160 277 29 q 599 340 542 291 q 605 340 603 342 q 610 333 608 338 q 610 327 611 329 q 443 150 574 293 q 219 -106 313 7 q 22 -386 68 -291 q 0 -471 0 -438 q 3 -490 0 -484 q -27 -482 3 -500 q -82 -431 -58 -465 q -92 -363 -106 -396 q 225 173 -32 -213 q 322 310 250 214 q -15 -7 64 35 q -20 -9 -18 -9 q -96 42 -52 -9 q -139 131 -140 92 q -135 148 -139 138 q -121 173 -130 158 q -103 203 -112 188 q -76 240 -93 218 q -46 280 -60 263 q -12 325 -33 298 q 24 371 9 353 q 63 420 38 390 q 100 469 87 451 q 142 537 136 510 q 126 561 147 557 l 127 562 q 130 562 128 562 q 136 563 132 562 q 144 562 140 563 q 153 559 149 561 q 162 554 157 558 q 173 547 168 551 q 221 489 206 517 q 233 448 235 462 q 231 441 233 446 z "},"z":{"ha":490,"x_min":-189,"x_max":528,"o":"m -113 -11 q -128 -20 -113 -11 q -161 -28 -143 -29 q -184 10 -179 -27 q -182 74 -189 47 q -92 143 -168 138 q 386 499 26 220 q 326 474 374 495 q 248 442 279 454 q 176 419 217 429 q 112 409 136 408 q 79 426 90 411 q 73 462 67 441 q 143 581 84 512 q 151 585 152 588 q 151 582 151 584 q 140 542 141 559 q 145 516 140 525 q 161 502 150 507 q 179 496 172 497 q 198 495 187 495 q 464 541 298 487 q 501 567 484 547 q 511 558 505 573 q 526 463 527 515 q 526 458 526 460 q 524 450 526 453 q 517 446 521 448 q 512 443 513 444 q 271 285 409 388 q 45 106 134 182 q 338 42 226 103 q 370 18 354 32 q 385 -4 386 4 l 384 -6 q 321 25 356 12 q 193 51 265 44 q 68 57 121 59 q -28 48 15 54 q -113 -11 -83 6 z "},"{":{"ha":687,"x_min":-32,"x_max":902,"o":"m 393 -53 q 274 -139 337 -107 q 183 -177 210 -171 q 143 -183 156 -183 q 39 -139 110 -183 q -31 -51 -32 -96 q -1 43 -30 -11 q 69 146 29 96 q 150 241 110 196 q 218 325 190 287 q 248 380 247 363 q 199 402 249 402 q 105 386 150 402 q 113 408 103 387 q 137 448 123 428 q 155 468 151 468 q 247 488 206 466 q 320 556 288 511 q 373 644 351 601 q 425 754 395 687 q 474 858 454 821 q 586 970 516 935 q 740 991 656 1005 q 827 968 780 986 q 897 927 875 951 q 892 920 901 924 l 886 920 q 756 931 825 943 q 647 872 688 919 q 559 759 606 825 q 478 645 512 692 q 404 550 444 597 q 317 476 363 503 q 216 442 270 449 q 311 393 276 433 q 322 295 347 353 q 242 176 309 267 q 122 2 175 85 q 75 -112 68 -81 q 119 -134 79 -134 q 389 -48 205 -134 q 396 -47 395 -45 q 393 -53 397 -49 z "},"|":{"ha":627,"x_min":210,"x_max":468,"o":"m 228 -66 q 243 220 210 -25 q 310 700 276 464 q 331 965 344 937 q 325 978 328 973 q 315 981 322 982 q 319 985 314 981 q 377 989 333 996 q 435 969 409 985 q 468 938 460 953 q 449 835 468 934 q 329 260 345 346 q 292 -68 275 -27 q 299 -76 294 -74 q 304 -80 304 -79 q 294 -93 309 -87 q 260 -90 285 -98 q 228 -66 234 -82 z "},"}":{"ha":717,"x_min":-184,"x_max":744,"o":"m 318 881 q 440 967 376 935 q 531 1005 503 999 q 572 1011 559 1011 q 674 967 605 1011 q 743 879 744 924 q 712 785 741 839 q 642 682 683 732 q 559 587 600 632 q 490 503 518 541 q 460 448 462 465 q 471 434 460 439 q 497 427 481 428 q 534 427 514 426 q 574 433 553 428 q 610 442 594 437 q 602 420 612 441 q 578 380 592 400 q 560 360 564 360 q 469 340 509 362 q 400 272 429 317 q 349 183 370 228 q 301 74 329 139 q 252 -30 274 9 q 136 -143 210 -107 q -26 -163 61 -178 q -112 -140 -64 -158 q -183 -99 -159 -123 q -182 -96 -184 -98 q -176 -92 -179 -93 q -170 -92 -172 -91 q -35 -100 -107 -114 q 80 -41 36 -85 q 171 78 120 -1 q 272 230 222 157 q 369 339 323 303 q 500 386 418 377 q 402 436 439 396 q 392 533 365 475 q 472 651 405 560 q 591 826 538 743 q 637 940 644 909 q 595 962 634 962 q 324 876 507 962 q 317 874 318 874 q 318 881 315 875 z "},"~":{"ha":735,"x_min":105,"x_max":611,"o":"m 391 214 q 304 255 358 214 q 216 296 250 296 q 163 282 196 296 q 112 251 130 268 q 108 250 111 249 q 105 254 105 251 q 170 345 111 292 q 286 399 229 399 q 330 384 309 399 q 366 352 351 370 q 403 320 380 334 q 450 306 425 306 q 532 329 487 306 q 605 375 577 353 q 609 374 607 377 q 609 368 611 372 q 517 269 585 325 q 391 214 448 214 z "},"":{"ha":687,"x_min":-6,"x_max":665,"o":"m 502 600 q 403 409 501 574 q 207 77 306 245 q 108 -123 109 -91 q 120 -149 108 -143 l 115 -150 l 113 -150 q 87 -140 107 -150 q 54 -122 66 -131 q 11 -75 29 -100 q -6 -33 -6 -49 q -1 -21 -5 -30 q 146 191 31 28 q 352 485 262 354 q 442 631 442 615 q 440 643 443 639 l 437 649 q 454 652 437 657 q 486 632 469 646 q 502 600 503 618 m 561 720 q 547 718 556 718 q 528 723 538 719 q 509 730 517 726 q 494 738 500 734 q 489 744 488 743 q 553 902 551 839 q 540 926 553 920 l 541 926 q 545 927 543 926 q 552 927 548 927 q 562 926 557 926 q 573 924 567 925 q 583 919 578 922 q 594 912 589 917 q 643 865 622 892 q 663 827 665 838 q 661 824 662 826 q 660 822 660 823 q 659 821 660 822 q 645 804 655 814 q 626 783 636 794 q 604 761 615 772 q 583 741 592 750 q 567 726 574 733 l 561 720 z "},"":{"ha":631,"x_min":-26,"x_max":607,"o":"m 529 521 q 397 469 475 521 q 253 348 319 417 q 139 208 187 279 q 90 103 91 138 q 98 82 89 90 q 125 74 108 74 q 442 223 241 74 q 450 222 446 225 q 451 214 455 218 q 275 58 350 112 q 136 -4 199 3 q 74 -149 74 -111 q 77 -162 73 -156 l 80 -168 q 65 -175 80 -175 q 27 -147 52 -175 q 3 -105 2 -120 q 58 10 3 -69 q -1 65 25 30 q -25 129 -26 100 q 53 303 -25 204 q 239 479 131 403 q 431 573 346 554 q 514 730 514 696 q 503 757 516 752 q 510 759 507 759 q 561 737 536 759 q 607 669 607 691 q 604 657 607 661 l 531 563 q 579 520 559 547 q 598 467 599 494 q 545 404 597 441 q 460 358 494 366 q 458 358 458 357 q 459 363 457 360 q 489 403 460 364 q 533 466 518 442 q 548 500 548 490 q 529 521 548 521 z "},"":{"ha":1118,"x_min":-75,"x_max":1051,"o":"m 826 522 q 818 525 819 519 q 819 534 816 530 q 935 702 895 628 q 972 815 974 777 q 950 848 972 848 q 926 844 938 848 q 899 829 913 840 q 870 806 884 817 q 837 772 857 795 q 802 730 817 749 q 761 678 787 712 q 716 619 735 644 q 662 548 697 593 q 604 469 628 502 q 894 405 806 459 q 890 402 895 404 q 557 413 747 432 q 325 138 478 309 q 690 97 513 131 q 903 24 866 63 q 929 -41 913 13 q 946 -105 946 -94 q 943 -111 946 -110 q 938 -110 941 -112 q 933 -105 935 -108 q 809 -31 917 -76 q 548 51 702 14 q 272 89 394 88 q 136 -9 208 31 q 16 -48 64 -48 q -47 -1 -19 -48 q -57 71 -75 47 q 200 135 -3 132 q 406 399 272 213 q 238 362 310 385 q 153 321 166 339 q 139 313 143 306 q 163 381 135 326 q 224 447 192 437 q 268 457 246 453 q 318 464 290 462 q 363 467 347 467 q 416 470 378 468 q 463 471 453 471 q 524 556 502 526 q 581 634 545 585 q 639 709 616 682 q 692 772 661 736 q 745 828 723 808 q 792 868 767 848 q 839 896 817 888 q 880 905 861 905 q 998 861 946 905 q 1049 754 1051 817 q 964 630 1048 708 q 826 522 879 551 z "},"":{"ha":983,"x_min":5,"x_max":984,"o":"m 580 645 q 656 627 608 645 q 738 572 704 609 q 964 638 847 638 q 964 626 984 638 q 778 489 858 567 q 701 313 774 404 q 530 163 628 221 q 584 95 534 159 q 644 -47 624 36 q 644 -53 645 -51 q 639 -54 642 -56 q 632 -49 636 -53 q 584 14 611 -15 q 521 66 557 43 q 471 97 486 89 q 424 122 456 106 q 343 108 382 108 q 262 118 307 108 q 189 145 217 127 q 19 41 110 111 q 9 37 13 35 q 10 47 5 40 q 141 212 56 138 q 141 248 138 225 q 224 420 155 337 q 378 553 294 503 l 378 577 q 379 611 379 599 q 376 644 378 623 q 369 682 374 666 q 355 712 363 699 q 353 717 353 715 q 356 720 354 719 q 359 720 358 721 q 401 694 371 716 q 459 639 431 672 l 489 605 q 507 607 493 606 q 524 609 522 609 q 549 634 532 623 q 580 645 566 645 m 275 223 q 325 143 269 143 q 362 147 337 143 q 407 176 371 157 q 463 197 442 194 q 467 196 466 197 q 601 354 542 248 q 662 540 660 459 q 626 583 665 583 q 469 524 551 583 q 332 380 387 465 q 275 223 278 295 z "},"":{"ha":1387,"x_min":127,"x_max":1697,"o":"m 1119 269 q 1122 264 1126 268 l 1115 263 q 766 245 996 266 q 620 -79 623 -3 q 623 -83 620 -83 q 854 93 658 -84 q 863 96 863 101 q 862 92 863 94 q 761 -50 828 26 q 654 -125 693 -125 q 567 -91 607 -126 q 530 -19 528 -57 q 630 235 532 52 q 349 151 410 208 q 344 156 344 145 q 374 233 345 189 q 437 283 402 275 l 437 284 q 459 351 432 297 q 519 413 486 405 q 747 438 616 438 q 936 837 932 756 q 915 895 938 874 q 854 919 891 916 q 684 899 778 926 q 508 822 591 871 q 354 716 425 772 q 241 606 283 659 q 198 522 199 553 q 226 491 196 491 q 672 717 369 488 q 675 716 674 719 q 674 714 675 715 q 553 569 630 640 q 405 458 475 498 q 297 419 334 418 q 179 473 232 421 q 132 611 127 526 q 199 737 136 668 q 356 864 262 806 q 573 958 450 922 q 804 986 696 994 q 946 912 874 981 q 1014 784 1017 844 q 971 649 1012 731 q 1283 871 1130 802 q 1488 925 1382 917 q 1684 903 1593 934 q 1697 895 1697 899 q 1685 894 1697 892 q 1501 894 1597 916 q 1286 807 1405 872 q 1056 628 1182 749 q 891 436 929 507 q 1197 360 1092 416 q 1193 358 1197 359 q 844 373 1053 388 q 801 309 830 359 q 1119 269 942 304 m 449 292 l 446 285 q 670 310 564 309 l 701 362 q 449 292 478 329 z "},"":{"ha":840,"x_min":-81,"x_max":814,"o":"m 302 71 q 456 -5 423 20 q 493 -62 494 -33 q 421 -181 491 -114 q 249 -296 350 -248 q 67 -344 149 -344 q -35 -296 11 -344 q -79 -192 -81 -248 q 26 -78 -77 -138 q 176 -18 129 -18 q 178 -29 188 -18 q 130 -69 158 -45 q 64 -129 101 -94 q 2 -198 27 -163 q -25 -253 -24 -233 q 4 -267 -25 -267 q 152 -222 60 -267 q 314 -116 244 -176 q 387 -17 385 -56 q 334 24 388 -4 q 216 81 281 51 q 99 156 152 111 q 47 245 46 201 q 117 357 49 295 q 276 459 185 419 q 433 494 368 500 q 281 566 311 546 q 243 619 241 593 q 315 736 244 671 q 488 848 387 801 q 671 894 590 894 q 771 848 728 894 q 812 746 814 801 q 757 670 811 710 q 646 607 704 630 q 562 583 589 583 q 560 592 551 583 q 582 611 561 593 q 616 641 604 629 q 652 675 628 653 q 691 714 676 697 q 723 751 706 731 q 749 787 740 770 q 757 816 757 804 q 745 831 757 831 q 595 785 689 831 q 427 678 500 738 q 354 583 355 619 q 405 542 353 571 q 522 484 458 514 q 638 408 585 454 q 689 318 690 362 q 615 206 688 269 q 449 103 542 143 q 302 71 357 63 m 579 370 q 566 411 580 394 q 521 449 552 428 q 384 417 474 463 q 222 305 294 371 q 150 201 151 239 q 214 115 149 157 q 349 150 261 103 q 508 264 438 198 q 579 370 578 331 z "},"":{"ha":407,"x_min":199,"x_max":548,"o":"m 373 733 q 312 684 348 729 q 270 621 276 640 q 230 631 264 604 q 202 668 203 653 q 224 729 199 692 q 274 772 250 766 q 333 765 300 780 q 373 733 365 751 m 548 734 q 487 685 524 730 q 446 622 451 641 q 403 632 439 603 q 375 668 379 654 q 397 728 372 693 q 448 769 422 763 q 508 763 475 776 q 548 734 541 750 z "},"":{"ha":907,"x_min":123,"x_max":955,"o":"m 449 395 q 574 436 504 395 q 700 534 643 476 q 796 655 756 591 q 838 765 835 719 q 715 865 840 865 q 546 819 635 865 q 387 705 457 774 q 271 551 317 636 q 221 395 224 467 q 255 304 219 338 q 356 270 291 270 q 620 345 460 270 q 948 576 780 420 q 955 573 955 576 q 954 571 955 572 q 675 295 833 401 q 401 190 517 190 q 214 282 304 190 q 125 451 123 373 q 182 624 128 536 q 314 778 236 713 q 484 886 392 844 q 652 927 576 927 q 836 866 751 927 q 918 726 921 806 q 866 615 917 681 q 747 491 816 549 q 597 393 677 434 q 460 351 517 351 q 361 387 413 351 q 309 466 308 422 q 370 600 310 521 q 511 738 429 679 q 650 796 592 796 q 726 767 688 796 q 764 701 765 738 q 737 657 764 686 q 675 611 709 628 q 669 613 669 607 q 672 621 669 616 q 718 735 717 707 q 708 747 718 747 q 591 691 665 747 q 461 561 518 636 q 403 440 404 487 q 413 407 402 419 q 449 395 425 395 z "},"":{"ha":1138,"x_min":24,"x_max":1076,"o":"m 447 269 q 615 345 489 269 q 847 500 741 421 q 953 590 953 579 q 978 601 956 601 q 1017 591 991 601 q 1059 565 1042 580 q 1068 542 1076 550 q 927 439 1031 500 q 699 316 824 378 q 568 251 575 254 q 716 174 644 226 q 825 75 787 121 q 861 10 862 30 q 859 7 861 7 q 699 121 791 83 q 469 158 607 158 l 401 154 q 407 183 397 154 q 428 240 416 212 q 447 269 441 269 m 77 240 q 257 321 124 240 q 503 486 390 401 q 627 590 616 571 q 656 603 634 603 q 697 591 670 603 q 743 563 724 579 q 754 537 762 546 q 601 426 714 491 q 351 292 489 360 q 209 221 214 223 q 334 161 272 201 q 438 82 396 122 q 503 7 479 42 q 528 -43 528 -27 q 526 -45 528 -45 q 350 79 451 37 q 100 120 250 120 l 28 114 q 33 146 24 114 q 57 209 43 177 q 77 240 71 240 z "},"":{"ha":1089,"x_min":56,"x_max":987,"o":"m 533 774 q 579 838 578 830 q 62 548 302 780 q 56 550 56 548 q 58 553 57 552 q 271 757 141 667 q 519 893 401 848 q 718 934 638 937 q 900 845 826 929 q 971 677 973 760 q 912 499 968 589 q 769 334 857 409 q 906 272 855 272 q 933 300 933 272 q 910 382 935 344 q 911 387 906 387 q 915 387 913 388 q 986 312 987 342 q 947 249 984 282 q 873 216 910 216 q 706 285 806 216 q 452 194 576 194 q 264 264 355 194 q 177 416 174 334 q 288 620 182 517 q 533 774 395 722 m 348 435 q 387 538 349 465 q 480 692 425 611 q 330 543 388 630 q 270 369 272 456 q 297 288 268 321 q 392 256 326 256 q 628 345 509 256 q 464 511 558 403 q 454 496 460 505 q 407 400 407 423 q 417 374 406 389 q 415 373 417 373 q 374 392 402 373 q 348 435 347 411 m 824 691 q 730 596 822 653 q 560 528 639 538 q 690 396 618 460 q 833 565 777 472 q 892 736 889 657 q 858 827 894 794 q 759 861 823 861 q 614 847 690 861 q 643 814 629 832 q 652 800 651 803 q 718 807 697 807 q 792 775 757 807 q 824 691 826 744 m 625 760 q 512 589 614 744 q 660 657 569 601 q 752 752 751 713 q 715 776 752 776 q 625 760 673 776 z "},"":{"ha":360,"x_min":109,"x_max":432,"o":"m 389 647 q 244 599 332 618 q 112 579 155 580 q 109 585 109 579 q 112 599 109 592 q 119 607 114 606 q 263 678 184 629 q 387 779 342 728 q 399 817 407 801 l 403 817 q 429 752 432 800 q 417 695 429 734 q 389 647 405 656 z "},"":{"ha":643,"x_min":-438,"x_max":669,"o":"m 573 447 q 528 394 552 425 q 385 200 458 308 q 309 75 311 92 q 314 69 309 69 q 441 161 330 69 q 655 354 551 253 q 665 355 660 359 q 666 346 669 351 q 519 183 622 288 q 384 52 454 114 q 292 -10 313 -10 q 224 31 263 -10 q 187 101 186 72 q 192 120 187 109 q 207 148 197 131 q 226 179 217 165 q 252 216 236 194 q 277 253 267 238 q 304 291 287 267 q 329 324 322 314 q 122 114 225 213 q -22 -7 19 15 l -27 -9 q -82 18 -50 -9 q -176 -136 -138 -72 q -257 -282 -214 -200 q -315 -417 -300 -363 q -315 -490 -330 -470 q -349 -482 -315 -500 q -410 -428 -382 -464 q -424 -360 -438 -393 q -297 -112 -388 -268 q -118 176 -206 44 q 97 469 -51 274 q 139 537 132 513 q 123 561 144 557 q 131 563 125 562 q 149 559 137 563 q 172 546 161 556 q 233 446 239 487 q 231 439 233 443 q 113 303 154 354 q 12 164 53 228 q -30 83 -29 100 q -24 73 -30 73 q 189 231 3 73 q 436 465 374 390 q 473 546 474 516 q 465 563 474 558 l 466 563 q 467 563 466 563 q 472 563 469 563 q 477 563 474 563 q 483 561 480 562 q 490 559 486 561 q 498 556 495 558 q 506 552 502 554 q 515 546 511 549 q 561 494 546 521 q 575 453 577 467 q 573 447 575 451 z "},"":{"ha":1084,"x_min":115,"x_max":1362,"o":"m 355 266 q 386 310 368 285 q 441 380 405 334 q 514 473 478 425 q 269 363 382 357 q 160 410 205 368 q 116 512 115 453 q 161 636 119 573 q 277 755 204 700 q 459 849 349 810 q 696 900 569 889 q 1069 865 847 912 q 1359 763 1292 817 q 1360 758 1362 760 q 1355 757 1358 756 q 1048 824 1222 800 q 1069 767 1071 784 q 951 618 1068 756 q 713 318 811 451 q 532 43 615 186 q 481 -66 475 -54 q 483 -67 482 -67 q 582 1 504 -67 q 720 130 659 68 q 731 134 730 140 q 730 129 731 131 q 623 -29 692 51 q 524 -110 554 -110 q 440 -72 485 -110 q 395 17 394 -33 l 395 19 q 320 60 354 33 q 287 128 286 88 q 355 266 288 171 m 468 163 q 763 557 535 266 q 858 676 802 608 q 939 779 913 745 q 973 840 964 814 q 873 844 931 844 q 895 778 897 802 q 780 628 894 764 q 490 263 596 410 q 420 148 466 230 q 379 52 375 66 q 382 51 381 51 q 412 66 391 51 q 468 163 432 108 z "},"":{"ha":251,"x_min":-30,"x_max":269,"o":"m 167 20 l 196 5 q 141 -51 168 -13 q 137 -62 134 -62 q 218 -62 183 -47 q 256 -101 243 -73 q 268 -156 269 -130 q 190 -254 267 -189 q 46 -318 112 -318 q -6 -286 18 -318 q -29 -221 -30 -254 q 9 -175 -28 -202 q 72 -151 45 -147 q 30 -205 52 -172 q 11 -244 9 -238 q 83 -210 35 -244 q 166 -138 131 -176 q 191 -91 201 -100 q 107 -98 172 -71 q 82 -92 94 -104 q 66 -73 69 -81 q 98 -29 62 -59 q 167 20 134 1 z "},"":{"ha":1162,"x_min":-68,"x_max":966,"o":"m 480 324 l 466 333 q 447 345 452 342 q 428 358 442 348 q 407 374 413 369 q 386 391 400 380 q 366 409 373 402 q 349 428 359 417 q 335 448 340 439 q 327 467 330 457 q 324 487 324 478 q 364 568 326 519 q 390 583 389 597 q 441 490 389 545 q 550 400 494 436 q 624 364 606 364 q 626 334 632 360 q 603 278 619 309 q 580 248 588 248 q 467 234 530 248 q 343 198 404 220 q 222 150 283 176 q 110 98 161 124 q 19 50 59 72 q -44 14 -20 28 l -67 0 q -67 1 -68 0 q -41 38 -67 11 q 37 103 -14 65 q 152 179 88 140 q 304 259 217 219 q 480 324 392 298 m 799 298 q 751 330 766 319 q 699 369 735 341 q 646 425 663 397 q 629 476 628 452 q 672 563 630 510 q 700 581 699 597 q 756 480 699 538 q 875 381 813 421 q 957 342 937 342 q 958 309 966 338 q 933 248 950 281 q 908 216 916 216 q 784 201 853 216 q 650 162 716 186 q 518 109 584 138 q 396 52 452 80 q 298 -1 341 24 q 229 -40 254 -25 l 203 -54 q 202 -53 202 -54 q 231 -13 202 -43 q 316 57 260 16 q 442 141 372 98 q 607 227 512 184 q 799 298 703 270 z "},"":{"ha":960,"x_min":34,"x_max":862,"o":"m 437 416 q 206 266 298 359 q 112 95 114 173 q 134 21 110 51 q 212 -11 158 -10 q 348 15 278 -11 q 474 81 419 42 q 574 164 529 121 q 643 244 619 207 q 669 298 668 280 q 666 310 670 307 q 652 313 661 313 q 547 275 622 313 q 425 202 472 237 q 416 200 420 198 q 419 209 412 202 q 525 317 465 265 q 625 369 585 369 q 706 324 672 369 q 738 231 740 279 q 704 139 737 191 q 614 37 670 87 q 474 -47 559 -13 q 298 -81 389 -81 q 175 -53 229 -81 q 91 19 121 -25 q 48 108 62 62 q 35 196 34 154 q 103 337 37 271 q 268 451 169 402 q 341 485 287 460 q 438 530 394 509 q 529 579 481 551 q 609 638 577 607 q 650 699 641 669 q 653 745 658 725 q 658 746 655 747 q 697 673 674 737 q 698 572 719 608 q 437 416 660 510 m 753 761 q 734 764 746 756 q 714 782 722 771 q 707 795 705 792 q 762 953 757 871 q 747 978 762 971 l 748 978 q 751 978 749 978 q 757 978 753 979 q 765 977 761 978 q 774 975 769 976 q 783 971 778 973 q 794 964 788 968 q 844 911 826 941 q 861 868 862 881 q 858 861 861 865 q 824 824 849 849 q 777 781 798 799 q 753 761 756 763 z "},"":{"ha":1405,"x_min":-137,"x_max":1655,"o":"m 1166 -271 q 1023 -212 1078 -271 q 970 -94 968 -153 q 1028 174 974 16 q 1152 468 1081 332 q 1026 481 1104 476 q 920 364 996 449 q 802 235 844 280 q 686 111 761 189 q 564 -12 612 33 q 449 -114 516 -57 q 334 -202 382 -171 q 233 -255 285 -233 q 139 -277 181 -277 q -43 -197 51 -277 q -134 -10 -137 -116 q 36 253 -128 128 q 437 448 201 377 q 900 518 673 518 q 980 516 954 518 q 1341 884 1186 713 q 1438 1018 1436 990 q 1426 1041 1438 1032 q 1433 1043 1428 1043 q 1513 994 1467 1043 q 1551 942 1536 968 q 1558 904 1565 917 q 1291 472 1435 761 q 1510 370 1432 428 q 1511 365 1512 369 q 1507 361 1510 362 q 1502 361 1505 359 q 1279 448 1400 419 q 1090 -127 1097 61 q 1091 -161 1090 -147 q 1096 -192 1092 -175 q 1112 -219 1100 -209 q 1143 -229 1124 -229 q 1274 -179 1200 -229 q 1280 -177 1279 -174 q 1276 -188 1281 -181 q 1224 -243 1257 -215 q 1166 -271 1190 -271 m -50 -87 q -29 -163 -52 -134 q 41 -193 -5 -193 q 420 10 154 -192 q 946 483 687 212 q 639 438 792 478 q 366 337 486 399 q 151 202 246 276 q 4 54 57 129 q -50 -87 -48 -21 m 1429 955 q 1052 512 1237 702 q 1168 496 1101 507 q 1429 955 1282 719 m 1420 1139 q 1413 1147 1416 1143 q 1416 1227 1403 1170 q 1458 1298 1428 1284 l 1462 1298 q 1462 1261 1451 1282 q 1537 1168 1484 1212 q 1650 1095 1590 1124 q 1654 1089 1653 1094 q 1654 1081 1655 1084 q 1651 1077 1653 1077 q 1534 1093 1610 1077 q 1420 1139 1458 1110 z "},"":{"ha":1405,"x_min":-137,"x_max":1675,"o":"m 1166 -271 q 1023 -212 1078 -271 q 970 -94 968 -153 q 1028 174 974 16 q 1152 468 1081 332 q 1026 481 1104 476 q 920 364 996 449 q 802 235 844 280 q 686 111 761 189 q 564 -12 612 33 q 449 -114 516 -57 q 334 -202 382 -171 q 233 -255 285 -233 q 139 -277 181 -277 q -43 -197 51 -277 q -134 -10 -137 -116 q 36 253 -128 128 q 437 448 201 377 q 900 518 673 518 q 980 516 954 518 q 1341 884 1186 713 q 1438 1018 1436 990 q 1426 1041 1438 1032 q 1433 1043 1428 1043 q 1513 994 1467 1043 q 1551 942 1536 968 q 1558 904 1565 917 q 1291 472 1435 761 q 1510 370 1432 428 q 1511 365 1512 369 q 1507 361 1510 362 q 1502 361 1505 359 q 1279 448 1400 419 q 1090 -127 1097 61 q 1091 -161 1090 -147 q 1096 -192 1092 -175 q 1112 -219 1100 -209 q 1143 -229 1124 -229 q 1274 -179 1200 -229 q 1280 -177 1279 -174 q 1276 -188 1281 -181 q 1224 -243 1257 -215 q 1166 -271 1190 -271 m -50 -87 q -29 -163 -52 -134 q 41 -193 -5 -193 q 420 10 154 -192 q 946 483 687 212 q 639 438 792 478 q 366 337 486 399 q 151 202 246 276 q 4 54 57 129 q -50 -87 -48 -21 m 1429 955 q 1052 512 1237 702 q 1168 496 1101 507 q 1429 955 1282 719 m 1634 1151 q 1489 1102 1577 1121 q 1358 1082 1401 1083 q 1355 1089 1355 1082 q 1357 1102 1355 1095 q 1364 1110 1360 1109 q 1508 1182 1429 1132 q 1631 1282 1587 1231 q 1643 1321 1651 1303 l 1647 1321 q 1675 1255 1675 1304 q 1661 1197 1674 1235 q 1634 1151 1649 1159 z "},"":{"ha":1405,"x_min":-137,"x_max":1678,"o":"m 1166 -271 q 1023 -212 1078 -271 q 970 -94 968 -153 q 1028 174 974 16 q 1152 468 1081 332 q 1026 481 1104 476 q 920 364 996 449 q 802 235 844 280 q 686 111 761 189 q 564 -12 612 33 q 449 -114 516 -57 q 334 -202 382 -171 q 233 -255 285 -233 q 139 -277 181 -277 q -43 -197 51 -277 q -134 -10 -137 -116 q 36 253 -128 128 q 437 448 201 377 q 900 518 673 518 q 980 516 954 518 q 1341 884 1186 713 q 1438 1018 1436 990 q 1426 1041 1438 1032 q 1433 1043 1428 1043 q 1513 994 1467 1043 q 1551 942 1536 968 q 1558 904 1565 917 q 1291 472 1435 761 q 1510 370 1432 428 q 1511 365 1512 369 q 1507 361 1510 362 q 1502 361 1505 359 q 1279 448 1400 419 q 1090 -127 1097 61 q 1091 -161 1090 -147 q 1096 -192 1092 -175 q 1112 -219 1100 -209 q 1143 -229 1124 -229 q 1274 -179 1200 -229 q 1280 -177 1279 -174 q 1276 -188 1281 -181 q 1224 -243 1257 -215 q 1166 -271 1190 -271 m -50 -87 q -29 -163 -52 -134 q 41 -193 -5 -193 q 420 10 154 -192 q 946 483 687 212 q 639 438 792 478 q 366 337 486 399 q 151 202 246 276 q 4 54 57 129 q -50 -87 -48 -21 m 1429 955 q 1052 512 1237 702 q 1168 496 1101 507 q 1429 955 1282 719 m 1611 1220 q 1667 1065 1619 1135 q 1669 1052 1677 1052 q 1652 1058 1661 1052 q 1566 1149 1584 1111 q 1334 1121 1484 1124 q 1323 1125 1325 1121 q 1323 1133 1321 1129 q 1328 1138 1326 1137 q 1443 1189 1377 1155 q 1556 1251 1510 1222 q 1585 1243 1562 1255 q 1611 1220 1609 1230 z "},"":{"ha":1405,"x_min":-137,"x_max":1761,"o":"m 1166 -271 q 1023 -212 1078 -271 q 970 -94 968 -153 q 1028 174 974 16 q 1152 468 1081 332 q 1026 481 1104 476 q 920 364 996 449 q 802 235 844 280 q 686 111 761 189 q 564 -12 612 33 q 449 -114 516 -57 q 334 -202 382 -171 q 233 -255 285 -233 q 139 -277 181 -277 q -43 -197 51 -277 q -134 -10 -137 -116 q 36 253 -128 128 q 437 448 201 377 q 900 518 673 518 q 980 516 954 518 q 1341 884 1186 713 q 1438 1018 1436 990 q 1426 1041 1438 1032 q 1433 1043 1428 1043 q 1513 994 1467 1043 q 1551 942 1536 968 q 1558 904 1565 917 q 1291 472 1435 761 q 1510 370 1432 428 q 1511 365 1512 369 q 1507 361 1510 362 q 1502 361 1505 359 q 1279 448 1400 419 q 1090 -127 1097 61 q 1091 -161 1090 -147 q 1096 -192 1092 -175 q 1112 -219 1100 -209 q 1143 -229 1124 -229 q 1274 -179 1200 -229 q 1280 -177 1279 -174 q 1276 -188 1281 -181 q 1224 -243 1257 -215 q 1166 -271 1190 -271 m -50 -87 q -29 -163 -52 -134 q 41 -193 -5 -193 q 420 10 154 -192 q 946 483 687 212 q 639 438 792 478 q 366 337 486 399 q 151 202 246 276 q 4 54 57 129 q -50 -87 -48 -21 m 1429 955 q 1052 512 1237 702 q 1168 496 1101 507 q 1429 955 1282 719 m 1576 1084 q 1506 1118 1551 1084 q 1443 1152 1462 1152 q 1402 1142 1425 1152 q 1365 1116 1379 1131 q 1358 1116 1361 1112 q 1357 1119 1357 1118 q 1410 1196 1364 1152 q 1500 1239 1455 1239 q 1560 1204 1518 1239 q 1625 1169 1603 1169 q 1752 1248 1696 1169 q 1755 1251 1753 1250 q 1759 1249 1757 1251 q 1761 1245 1761 1248 q 1687 1139 1750 1193 q 1576 1084 1624 1084 z "},"":{"ha":1405,"x_min":-137,"x_max":1739,"o":"m 1166 -271 q 1023 -212 1078 -271 q 970 -94 968 -153 q 1028 174 974 16 q 1152 468 1081 332 q 1026 481 1104 476 q 920 364 996 449 q 802 235 844 280 q 686 111 761 189 q 564 -12 612 33 q 449 -114 516 -57 q 334 -202 382 -171 q 233 -255 285 -233 q 139 -277 181 -277 q -43 -197 51 -277 q -134 -10 -137 -116 q 36 253 -128 128 q 437 448 201 377 q 900 518 673 518 q 980 516 954 518 q 1341 884 1186 713 q 1438 1018 1436 990 q 1426 1041 1438 1032 q 1433 1043 1428 1043 q 1513 994 1467 1043 q 1551 942 1536 968 q 1558 904 1565 917 q 1291 472 1435 761 q 1510 370 1432 428 q 1511 365 1512 369 q 1507 361 1510 362 q 1502 361 1505 359 q 1279 448 1400 419 q 1090 -127 1097 61 q 1091 -161 1090 -147 q 1096 -192 1092 -175 q 1112 -219 1100 -209 q 1143 -229 1124 -229 q 1274 -179 1200 -229 q 1280 -177 1279 -174 q 1276 -188 1281 -181 q 1224 -243 1257 -215 q 1166 -271 1190 -271 m -50 -87 q -29 -163 -52 -134 q 41 -193 -5 -193 q 420 10 154 -192 q 946 483 687 212 q 639 438 792 478 q 366 337 486 399 q 151 202 246 276 q 4 54 57 129 q -50 -87 -48 -21 m 1429 955 q 1052 512 1237 702 q 1168 496 1101 507 q 1429 955 1282 719 m 1564 1222 q 1503 1174 1540 1218 q 1462 1110 1467 1129 q 1420 1122 1455 1092 q 1392 1157 1395 1143 q 1415 1218 1389 1182 q 1465 1262 1440 1255 q 1524 1255 1491 1269 q 1564 1222 1557 1240 m 1739 1223 q 1678 1175 1715 1219 q 1636 1111 1641 1130 q 1595 1122 1630 1093 q 1566 1157 1569 1143 q 1588 1217 1563 1183 q 1639 1259 1613 1252 q 1699 1252 1667 1265 q 1739 1223 1732 1239 z "},"":{"ha":1405,"x_min":-137,"x_max":1714,"o":"m 1438 1016 q 1436 1113 1404 1049 q 1502 1186 1457 1155 q 1537 1212 1501 1199 q 1607 1224 1573 1224 q 1679 1204 1647 1224 q 1712 1152 1710 1183 q 1653 1044 1714 1107 q 1528 982 1593 982 l 1524 982 q 1558 904 1571 924 q 1291 472 1435 761 q 1510 370 1432 428 q 1511 365 1512 369 q 1507 361 1510 362 q 1502 361 1505 359 q 1279 448 1400 419 q 1090 -127 1097 61 q 1091 -161 1090 -147 q 1096 -192 1092 -175 q 1112 -219 1100 -209 q 1143 -229 1124 -229 q 1274 -179 1200 -229 q 1280 -177 1279 -174 q 1276 -188 1281 -181 q 1224 -243 1257 -215 q 1166 -271 1190 -271 q 1023 -212 1078 -271 q 970 -94 968 -153 q 1028 174 974 16 q 1152 468 1081 332 q 1026 481 1104 476 q 920 364 996 449 q 802 235 844 280 q 686 111 761 189 q 564 -12 612 33 q 449 -114 516 -57 q 334 -202 382 -171 q 233 -255 285 -233 q 139 -277 181 -277 q -43 -197 51 -277 q -134 -10 -137 -116 q 36 253 -128 128 q 437 448 201 377 q 900 518 673 518 q 980 516 954 518 q 1341 884 1186 713 q 1438 1016 1433 986 m -50 -87 q -29 -163 -52 -134 q 41 -193 -5 -193 q 420 10 154 -192 q 946 483 687 212 q 639 438 792 478 q 366 337 486 399 q 151 202 246 276 q 4 54 57 129 q -50 -87 -48 -21 m 1429 955 q 1052 512 1237 702 q 1168 496 1101 507 q 1429 955 1282 719 m 1640 1183 q 1641 1196 1643 1191 q 1632 1201 1639 1201 q 1560 1136 1611 1202 q 1497 1026 1510 1069 q 1505 1010 1496 1012 q 1580 1082 1527 1009 q 1640 1183 1634 1155 z "},"":{"ha":2191,"x_min":-140,"x_max":2270,"o":"m 1369 -268 q 1248 -252 1314 -270 q 1122 -201 1183 -234 q 1022 -113 1062 -168 q 984 6 982 -58 q 1149 468 987 140 q 1022 481 1100 476 q 917 364 993 449 q 799 235 841 280 q 683 111 757 189 q 561 -12 609 33 q 446 -114 513 -57 q 331 -202 379 -171 q 230 -255 282 -233 q 136 -277 177 -277 q -46 -197 48 -277 q -137 -10 -140 -116 q 33 253 -131 128 q 434 448 198 377 q 896 518 670 518 q 976 516 951 518 q 1338 884 1183 713 q 1435 1018 1433 988 q 1423 1041 1435 1032 q 1429 1043 1425 1043 q 1510 994 1464 1043 q 1548 942 1533 968 q 1554 904 1562 917 q 1418 709 1490 828 q 1287 472 1345 591 q 1199 276 1220 330 q 1446 386 1311 343 q 1666 428 1581 428 q 1571 449 1623 431 q 1472 506 1518 467 q 1426 595 1426 546 q 1547 796 1425 692 q 1825 963 1669 901 q 2068 1002 1954 1013 q 2210 948 2152 994 q 2270 832 2269 902 q 2188 712 2270 787 q 2017 598 2105 637 q 2006 600 2011 595 q 2007 605 2005 603 q 2129 755 2073 668 q 2186 888 2185 842 q 2114 942 2186 942 q 1889 879 2020 942 q 1654 722 1755 815 q 1549 550 1552 628 q 1592 488 1548 518 q 1740 448 1636 458 q 1796 464 1751 450 q 1885 488 1841 478 q 1954 499 1929 499 q 1975 496 1968 499 q 1982 487 1983 494 q 1949 422 1983 462 q 1871 382 1915 382 q 1783 395 1834 382 q 1721 408 1731 407 q 1284 198 1452 332 q 1110 -68 1115 64 q 1139 -149 1108 -118 q 1245 -179 1171 -179 q 1446 -142 1335 -179 q 1660 -47 1557 -105 q 1877 91 1764 11 q 2079 246 1989 171 q 2257 404 2169 322 q 2268 406 2268 413 q 2263 391 2268 397 q 2100 222 2202 321 q 1867 9 1999 123 q 1598 -185 1735 -105 q 1369 -268 1460 -265 m -53 -87 q -32 -163 -56 -134 q 37 -193 -9 -193 q 417 10 151 -192 q 942 483 684 212 q 636 438 788 478 q 363 337 483 399 q 148 202 243 276 q 1 54 53 129 q -53 -87 -51 -21 m 1426 955 q 1049 512 1234 702 q 1165 496 1098 507 q 1426 955 1279 719 z "},"":{"ha":1156,"x_min":-50,"x_max":1248,"o":"m 897 509 q 882 509 887 501 q 892 527 880 516 q 1077 729 997 622 q 1159 899 1157 835 q 1143 932 1160 920 q 1103 946 1126 943 q 786 863 973 955 q 442 621 598 771 q 164 268 266 448 q 76 -44 62 89 q 129 -139 82 -105 q 251 -174 175 -174 q 682 -15 415 -174 q 1223 403 949 143 q 1235 402 1236 415 q 1231 390 1235 394 q 1084 236 1158 311 q 904 67 1010 161 q 707 -97 799 -28 q 517 -214 614 -166 q 350 -262 420 -262 l 349 -262 q 302 -323 310 -301 q 303 -327 302 -326 q 346 -319 318 -321 q 404 -327 374 -317 q 449 -371 435 -341 q 460 -433 463 -401 q 418 -500 459 -456 q 309 -581 376 -544 q 184 -619 241 -619 q 127 -579 157 -619 q 98 -511 97 -538 q 138 -462 99 -488 q 206 -436 176 -436 q 206 -439 209 -436 q 126 -545 126 -515 q 137 -551 126 -551 q 236 -509 168 -551 q 355 -419 304 -466 q 394 -359 406 -372 q 345 -349 382 -346 q 267 -370 308 -353 q 229 -338 243 -379 q 300 -259 222 -318 q 188 -232 244 -252 q 79 -177 131 -212 q -9 -89 26 -143 q -45 33 -43 -34 q 36 318 -50 158 q 267 622 123 478 q 638 897 436 787 q 995 1006 840 1006 q 1093 993 1049 1006 q 1165 960 1138 980 q 1209 915 1191 940 q 1235 870 1228 890 q 1244 831 1243 849 q 1146 669 1248 769 q 897 509 1044 569 z "},"":{"ha":1152,"x_min":-56,"x_max":1231,"o":"m 328 -268 q 209 -252 274 -270 q 84 -201 144 -234 q -15 -113 25 -168 q -56 6 -56 -58 q -3 142 -56 75 q 132 260 50 209 q 308 350 214 311 q 488 409 402 389 q 630 428 574 429 q 536 447 590 429 q 434 505 482 465 q 386 595 386 545 q 506 796 385 692 q 784 963 628 901 q 1029 1002 915 1013 q 1171 948 1112 994 q 1231 832 1230 902 q 1147 712 1231 787 q 976 598 1064 637 q 967 599 971 595 q 968 605 965 601 q 1089 755 1033 668 q 1145 888 1144 842 q 1075 942 1145 942 q 848 879 980 942 q 613 722 715 815 q 509 550 512 628 q 552 488 507 518 q 701 448 596 458 q 755 464 710 450 q 845 488 800 478 q 915 499 890 499 q 935 496 927 499 q 941 487 942 494 q 908 422 942 462 q 829 382 874 382 q 741 395 793 382 q 681 408 690 407 q 244 198 411 332 q 71 -68 76 64 q 100 -149 68 -118 q 204 -179 131 -179 q 456 -126 317 -179 q 732 20 594 -72 q 988 205 871 112 q 1218 404 1105 298 q 1228 406 1228 413 q 1222 391 1228 397 q 1060 222 1161 321 q 826 9 958 123 q 557 -185 694 -105 q 328 -268 420 -265 m 981 1118 q 974 1126 976 1122 q 977 1206 964 1149 q 1019 1277 990 1263 l 1022 1277 q 1022 1239 1011 1263 q 1098 1146 1045 1190 q 1212 1074 1152 1103 q 1215 1068 1214 1073 q 1215 1059 1216 1063 q 1212 1056 1214 1056 q 1096 1072 1171 1056 q 981 1118 1020 1089 z "},"":{"ha":1152,"x_min":-56,"x_max":1231,"o":"m 328 -268 q 209 -252 274 -270 q 84 -201 144 -234 q -15 -113 25 -168 q -56 6 -56 -58 q -3 142 -56 75 q 132 260 50 209 q 308 350 214 311 q 488 409 402 389 q 630 428 574 429 q 536 447 590 429 q 434 505 482 465 q 386 595 386 545 q 506 796 385 692 q 784 963 628 901 q 1029 1002 915 1013 q 1171 948 1112 994 q 1231 832 1230 902 q 1147 712 1231 787 q 976 598 1064 637 q 967 599 971 595 q 968 605 965 601 q 1089 755 1033 668 q 1145 888 1144 842 q 1075 942 1145 942 q 848 879 980 942 q 613 722 715 815 q 509 550 512 628 q 552 488 507 518 q 701 448 596 458 q 755 464 710 450 q 845 488 800 478 q 915 499 890 499 q 935 496 927 499 q 941 487 942 494 q 908 422 942 462 q 829 382 874 382 q 741 395 793 382 q 681 408 690 407 q 244 198 411 332 q 71 -68 76 64 q 100 -149 68 -118 q 204 -179 131 -179 q 456 -126 317 -179 q 732 20 594 -72 q 988 205 871 112 q 1218 404 1105 298 q 1228 406 1228 413 q 1222 391 1228 397 q 1060 222 1161 321 q 826 9 958 123 q 557 -185 694 -105 q 328 -268 420 -265 m 1141 1127 q 998 1079 1085 1097 q 866 1059 910 1060 q 863 1065 863 1059 q 866 1079 863 1072 q 873 1087 869 1085 q 1016 1158 937 1109 q 1141 1259 1095 1207 q 1152 1297 1160 1281 l 1156 1297 q 1184 1232 1186 1281 q 1170 1174 1183 1212 q 1141 1127 1157 1136 z "},"":{"ha":1152,"x_min":-56,"x_max":1231,"o":"m 328 -268 q 209 -252 274 -270 q 84 -201 144 -234 q -15 -113 25 -168 q -56 6 -56 -58 q -3 142 -56 75 q 132 260 50 209 q 308 350 214 311 q 488 409 402 389 q 630 428 574 429 q 536 447 590 429 q 434 505 482 465 q 386 595 386 545 q 506 796 385 692 q 784 963 628 901 q 1029 1002 915 1013 q 1171 948 1112 994 q 1231 832 1230 902 q 1147 712 1231 787 q 976 598 1064 637 q 967 599 971 595 q 968 605 965 601 q 1089 755 1033 668 q 1145 888 1144 842 q 1075 942 1145 942 q 848 879 980 942 q 613 722 715 815 q 509 550 512 628 q 552 488 507 518 q 701 448 596 458 q 755 464 710 450 q 845 488 800 478 q 915 499 890 499 q 935 496 927 499 q 941 487 942 494 q 908 422 942 462 q 829 382 874 382 q 741 395 793 382 q 681 408 690 407 q 244 198 411 332 q 71 -68 76 64 q 100 -149 68 -118 q 204 -179 131 -179 q 456 -126 317 -179 q 732 20 594 -72 q 988 205 871 112 q 1218 404 1105 298 q 1228 406 1228 413 q 1222 391 1228 397 q 1060 222 1161 321 q 826 9 958 123 q 557 -185 694 -105 q 328 -268 420 -265 m 1138 1203 q 1206 1056 1151 1120 q 1207 1042 1218 1043 q 1192 1046 1201 1042 q 1097 1128 1123 1087 q 870 1079 1017 1096 q 857 1082 860 1078 q 857 1090 855 1085 q 861 1095 859 1094 q 1079 1229 959 1140 q 1110 1223 1085 1234 q 1138 1203 1135 1213 z "},"":{"ha":1152,"x_min":-56,"x_max":1247,"o":"m 328 -268 q 209 -252 274 -270 q 84 -201 144 -234 q -15 -113 25 -168 q -56 6 -56 -58 q -3 142 -56 75 q 132 260 50 209 q 308 350 214 311 q 488 409 402 389 q 630 428 574 429 q 536 447 590 429 q 434 505 482 465 q 386 595 386 545 q 506 796 385 692 q 784 963 628 901 q 1029 1002 915 1013 q 1171 948 1112 994 q 1231 832 1230 902 q 1147 712 1231 787 q 976 598 1064 637 q 967 599 971 595 q 968 605 965 601 q 1089 755 1033 668 q 1145 888 1144 842 q 1075 942 1145 942 q 848 879 980 942 q 613 722 715 815 q 509 550 512 628 q 552 488 507 518 q 701 448 596 458 q 755 464 710 450 q 845 488 800 478 q 915 499 890 499 q 935 496 927 499 q 941 487 942 494 q 908 422 942 462 q 829 382 874 382 q 741 395 793 382 q 681 408 690 407 q 244 198 411 332 q 71 -68 76 64 q 100 -149 68 -118 q 204 -179 131 -179 q 456 -126 317 -179 q 732 20 594 -72 q 988 205 871 112 q 1218 404 1105 298 q 1228 406 1228 413 q 1222 391 1228 397 q 1060 222 1161 321 q 826 9 958 123 q 557 -185 694 -105 q 328 -268 420 -265 m 1073 1174 q 1012 1126 1049 1170 q 969 1062 975 1081 q 927 1073 963 1044 q 901 1109 902 1095 q 923 1170 897 1134 q 972 1214 949 1207 q 1032 1207 999 1221 q 1073 1174 1064 1192 m 1247 1175 q 1186 1127 1223 1171 q 1143 1063 1150 1082 q 1104 1073 1138 1045 q 1075 1109 1077 1094 q 1096 1169 1072 1135 q 1145 1210 1121 1204 q 1207 1204 1173 1217 q 1247 1175 1240 1191 z "},"":{"ha":1103,"x_min":-219,"x_max":1283,"o":"m 106 -37 q 329 -5 191 -20 q 566 12 467 10 q 711 237 613 99 q 893 486 809 375 q 1044 701 978 596 q 1112 850 1111 807 q 1105 897 1113 878 q 1079 926 1096 917 q 1048 940 1062 936 q 1013 947 1033 944 q 785 906 919 958 q 536 774 651 854 q 340 600 422 693 q 255 442 257 506 q 287 415 253 415 q 522 485 379 415 q 833 699 666 554 q 845 704 844 708 q 835 685 845 699 q 610 451 757 569 q 381 333 462 333 q 240 400 293 333 q 189 529 187 467 q 265 698 192 608 q 447 858 339 787 q 691 973 556 928 q 946 1011 827 1017 q 1132 932 1052 1004 q 1208 752 1213 859 q 1151 632 1207 720 q 1021 448 1094 544 q 854 223 949 351 q 706 11 760 94 q 1017 -29 861 6 q 1280 -111 1172 -64 q 1278 -115 1282 -113 q 1270 -115 1275 -116 q 755 -68 980 -65 q 663 -72 708 -68 q 622 -157 639 -112 q 604 -218 605 -201 q 626 -214 604 -223 q 681 -186 647 -205 q 741 -145 715 -167 q 749 -144 747 -142 q 748 -151 751 -146 q 700 -228 733 -184 q 644 -280 668 -271 q 614 -275 638 -283 q 578 -256 591 -266 q 528 -205 547 -235 q 511 -152 510 -175 q 529 -81 511 -125 q 286 -118 429 -91 q 61 -168 143 -144 q -166 -267 -143 -222 q -150 -301 -176 -287 q -64 -325 -123 -314 q 65 -344 30 -343 q 67 -347 74 -344 q -98 -375 -26 -374 q -196 -353 -171 -376 q -210 -268 -219 -325 q -173 -169 -202 -210 q 106 -37 -112 -82 m 957 1106 q 952 1114 955 1108 q 954 1194 941 1137 q 997 1265 967 1251 l 1000 1265 q 1000 1228 988 1251 q 1075 1135 1022 1178 q 1188 1062 1128 1091 q 1192 1056 1191 1061 q 1192 1048 1193 1051 q 1189 1044 1191 1044 q 1073 1060 1149 1044 q 957 1106 997 1077 z "},"":{"ha":1103,"x_min":-219,"x_max":1283,"o":"m 106 -37 q 329 -5 191 -20 q 566 12 467 10 q 711 237 613 99 q 893 486 809 375 q 1044 701 978 596 q 1112 850 1111 807 q 1105 897 1113 878 q 1079 926 1096 917 q 1048 940 1062 936 q 1013 947 1033 944 q 785 906 919 958 q 536 774 651 854 q 340 600 422 693 q 255 442 257 506 q 287 415 253 415 q 522 485 379 415 q 833 699 666 554 q 845 704 844 708 q 835 685 845 699 q 610 451 757 569 q 381 333 462 333 q 240 400 293 333 q 189 529 187 467 q 265 698 192 608 q 447 858 339 787 q 691 973 556 928 q 946 1011 827 1017 q 1132 932 1052 1004 q 1208 752 1213 859 q 1151 632 1207 720 q 1021 448 1094 544 q 854 223 949 351 q 706 11 760 94 q 1017 -29 861 6 q 1280 -111 1172 -64 q 1278 -115 1282 -113 q 1270 -115 1275 -116 q 755 -68 980 -65 q 663 -72 708 -68 q 622 -157 639 -112 q 604 -218 605 -201 q 626 -214 604 -223 q 681 -186 647 -205 q 741 -145 715 -167 q 749 -144 747 -142 q 748 -151 751 -146 q 700 -228 733 -184 q 644 -280 668 -271 q 614 -275 638 -283 q 578 -256 591 -266 q 528 -205 547 -235 q 511 -152 510 -175 q 529 -81 511 -125 q 286 -118 429 -91 q 61 -168 143 -144 q -166 -267 -143 -222 q -150 -301 -176 -287 q -64 -325 -123 -314 q 65 -344 30 -343 q 67 -347 74 -344 q -98 -375 -26 -374 q -196 -353 -171 -376 q -210 -268 -219 -325 q -173 -169 -202 -210 q 106 -37 -112 -82 m 1111 1130 q 968 1082 1056 1100 q 837 1062 880 1063 q 834 1068 834 1062 q 836 1082 833 1075 q 843 1090 839 1089 q 987 1161 908 1112 q 1111 1262 1065 1210 q 1122 1300 1130 1284 l 1126 1300 q 1154 1235 1156 1284 q 1140 1177 1153 1215 q 1111 1130 1128 1139 z "},"":{"ha":1103,"x_min":-219,"x_max":1283,"o":"m 106 -37 q 329 -5 191 -20 q 566 12 467 10 q 711 237 613 99 q 893 486 809 375 q 1044 701 978 596 q 1112 850 1111 807 q 1105 897 1113 878 q 1079 926 1096 917 q 1048 940 1062 936 q 1013 947 1033 944 q 785 906 919 958 q 536 774 651 854 q 340 600 422 693 q 255 442 257 506 q 287 415 253 415 q 522 485 379 415 q 833 699 666 554 q 845 704 844 708 q 835 685 845 699 q 610 451 757 569 q 381 333 462 333 q 240 400 293 333 q 189 529 187 467 q 265 698 192 608 q 447 858 339 787 q 691 973 556 928 q 946 1011 827 1017 q 1132 932 1052 1004 q 1208 752 1213 859 q 1151 632 1207 720 q 1021 448 1094 544 q 854 223 949 351 q 706 11 760 94 q 1017 -29 861 6 q 1280 -111 1172 -64 q 1278 -115 1282 -113 q 1270 -115 1275 -116 q 755 -68 980 -65 q 663 -72 708 -68 q 622 -157 639 -112 q 604 -218 605 -201 q 626 -214 604 -223 q 681 -186 647 -205 q 741 -145 715 -167 q 749 -144 747 -142 q 748 -151 751 -146 q 700 -228 733 -184 q 644 -280 668 -271 q 614 -275 638 -283 q 578 -256 591 -266 q 528 -205 547 -235 q 511 -152 510 -175 q 529 -81 511 -125 q 286 -118 429 -91 q 61 -168 143 -144 q -166 -267 -143 -222 q -150 -301 -176 -287 q -64 -325 -123 -314 q 65 -344 30 -343 q 67 -347 74 -344 q -98 -375 -26 -374 q -196 -353 -171 -376 q -210 -268 -219 -325 q -173 -169 -202 -210 q 106 -37 -112 -82 m 1090 1205 q 1158 1058 1103 1122 q 1159 1044 1170 1045 q 1144 1048 1153 1044 q 1049 1130 1075 1089 q 822 1081 969 1098 q 809 1084 812 1080 q 809 1092 807 1088 q 813 1097 811 1096 q 1031 1231 911 1142 q 1062 1225 1037 1236 q 1090 1205 1087 1215 z "},"":{"ha":1103,"x_min":-219,"x_max":1283,"o":"m 106 -37 q 329 -5 191 -20 q 566 12 467 10 q 711 237 613 99 q 893 486 809 375 q 1044 701 978 596 q 1112 850 1111 807 q 1105 897 1113 878 q 1079 926 1096 917 q 1048 940 1062 936 q 1013 947 1033 944 q 785 906 919 958 q 536 774 651 854 q 340 600 422 693 q 255 442 257 506 q 287 415 253 415 q 522 485 379 415 q 833 699 666 554 q 845 704 844 708 q 835 685 845 699 q 610 451 757 569 q 381 333 462 333 q 240 400 293 333 q 189 529 187 467 q 265 698 192 608 q 447 858 339 787 q 691 973 556 928 q 946 1011 827 1017 q 1132 932 1052 1004 q 1208 752 1213 859 q 1151 632 1207 720 q 1021 448 1094 544 q 854 223 949 351 q 706 11 760 94 q 1017 -29 861 6 q 1280 -111 1172 -64 q 1278 -115 1282 -113 q 1270 -115 1275 -116 q 755 -68 980 -65 q 663 -72 708 -68 q 622 -157 639 -112 q 604 -218 605 -201 q 626 -214 604 -223 q 681 -186 647 -205 q 741 -145 715 -167 q 749 -144 747 -142 q 748 -151 751 -146 q 700 -228 733 -184 q 644 -280 668 -271 q 614 -275 638 -283 q 578 -256 591 -266 q 528 -205 547 -235 q 511 -152 510 -175 q 529 -81 511 -125 q 286 -118 429 -91 q 61 -168 143 -144 q -166 -267 -143 -222 q -150 -301 -176 -287 q -64 -325 -123 -314 q 65 -344 30 -343 q 67 -347 74 -344 q -98 -375 -26 -374 q -196 -353 -171 -376 q -210 -268 -219 -325 q -173 -169 -202 -210 q 106 -37 -112 -82 m 1033 1179 q 972 1131 1009 1175 q 929 1067 935 1087 q 889 1078 924 1050 q 860 1114 861 1099 q 883 1176 857 1139 q 933 1219 909 1213 q 992 1212 959 1226 q 1033 1179 1025 1198 m 1207 1181 q 1147 1132 1183 1176 q 1104 1068 1111 1089 q 1063 1078 1098 1050 q 1035 1114 1036 1100 q 1057 1175 1032 1140 q 1106 1216 1081 1209 q 1167 1209 1134 1222 q 1207 1181 1200 1197 z "},"":{"ha":1382,"x_min":-169,"x_max":1439,"o":"m 1266 309 q 1021 50 1185 173 q 662 -153 858 -73 q 282 -255 467 -234 q 256 -344 260 -303 q 261 -369 256 -356 q 239 -362 262 -375 q 191 -321 216 -348 q 165 -265 167 -293 q 75 -249 126 -264 q -27 -208 24 -234 q -116 -140 -78 -182 q -159 -53 -154 -99 q -73 110 -169 30 q 190 249 24 190 q 560 338 356 308 q 667 473 626 424 q 435 384 465 437 q 419 376 426 365 q 424 425 412 387 q 466 500 436 463 q 730 552 507 549 l 767 598 q 899 772 877 735 q 919 823 917 802 q 910 853 922 846 q 912 855 908 855 q 921 855 917 856 q 957 833 940 849 q 1006 776 986 807 q 1024 732 1026 746 q 879 544 1019 713 q 941 536 911 541 q 991 527 970 531 q 1028 518 1013 522 q 1050 509 1043 513 q 1054 502 1057 505 q 1049 499 1052 499 q 837 493 973 504 l 721 357 q 1147 353 912 372 q 1254 610 1244 483 q 1237 727 1260 674 q 1174 813 1214 780 q 1080 869 1135 845 q 974 902 1026 892 q 871 916 923 912 q 634 891 756 922 q 424 813 512 860 q 279 713 337 765 q 221 626 222 661 q 228 603 220 614 q 266 577 236 592 q 348 550 296 563 q 354 546 353 549 q 354 542 356 544 q 345 541 351 541 q 201 572 262 544 q 154 610 176 583 q 134 670 132 636 q 195 791 136 729 q 349 904 254 854 q 579 982 444 954 q 848 999 713 1010 q 1024 958 938 993 q 1181 866 1109 924 q 1294 717 1252 808 q 1331 517 1335 626 q 1278 331 1328 427 q 1423 299 1381 317 q 1438 290 1438 293 q 1417 291 1437 287 q 1266 309 1351 301 m 1125 323 q 670 295 880 330 q 356 -129 474 59 q 794 48 588 -72 q 1125 323 1000 168 m 43 -169 q 205 -157 128 -169 q 255 -79 226 -122 q 323 18 284 -36 q 371 85 362 73 q 500 261 447 191 q 193 154 338 223 q -28 11 48 85 q -81 -115 -105 -63 q -28 -157 -67 -145 q 43 -169 12 -169 z "},"":{"ha":1543,"x_min":97,"x_max":1716,"o":"m 959 671 q 1054 858 1051 806 q 1046 906 1056 887 q 1020 935 1037 925 q 988 950 1003 946 q 953 956 973 954 q 729 927 855 970 q 482 802 604 884 q 262 617 351 716 q 171 457 172 518 q 184 422 170 435 q 220 409 198 409 q 468 503 296 410 q 765 702 640 596 q 777 705 777 713 q 767 687 776 700 q 510 440 655 545 q 280 335 365 335 q 152 395 206 335 q 99 527 97 455 q 150 669 101 594 q 280 809 199 744 q 460 926 362 874 q 670 1005 559 978 q 879 1027 781 1032 q 1067 940 986 1021 q 1143 754 1147 859 q 993 502 1141 703 q 1181 665 1068 575 q 1391 818 1294 754 q 1582 917 1538 917 q 1668 864 1628 917 q 1698 782 1716 795 q 1435 465 1614 719 q 1322 290 1385 393 q 1197 51 1259 186 q 1139 -151 1136 -84 q 1161 -210 1140 -187 q 1220 -234 1183 -234 q 1407 -170 1291 -233 q 1611 -31 1524 -107 q 1621 -27 1616 -27 q 1619 -36 1625 -28 q 1445 -223 1538 -159 q 1282 -287 1351 -287 q 1114 -214 1192 -287 q 1037 -65 1035 -141 q 1106 160 1041 20 q 1260 435 1171 300 q 1435 684 1349 571 q 1575 849 1521 797 q 1581 869 1595 870 q 1577 868 1579 869 q 1313 714 1457 817 q 887 326 1104 564 q 696 93 781 209 q 583 -92 611 -24 q 570 -150 569 -128 q 582 -174 571 -172 q 583 -183 593 -176 q 564 -186 575 -187 q 508 -140 548 -185 q 473 -67 468 -95 q 703 317 493 28 q 823 481 729 354 q 959 671 918 609 m 1387 955 q 1317 989 1362 955 q 1254 1022 1272 1022 q 1213 1012 1236 1022 q 1176 987 1189 1002 q 1169 987 1172 983 q 1168 989 1168 988 q 1221 1066 1175 1022 q 1311 1110 1266 1110 q 1371 1075 1329 1110 q 1435 1040 1412 1040 q 1563 1119 1506 1040 q 1566 1121 1564 1121 q 1570 1120 1568 1122 q 1572 1115 1572 1119 q 1498 1010 1561 1064 q 1387 955 1435 955 z "},"":{"ha":1342,"x_min":42,"x_max":1362,"o":"m 99 17 q 119 118 100 54 q 45 267 42 188 q 142 519 49 380 q 378 772 234 658 q 671 947 515 881 q 985 1012 828 1012 q 1168 969 1082 1012 q 1308 842 1253 926 q 1359 651 1362 757 q 1297 427 1356 552 q 1139 181 1238 302 q 922 -43 1041 60 q 667 -209 803 -145 q 411 -272 531 -272 q 313 -254 365 -272 q 210 -202 260 -236 q 129 -111 160 -169 q 99 17 97 -53 m 497 494 q 332 304 404 409 q 225 89 261 199 l 245 87 q 435 135 307 87 q 741 289 563 184 q 1063 525 919 394 q 1067 526 1067 530 q 1063 514 1067 519 q 664 173 896 312 q 293 33 432 33 q 213 53 262 33 q 193 -60 194 -6 q 228 -161 191 -122 q 338 -200 265 -200 q 571 -137 442 -200 q 817 28 699 -75 q 1035 253 935 131 q 1198 506 1136 375 q 1264 743 1261 637 q 1202 896 1267 845 q 1036 946 1138 948 q 728 873 884 942 q 439 687 572 803 q 222 435 309 572 q 131 203 135 299 q 134 162 131 174 q 273 405 176 275 q 473 621 370 535 q 573 695 516 657 q 699 769 629 733 q 841 823 768 806 q 969 828 913 841 q 1053 775 1022 815 q 1090 686 1085 734 q 1088 675 1091 676 q 1082 679 1085 674 q 973 740 1050 740 q 744 673 870 740 q 497 494 619 605 m 1018 1099 q 1016 1103 1018 1100 q 1013 1108 1014 1106 q 1016 1188 1003 1131 q 1059 1259 1029 1245 l 1062 1259 q 1061 1221 1050 1246 q 1136 1128 1083 1172 q 1249 1056 1189 1084 q 1253 1050 1252 1054 q 1253 1041 1254 1045 q 1249 1037 1251 1037 q 1134 1054 1209 1037 q 1018 1099 1058 1071 z "},"":{"ha":1342,"x_min":42,"x_max":1362,"o":"m 99 17 q 119 118 100 54 q 45 267 42 188 q 142 519 49 380 q 378 772 234 658 q 671 947 515 881 q 985 1012 828 1012 q 1168 969 1082 1012 q 1308 842 1253 926 q 1359 651 1362 757 q 1297 427 1356 552 q 1139 181 1238 302 q 922 -43 1041 60 q 667 -209 803 -145 q 411 -272 531 -272 q 313 -254 365 -272 q 210 -202 260 -236 q 129 -111 160 -169 q 99 17 97 -53 m 497 494 q 332 304 404 409 q 225 89 261 199 l 245 87 q 435 135 307 87 q 741 289 563 184 q 1063 525 919 394 q 1067 526 1067 530 q 1063 514 1067 519 q 664 173 896 312 q 293 33 432 33 q 213 53 262 33 q 193 -60 194 -6 q 228 -161 191 -122 q 338 -200 265 -200 q 571 -137 442 -200 q 817 28 699 -75 q 1035 253 935 131 q 1198 506 1136 375 q 1264 743 1261 637 q 1202 896 1267 845 q 1036 946 1138 948 q 728 873 884 942 q 439 687 572 803 q 222 435 309 572 q 131 203 135 299 q 134 162 131 174 q 273 405 176 275 q 473 621 370 535 q 573 695 516 657 q 699 769 629 733 q 841 823 768 806 q 969 828 913 841 q 1053 775 1022 815 q 1090 686 1085 734 q 1088 675 1091 676 q 1082 679 1085 674 q 973 740 1050 740 q 744 673 870 740 q 497 494 619 605 m 1197 1120 q 1052 1071 1140 1090 q 922 1051 965 1052 q 919 1058 919 1051 q 921 1071 919 1064 q 928 1079 924 1078 q 1072 1151 994 1101 q 1196 1251 1151 1200 q 1207 1290 1215 1272 l 1212 1290 q 1239 1224 1239 1274 q 1225 1166 1238 1204 q 1197 1120 1213 1128 z "},"":{"ha":1342,"x_min":42,"x_max":1362,"o":"m 99 17 q 119 118 100 54 q 45 267 42 188 q 142 519 49 380 q 378 772 234 658 q 671 947 515 881 q 985 1012 828 1012 q 1168 969 1082 1012 q 1308 842 1253 926 q 1359 651 1362 757 q 1297 427 1356 552 q 1139 181 1238 302 q 922 -43 1041 60 q 667 -209 803 -145 q 411 -272 531 -272 q 313 -254 365 -272 q 210 -202 260 -236 q 129 -111 160 -169 q 99 17 97 -53 m 497 494 q 332 304 404 409 q 225 89 261 199 l 245 87 q 435 135 307 87 q 741 289 563 184 q 1063 525 919 394 q 1067 526 1067 530 q 1063 514 1067 519 q 664 173 896 312 q 293 33 432 33 q 213 53 262 33 q 193 -60 194 -6 q 228 -161 191 -122 q 338 -200 265 -200 q 571 -137 442 -200 q 817 28 699 -75 q 1035 253 935 131 q 1198 506 1136 375 q 1264 743 1261 637 q 1202 896 1267 845 q 1036 946 1138 948 q 728 873 884 942 q 439 687 572 803 q 222 435 309 572 q 131 203 135 299 q 134 162 131 174 q 273 405 176 275 q 473 621 370 535 q 573 695 516 657 q 699 769 629 733 q 841 823 768 806 q 969 828 913 841 q 1053 775 1022 815 q 1090 686 1085 734 q 1088 675 1091 676 q 1082 679 1085 674 q 973 740 1050 740 q 744 673 870 740 q 497 494 619 605 m 1206 1190 q 1213 1149 1209 1165 q 1230 1102 1216 1134 q 1267 1040 1244 1071 q 1269 1026 1279 1028 q 1254 1031 1264 1025 q 1163 1118 1186 1079 q 935 1080 1084 1091 q 923 1083 925 1080 q 922 1091 920 1087 q 926 1096 924 1095 q 1149 1219 1022 1135 q 1180 1213 1156 1224 q 1206 1190 1204 1201 z "},"":{"ha":1342,"x_min":42,"x_max":1362,"o":"m 99 17 q 119 118 100 54 q 45 267 42 188 q 142 519 49 380 q 378 772 234 658 q 671 947 515 881 q 985 1012 828 1012 q 1168 969 1082 1012 q 1308 842 1253 926 q 1359 651 1362 757 q 1297 427 1356 552 q 1139 181 1238 302 q 922 -43 1041 60 q 667 -209 803 -145 q 411 -272 531 -272 q 313 -254 365 -272 q 210 -202 260 -236 q 129 -111 160 -169 q 99 17 97 -53 m 497 494 q 332 304 404 409 q 225 89 261 199 l 245 87 q 435 135 307 87 q 741 289 563 184 q 1063 525 919 394 q 1067 526 1067 530 q 1063 514 1067 519 q 664 173 896 312 q 293 33 432 33 q 213 53 262 33 q 193 -60 194 -6 q 228 -161 191 -122 q 338 -200 265 -200 q 571 -137 442 -200 q 817 28 699 -75 q 1035 253 935 131 q 1198 506 1136 375 q 1264 743 1261 637 q 1202 896 1267 845 q 1036 946 1138 948 q 728 873 884 942 q 439 687 572 803 q 222 435 309 572 q 131 203 135 299 q 134 162 131 174 q 273 405 176 275 q 473 621 370 535 q 573 695 516 657 q 699 769 629 733 q 841 823 768 806 q 969 828 913 841 q 1053 775 1022 815 q 1090 686 1085 734 q 1088 675 1091 676 q 1082 679 1085 674 q 973 740 1050 740 q 744 673 870 740 q 497 494 619 605 m 1132 1058 q 1063 1091 1108 1058 q 1000 1125 1018 1125 q 959 1115 982 1125 q 922 1090 936 1105 q 919 1088 921 1089 q 915 1089 917 1088 q 913 1092 913 1090 q 966 1169 921 1125 q 1057 1213 1012 1213 q 1117 1177 1075 1213 q 1182 1142 1159 1142 q 1309 1221 1252 1142 q 1313 1224 1311 1223 q 1317 1223 1315 1224 q 1317 1218 1318 1221 q 1244 1112 1307 1167 q 1132 1058 1181 1058 z "},"":{"ha":1342,"x_min":42,"x_max":1362,"o":"m 99 17 q 119 118 100 54 q 45 267 42 188 q 142 519 49 380 q 378 772 234 658 q 671 947 515 881 q 985 1012 828 1012 q 1168 969 1082 1012 q 1308 842 1253 926 q 1359 651 1362 757 q 1297 427 1356 552 q 1139 181 1238 302 q 922 -43 1041 60 q 667 -209 803 -145 q 411 -272 531 -272 q 313 -254 365 -272 q 210 -202 260 -236 q 129 -111 160 -169 q 99 17 97 -53 m 497 494 q 332 304 404 409 q 225 89 261 199 l 245 87 q 435 135 307 87 q 741 289 563 184 q 1063 525 919 394 q 1067 526 1067 530 q 1063 514 1067 519 q 664 173 896 312 q 293 33 432 33 q 213 53 262 33 q 193 -60 194 -6 q 228 -161 191 -122 q 338 -200 265 -200 q 571 -137 442 -200 q 817 28 699 -75 q 1035 253 935 131 q 1198 506 1136 375 q 1264 743 1261 637 q 1202 896 1267 845 q 1036 946 1138 948 q 728 873 884 942 q 439 687 572 803 q 222 435 309 572 q 131 203 135 299 q 134 162 131 174 q 273 405 176 275 q 473 621 370 535 q 573 695 516 657 q 699 769 629 733 q 841 823 768 806 q 969 828 913 841 q 1053 775 1022 815 q 1090 686 1085 734 q 1088 675 1091 676 q 1082 679 1085 674 q 973 740 1050 740 q 744 673 870 740 q 497 494 619 605 m 1103 1169 q 1042 1121 1077 1165 q 999 1057 1006 1077 q 958 1067 993 1040 q 931 1104 932 1089 q 953 1165 927 1128 q 1002 1208 979 1202 q 1061 1201 1029 1216 q 1103 1169 1094 1187 m 1277 1170 q 1216 1121 1253 1166 q 1173 1058 1179 1077 q 1132 1067 1168 1040 q 1105 1104 1107 1089 q 1126 1164 1101 1129 q 1175 1205 1151 1199 q 1236 1199 1203 1212 q 1277 1170 1269 1186 z "},"":{"ha":831,"x_min":105,"x_max":728,"o":"m 486 141 q 426 223 466 165 q 353 343 386 282 q 141 116 159 177 q 126 129 139 106 q 109 181 114 153 q 110 230 105 205 q 128 266 115 254 q 330 420 196 332 q 284 554 292 497 q 297 588 282 568 q 334 622 312 607 q 410 652 378 651 q 416 647 416 651 q 417 464 387 598 q 598 571 505 519 q 720 634 690 622 l 723 627 q 720 608 726 612 q 579 508 670 577 q 427 388 487 439 q 439 345 429 379 q 454 288 448 310 q 475 229 460 266 q 506 158 489 192 q 503 151 507 156 q 493 142 499 145 q 486 141 487 139 z "},"":{"ha":1344,"x_min":43,"x_max":1431,"o":"m 100 17 q 120 118 101 54 q 46 267 43 188 q 143 519 50 380 q 379 772 235 658 q 673 947 516 881 q 986 1012 829 1012 q 1253 908 1141 1012 q 1350 1079 1342 1031 q 1341 1105 1354 1097 l 1344 1106 l 1346 1106 q 1386 1085 1365 1106 q 1429 1022 1431 1043 q 1375 917 1428 1001 q 1316 830 1350 876 q 1360 651 1363 750 q 1298 427 1357 552 q 1140 181 1239 302 q 923 -43 1042 60 q 668 -209 804 -145 q 412 -272 532 -272 l 404 -272 q 311 -442 312 -396 q 314 -454 311 -449 q 316 -459 316 -458 q 302 -467 316 -467 q 273 -449 292 -467 q 255 -412 254 -431 q 327 -259 256 -365 q 165 -161 233 -232 q 100 17 97 -90 m 498 494 q 333 304 405 409 q 226 89 262 199 q 232 88 230 89 q 235 87 234 88 q 239 87 236 87 q 246 87 241 87 q 458 145 311 87 q 764 301 605 203 q 1080 684 989 571 q 974 740 1048 740 q 745 673 871 740 q 498 494 620 605 m 1264 760 q 858 273 1147 607 q 479 -175 569 -61 q 831 38 649 -120 q 1136 393 1013 197 q 1265 743 1260 589 q 1264 760 1265 754 m 1090 694 q 1228 872 1151 770 q 1037 946 1168 948 q 729 873 885 942 q 440 687 573 803 q 223 435 310 572 q 132 203 136 299 q 134 162 132 174 q 274 404 176 274 q 474 621 371 535 q 574 695 517 657 q 700 769 630 733 q 842 823 769 806 q 970 828 915 841 q 1054 775 1025 814 q 1090 694 1081 740 m 368 -199 q 651 163 463 -63 q 294 33 428 33 q 214 53 263 33 q 194 -60 196 -6 q 229 -161 192 -122 q 339 -200 266 -200 q 354 -199 344 -200 q 368 -199 363 -199 z "},"":{"ha":1517,"x_min":57,"x_max":1716,"o":"m 1100 777 q 1070 684 1099 732 q 982 564 1041 636 q 856 415 952 528 q 710 240 760 302 q 593 90 660 178 q 495 -57 526 2 q 463 -152 464 -116 q 474 -184 462 -174 q 506 -194 486 -194 q 757 -26 566 -194 q 1171 373 949 143 q 1517 762 1344 552 q 1579 857 1554 808 q 1604 936 1604 906 q 1590 967 1605 956 q 1596 968 1592 968 q 1684 911 1640 968 q 1714 842 1716 869 q 1710 832 1714 837 q 1541 605 1628 716 q 1448 487 1453 495 q 1353 346 1400 419 q 1251 179 1306 274 q 1165 -1 1197 84 q 1137 -140 1134 -87 q 1192 -217 1140 -199 q 1384 -173 1250 -237 q 1607 -26 1517 -108 q 1616 -21 1612 -20 q 1613 -31 1621 -21 q 1435 -221 1522 -161 q 1277 -280 1347 -280 q 1106 -207 1182 -280 q 1034 -56 1031 -134 q 1108 176 1037 36 q 1265 431 1178 315 q 868 -28 1091 205 q 590 -261 645 -261 q 468 -233 527 -261 q 377 -157 410 -205 q 355 -57 344 -109 q 400 45 363 -16 q 501 185 437 106 q 621 331 564 264 q 761 493 678 399 q 885 636 843 587 q 1020 834 1018 790 q 980 915 1022 892 q 871 937 938 937 q 637 882 767 937 q 401 748 507 827 q 219 580 294 670 q 142 425 144 490 q 174 393 142 393 q 432 479 261 393 q 730 675 604 565 q 743 679 743 687 q 732 660 743 672 q 473 412 610 506 q 248 318 337 318 q 116 385 176 318 q 59 507 57 451 q 137 681 62 589 q 324 845 213 772 q 576 964 436 918 q 839 1002 717 1010 q 1018 926 933 997 q 1100 777 1103 856 m 1206 982 q 1200 990 1202 986 q 1202 1070 1190 1013 q 1245 1141 1215 1127 l 1248 1141 q 1248 1104 1237 1128 q 1323 1011 1270 1054 q 1436 938 1376 967 q 1440 932 1439 937 q 1440 924 1441 927 q 1437 920 1439 920 q 1321 936 1396 920 q 1206 982 1245 953 z "},"":{"ha":1517,"x_min":57,"x_max":1716,"o":"m 1100 777 q 1070 684 1099 732 q 982 564 1041 636 q 856 415 952 528 q 710 240 760 302 q 593 90 660 178 q 495 -57 526 2 q 463 -152 464 -116 q 474 -184 462 -174 q 506 -194 486 -194 q 757 -26 566 -194 q 1171 373 949 143 q 1517 762 1344 552 q 1579 857 1554 808 q 1604 936 1604 906 q 1590 967 1605 956 q 1596 968 1592 968 q 1684 911 1640 968 q 1714 842 1716 869 q 1710 832 1714 837 q 1541 605 1628 716 q 1448 487 1453 495 q 1353 346 1400 419 q 1251 179 1306 274 q 1165 -1 1197 84 q 1137 -140 1134 -87 q 1192 -217 1140 -199 q 1384 -173 1250 -237 q 1607 -26 1517 -108 q 1616 -21 1612 -20 q 1613 -31 1621 -21 q 1435 -221 1522 -161 q 1277 -280 1347 -280 q 1106 -207 1182 -280 q 1034 -56 1031 -134 q 1108 176 1037 36 q 1265 431 1178 315 q 868 -28 1091 205 q 590 -261 645 -261 q 468 -233 527 -261 q 377 -157 410 -205 q 355 -57 344 -109 q 400 45 363 -16 q 501 185 437 106 q 621 331 564 264 q 761 493 678 399 q 885 636 843 587 q 1020 834 1018 790 q 980 915 1022 892 q 871 937 938 937 q 637 882 767 937 q 401 748 507 827 q 219 580 294 670 q 142 425 144 490 q 174 393 142 393 q 432 479 261 393 q 730 675 604 565 q 743 679 743 687 q 732 660 743 672 q 473 412 610 506 q 248 318 337 318 q 116 385 176 318 q 59 507 57 451 q 137 681 62 589 q 324 845 213 772 q 576 964 436 918 q 839 1002 717 1010 q 1018 926 933 997 q 1100 777 1103 856 m 1450 974 q 1307 926 1394 944 q 1175 906 1219 907 q 1172 912 1172 906 q 1175 926 1172 919 q 1182 934 1177 933 q 1325 1005 1247 956 q 1449 1106 1404 1054 q 1460 1144 1469 1128 l 1465 1144 q 1493 1079 1495 1128 q 1479 1021 1491 1059 q 1450 974 1466 983 z "},"":{"ha":1517,"x_min":57,"x_max":1716,"o":"m 1100 777 q 1070 684 1099 732 q 982 564 1041 636 q 856 415 952 528 q 710 240 760 302 q 593 90 660 178 q 495 -57 526 2 q 463 -152 464 -116 q 474 -184 462 -174 q 506 -194 486 -194 q 757 -26 566 -194 q 1171 373 949 143 q 1517 762 1344 552 q 1579 857 1554 808 q 1604 936 1604 906 q 1590 967 1605 956 q 1596 968 1592 968 q 1684 911 1640 968 q 1714 842 1716 869 q 1710 832 1714 837 q 1541 605 1628 716 q 1448 487 1453 495 q 1353 346 1400 419 q 1251 179 1306 274 q 1165 -1 1197 84 q 1137 -140 1134 -87 q 1192 -217 1140 -199 q 1384 -173 1250 -237 q 1607 -26 1517 -108 q 1616 -21 1612 -20 q 1613 -31 1621 -21 q 1435 -221 1522 -161 q 1277 -280 1347 -280 q 1106 -207 1182 -280 q 1034 -56 1031 -134 q 1108 176 1037 36 q 1265 431 1178 315 q 868 -28 1091 205 q 590 -261 645 -261 q 468 -233 527 -261 q 377 -157 410 -205 q 355 -57 344 -109 q 400 45 363 -16 q 501 185 437 106 q 621 331 564 264 q 761 493 678 399 q 885 636 843 587 q 1020 834 1018 790 q 980 915 1022 892 q 871 937 938 937 q 637 882 767 937 q 401 748 507 827 q 219 580 294 670 q 142 425 144 490 q 174 393 142 393 q 432 479 261 393 q 730 675 604 565 q 743 679 743 687 q 732 660 743 672 q 473 412 610 506 q 248 318 337 318 q 116 385 176 318 q 59 507 57 451 q 137 681 62 589 q 324 845 213 772 q 576 964 436 918 q 839 1002 717 1010 q 1018 926 933 997 q 1100 777 1103 856 m 1413 1106 q 1482 958 1426 1022 q 1482 944 1494 943 q 1469 949 1476 944 q 1373 1031 1400 988 q 1145 982 1293 999 q 1134 985 1136 981 q 1133 993 1131 988 q 1137 998 1135 997 q 1354 1131 1238 1044 q 1386 1127 1361 1137 q 1413 1106 1410 1116 z "},"":{"ha":1517,"x_min":57,"x_max":1716,"o":"m 1100 777 q 1070 684 1099 732 q 982 564 1041 636 q 856 415 952 528 q 710 240 760 302 q 593 90 660 178 q 495 -57 526 2 q 463 -152 464 -116 q 474 -184 462 -174 q 506 -194 486 -194 q 757 -26 566 -194 q 1171 373 949 143 q 1517 762 1344 552 q 1579 857 1554 808 q 1604 936 1604 906 q 1590 967 1605 956 q 1596 968 1592 968 q 1684 911 1640 968 q 1714 842 1716 869 q 1710 832 1714 837 q 1541 605 1628 716 q 1448 487 1453 495 q 1353 346 1400 419 q 1251 179 1306 274 q 1165 -1 1197 84 q 1137 -140 1134 -87 q 1192 -217 1140 -199 q 1384 -173 1250 -237 q 1607 -26 1517 -108 q 1616 -21 1612 -20 q 1613 -31 1621 -21 q 1435 -221 1522 -161 q 1277 -280 1347 -280 q 1106 -207 1182 -280 q 1034 -56 1031 -134 q 1108 176 1037 36 q 1265 431 1178 315 q 868 -28 1091 205 q 590 -261 645 -261 q 468 -233 527 -261 q 377 -157 410 -205 q 355 -57 344 -109 q 400 45 363 -16 q 501 185 437 106 q 621 331 564 264 q 761 493 678 399 q 885 636 843 587 q 1020 834 1018 790 q 980 915 1022 892 q 871 937 938 937 q 637 882 767 937 q 401 748 507 827 q 219 580 294 670 q 142 425 144 490 q 174 393 142 393 q 432 479 261 393 q 730 675 604 565 q 743 679 743 687 q 732 660 743 672 q 473 412 610 506 q 248 318 337 318 q 116 385 176 318 q 59 507 57 451 q 137 681 62 589 q 324 845 213 772 q 576 964 436 918 q 839 1002 717 1010 q 1018 926 933 997 q 1100 777 1103 856 m 1322 1057 q 1261 1008 1298 1052 q 1218 944 1224 964 q 1177 955 1212 926 q 1150 991 1151 978 q 1172 1053 1146 1016 q 1221 1096 1198 1090 q 1281 1089 1249 1104 q 1322 1057 1313 1075 m 1497 1058 q 1436 1010 1472 1053 q 1392 946 1400 966 q 1353 955 1388 927 q 1324 991 1326 976 q 1346 1052 1321 1017 q 1395 1093 1371 1087 q 1456 1087 1423 1099 q 1497 1058 1489 1074 z "},"":{"ha":1387,"x_min":35,"x_max":1562,"o":"m 995 147 q 1063 241 1029 193 q 1129 339 1097 290 q 1185 427 1161 388 q 1239 516 1209 466 q 1284 591 1269 566 q 1324 662 1298 615 q 1355 717 1350 709 q 1027 327 1229 530 q 752 124 825 124 q 609 167 668 124 q 551 288 550 210 q 567 341 551 310 q 619 418 582 372 q 680 495 655 465 q 756 583 705 525 q 803 636 764 592 q 869 711 843 681 q 919 785 894 741 q 944 858 943 828 q 937 900 946 882 q 912 926 928 918 q 883 939 896 935 q 851 946 870 943 q 649 911 770 957 q 422 794 528 865 q 239 638 316 722 q 160 496 162 553 q 169 468 159 480 q 198 457 179 457 q 419 541 260 457 q 686 717 579 625 q 698 722 698 726 q 688 703 699 717 q 464 483 593 573 q 255 393 335 393 q 135 457 192 393 q 79 572 77 520 q 152 726 82 644 q 323 871 221 808 q 553 974 425 935 q 790 1006 681 1014 q 957 931 886 1001 q 1025 768 1028 860 q 1018 738 1025 755 q 998 699 1012 721 q 974 661 984 677 q 942 618 964 645 q 911 579 920 590 q 878 539 902 567 q 851 509 854 511 q 793 440 830 483 q 735 372 755 397 q 690 316 714 347 q 656 262 667 285 q 644 219 645 238 q 675 183 643 183 q 972 369 748 183 q 1340 736 1197 556 q 1424 855 1382 790 q 1467 956 1466 921 q 1454 984 1467 978 q 1459 985 1456 985 q 1503 965 1479 985 q 1561 878 1562 917 q 1559 864 1561 871 q 1169 179 1374 468 q 1340 193 1265 191 q 1347 186 1348 193 q 1339 178 1347 181 q 1144 150 1286 174 q 1027 -19 1090 65 q 879 -200 965 -103 q 712 -371 794 -298 q 538 -493 629 -444 q 370 -542 447 -542 q 224 -518 300 -542 q 92 -447 149 -495 q 37 -339 35 -399 q 147 -168 41 -254 q 433 -7 254 -82 q 569 41 488 16 q 695 77 650 65 q 858 116 740 89 q 995 147 975 143 m 142 -401 q 182 -459 147 -439 q 259 -480 217 -480 q 438 -429 342 -480 q 627 -293 533 -379 q 806 -108 721 -206 q 971 106 890 -10 q 780 51 855 75 q 596 -21 705 27 q 385 -130 486 -68 q 201 -274 267 -202 q 142 -401 136 -346 m 1351 1042 q 1207 993 1295 1012 q 1076 973 1119 974 q 1073 980 1073 973 q 1075 993 1073 986 q 1082 1001 1078 1000 q 1226 1073 1147 1024 q 1349 1173 1306 1122 q 1361 1212 1370 1196 l 1365 1212 q 1393 1146 1395 1196 q 1379 1088 1392 1126 q 1351 1042 1366 1050 z "},"":{"ha":1250,"x_min":67,"x_max":1262,"o":"m 249 207 q 136 271 199 207 q 71 385 73 334 q 185 563 67 472 q 494 710 303 654 q 872 759 685 766 q 901 793 881 770 q 929 826 921 816 q 954 854 938 835 q 975 882 969 873 q 993 905 982 891 q 1009 928 1004 920 q 1019 948 1013 937 q 1027 967 1025 958 q 1029 984 1029 975 q 1019 1007 1029 998 q 1025 1010 1019 1010 q 1090 966 1046 1010 q 1134 894 1135 922 q 1018 744 1131 872 q 1114 707 1072 730 q 1183 658 1157 684 q 1226 602 1208 631 q 1250 546 1245 573 q 1259 497 1255 520 q 1255 459 1262 473 q 1157 329 1236 389 q 973 233 1077 268 q 763 181 870 198 q 576 172 656 165 q 357 -236 360 -143 q 360 -254 357 -250 q 357 -256 360 -256 q 294 -226 338 -256 q 251 -161 250 -196 q 257 -138 251 -153 q 483 239 322 3 q 822 697 645 475 q 585 641 708 687 q 372 537 463 595 q 221 419 281 479 q 159 321 160 359 q 169 288 158 301 q 196 272 181 275 q 482 385 281 262 q 494 384 494 391 l 487 371 q 379 263 450 318 q 249 207 309 207 m 975 690 q 605 206 785 466 l 647 210 q 850 272 737 220 q 1051 395 963 324 q 1158 529 1139 467 q 1166 590 1166 561 q 1137 646 1167 620 q 1049 685 1108 672 q 975 690 1011 691 z "},"":{"ha":770,"x_min":-319,"x_max":753,"o":"m 745 328 q 751 325 749 328 q 751 320 753 323 q 744 317 749 317 q 594 315 667 321 q 624 216 625 262 q 564 61 621 136 q 413 -73 506 -13 q 223 -169 323 -131 q 56 -207 124 -207 q -58 -171 -4 -207 q -129 -75 -111 -135 q -221 -298 -220 -239 q -214 -327 -223 -317 q -217 -329 -214 -329 q -278 -294 -236 -329 q -318 -221 -319 -260 q -313 -198 -316 -206 q -100 187 -251 -38 q 198 603 50 412 q 418 848 324 766 q 563 931 512 931 q 686 889 629 931 q 739 764 743 847 q 643 588 737 682 q 408 426 548 495 q 496 401 450 423 q 577 339 543 379 q 745 328 653 340 m 556 287 q 551 310 556 297 q 287 247 431 299 q 52 124 144 196 q -42 28 7 89 q -93 -66 -92 -32 q -73 -103 -94 -92 q -17 -114 -51 -114 q 226 -40 90 -112 q 458 127 363 32 q 556 287 553 222 m 279 535 q 40 199 161 379 q 260 292 129 256 q 536 334 391 327 q 471 376 514 361 q 387 394 428 391 q 254 373 295 397 q 253 389 252 375 q 257 423 254 404 q 265 446 261 442 q 535 633 420 521 q 654 833 651 745 q 644 866 655 857 q 623 876 634 876 q 561 847 601 876 q 447 737 521 817 q 279 535 372 657 z "},"":{"ha":659,"x_min":-153,"x_max":687,"o":"m 534 448 q 468 395 534 425 q 496 358 484 380 q 506 327 509 335 q 504 322 506 326 l 478 292 q 372 155 415 219 q 327 74 329 91 q 332 68 327 68 q 458 161 348 68 q 671 354 568 253 q 679 356 674 357 q 685 353 684 356 q 685 345 687 349 q 500 142 637 279 q 318 -9 363 4 q 313 -10 315 -10 q 246 20 281 -10 q 201 98 197 67 q 203 109 201 103 q 331 286 218 145 q 192 152 241 191 q -38 -9 4 -9 q -110 32 -66 -9 q -152 111 -153 73 q -84 248 -151 161 q 74 412 -18 334 q 233 524 155 481 q 364 567 312 567 q 487 533 438 567 q 534 448 535 499 m 406 417 q 403 424 406 422 q 426 423 409 426 q 450 412 442 420 q 468 471 462 424 q 463 503 470 490 q 439 515 455 515 q 316 463 393 515 q 174 350 239 411 q 19 184 84 266 q -48 75 -47 103 q -40 67 -48 67 q 88 136 -19 67 q 298 292 194 205 q 406 417 401 378 m 313 684 q 308 692 311 686 q 311 772 298 715 q 354 843 324 829 l 357 843 q 357 806 345 829 q 431 713 378 756 q 544 640 484 669 q 549 634 547 639 q 549 626 550 629 q 545 622 547 622 q 428 638 504 622 q 313 684 353 655 z "},"":{"ha":659,"x_min":-153,"x_max":687,"o":"m 534 448 q 468 395 534 425 q 496 358 484 380 q 506 327 509 335 q 504 322 506 326 l 478 292 q 372 155 415 219 q 327 74 329 91 q 332 68 327 68 q 458 161 348 68 q 671 354 568 253 q 679 356 674 357 q 685 353 684 356 q 685 345 687 349 q 500 142 637 279 q 318 -9 363 4 q 313 -10 315 -10 q 246 20 281 -10 q 201 98 197 67 q 203 109 201 103 q 331 286 218 145 q 192 152 241 191 q -38 -9 4 -9 q -110 32 -66 -9 q -152 111 -153 73 q -84 248 -151 161 q 74 412 -18 334 q 233 524 155 481 q 364 567 312 567 q 487 533 438 567 q 534 448 535 499 m 406 417 q 403 424 406 422 q 426 423 409 426 q 450 412 442 420 q 468 471 462 424 q 463 503 470 490 q 439 515 455 515 q 316 463 393 515 q 174 350 239 411 q 19 184 84 266 q -48 75 -47 103 q -40 67 -48 67 q 88 136 -19 67 q 298 292 194 205 q 406 417 401 378 m 518 690 q 374 642 462 660 q 244 622 286 623 q 240 628 240 622 q 243 642 240 635 q 250 650 246 649 q 394 721 315 672 q 516 822 472 770 q 528 860 535 843 l 532 860 q 560 795 562 844 q 547 738 560 777 q 518 690 534 699 z "},"":{"ha":659,"x_min":-153,"x_max":687,"o":"m 534 448 q 468 395 534 425 q 496 358 484 380 q 506 327 509 335 q 504 322 506 326 l 478 292 q 372 155 415 219 q 327 74 329 91 q 332 68 327 68 q 458 161 348 68 q 671 354 568 253 q 679 356 674 357 q 685 353 684 356 q 685 345 687 349 q 500 142 637 279 q 318 -9 363 4 q 313 -10 315 -10 q 246 20 281 -10 q 201 98 197 67 q 203 109 201 103 q 331 286 218 145 q 192 152 241 191 q -38 -9 4 -9 q -110 32 -66 -9 q -152 111 -153 73 q -84 248 -151 161 q 74 412 -18 334 q 233 524 155 481 q 364 567 312 567 q 487 533 438 567 q 534 448 535 499 m 406 417 q 403 424 406 422 q 426 423 409 426 q 450 412 442 420 q 468 471 462 424 q 463 503 470 490 q 439 515 455 515 q 316 463 393 515 q 174 350 239 411 q 19 184 84 266 q -48 75 -47 103 q -40 67 -48 67 q 88 136 -19 67 q 298 292 194 205 q 406 417 401 378 m 506 759 q 574 611 519 677 q 577 597 585 599 q 561 601 571 596 q 467 684 491 644 q 238 635 388 652 q 226 637 229 634 q 226 645 223 641 q 231 651 229 650 q 448 784 332 697 q 479 779 454 790 q 506 759 504 768 z "},"":{"ha":659,"x_min":-153,"x_max":687,"o":"m 534 448 q 468 395 534 425 q 496 358 484 380 q 506 327 509 335 q 504 322 506 326 l 478 292 q 372 155 415 219 q 327 74 329 91 q 332 68 327 68 q 458 161 348 68 q 671 354 568 253 q 679 356 674 357 q 685 353 684 356 q 685 345 687 349 q 500 142 637 279 q 318 -9 363 4 q 313 -10 315 -10 q 246 20 281 -10 q 201 98 197 67 q 203 109 201 103 q 331 286 218 145 q 192 152 241 191 q -38 -9 4 -9 q -110 32 -66 -9 q -152 111 -153 73 q -84 248 -151 161 q 74 412 -18 334 q 233 524 155 481 q 364 567 312 567 q 487 533 438 567 q 534 448 535 499 m 406 417 q 403 424 406 422 q 426 423 409 426 q 450 412 442 420 q 468 471 462 424 q 463 503 470 490 q 439 515 455 515 q 316 463 393 515 q 174 350 239 411 q 19 184 84 266 q -48 75 -47 103 q -40 67 -48 67 q 88 136 -19 67 q 298 292 194 205 q 406 417 401 378 m 465 625 q 395 659 439 625 q 332 692 350 692 q 291 682 314 692 q 254 657 268 672 q 249 656 253 655 q 247 659 247 658 q 299 736 253 692 q 389 780 344 780 q 449 745 407 780 q 514 709 490 709 q 641 788 587 709 q 644 791 642 791 q 648 790 646 792 q 650 785 650 788 q 576 679 639 734 q 465 625 513 625 z "},"":{"ha":659,"x_min":-153,"x_max":687,"o":"m 534 448 q 468 395 534 425 q 496 358 484 380 q 506 327 509 335 q 504 322 506 326 l 478 292 q 372 155 415 219 q 327 74 329 91 q 332 68 327 68 q 458 161 348 68 q 671 354 568 253 q 679 356 674 357 q 685 353 684 356 q 685 345 687 349 q 500 142 637 279 q 318 -9 363 4 q 313 -10 315 -10 q 246 20 281 -10 q 201 98 197 67 q 203 109 201 103 q 331 286 218 145 q 192 152 241 191 q -38 -9 4 -9 q -110 32 -66 -9 q -152 111 -153 73 q -84 248 -151 161 q 74 412 -18 334 q 233 524 155 481 q 364 567 312 567 q 487 533 438 567 q 534 448 535 499 m 406 417 q 403 424 406 422 q 426 423 409 426 q 450 412 442 420 q 468 471 462 424 q 463 503 470 490 q 439 515 455 515 q 316 463 393 515 q 174 350 239 411 q 19 184 84 266 q -48 75 -47 103 q -40 67 -48 67 q 88 136 -19 67 q 298 292 194 205 q 406 417 401 378 m 466 764 q 404 715 441 760 q 362 652 368 671 q 322 662 357 635 q 294 699 296 684 q 316 760 291 723 q 366 803 342 797 q 426 796 393 811 q 466 764 458 782 m 641 765 q 580 716 616 761 q 537 653 543 672 q 496 663 531 635 q 468 699 471 685 q 490 759 465 724 q 540 800 515 794 q 599 794 566 807 q 641 765 632 781 z "},"":{"ha":659,"x_min":-153,"x_max":687,"o":"m 534 448 q 468 395 534 425 q 496 358 484 380 q 506 327 509 335 q 504 322 506 326 l 478 292 q 372 155 415 219 q 327 74 329 91 q 332 68 327 68 q 458 161 348 68 q 671 354 568 253 q 679 356 674 357 q 685 353 684 356 q 685 345 687 349 q 500 142 637 279 q 318 -9 363 4 q 313 -10 315 -10 q 246 20 281 -10 q 201 98 197 67 q 203 109 201 103 q 331 286 218 145 q 192 152 241 191 q -38 -9 4 -9 q -110 32 -66 -9 q -152 111 -153 73 q -84 248 -151 161 q 74 412 -18 334 q 233 524 155 481 q 364 567 312 567 q 487 533 438 567 q 534 448 535 499 m 406 417 q 403 424 406 422 q 426 423 409 426 q 450 412 442 420 q 468 471 462 424 q 463 503 470 490 q 439 515 455 515 q 316 463 393 515 q 174 350 239 411 q 19 184 84 266 q -48 75 -47 103 q -40 67 -48 67 q 88 136 -19 67 q 298 292 194 205 q 406 417 401 378 m 325 675 q 346 746 322 707 q 407 809 370 784 q 442 834 406 822 q 512 847 478 847 q 584 826 552 847 q 616 775 615 806 q 557 667 619 730 q 432 605 496 605 q 361 624 397 605 q 325 675 325 644 m 545 806 q 535 824 551 824 q 465 758 515 825 q 403 649 415 691 q 409 632 399 635 q 484 704 432 631 q 545 806 536 777 z "},"":{"ha":865,"x_min":-146,"x_max":894,"o":"m 485 460 q 559 511 520 488 q 713 565 654 565 q 804 524 760 565 q 846 440 848 482 q 800 381 845 420 q 691 305 755 343 q 544 238 626 267 q 395 209 462 209 q 335 80 344 140 q 361 58 335 58 q 433 75 390 57 q 877 354 663 176 q 884 354 879 355 q 891 349 888 353 q 892 344 894 346 q 614 104 776 219 q 378 -12 452 -12 q 285 38 340 -12 q 231 127 230 89 q 250 205 230 160 l 248 203 q 75 52 154 113 q -32 -9 -4 -9 q -101 32 -58 -9 q -146 107 -145 72 q -122 186 -146 137 q 83 423 -62 297 q 329 564 228 549 q 342 565 339 565 q 463 524 432 565 q 485 460 486 494 m 14 176 q -42 77 -44 95 q -34 69 -42 69 q 140 169 -3 69 q 364 362 283 269 q 419 436 396 399 q 442 490 441 474 q 434 506 442 500 q 417 512 426 512 q 216 394 343 512 q 14 176 89 277 m 777 504 q 612 421 719 504 q 418 237 505 339 q 672 376 516 257 q 732 431 705 401 q 770 481 759 462 q 777 504 781 501 z "},"":{"ha":487,"x_min":-150,"x_max":514,"o":"m 422 507 q 269 440 364 507 q 97 281 173 372 q 16 166 45 218 q -16 87 -13 113 q -10 67 -17 75 q 10 60 -2 60 q 89 81 43 59 q 288 192 177 120 q 499 354 399 265 q 504 354 500 355 q 511 349 509 353 q 512 344 514 346 q 286 135 420 239 q 67 0 153 30 q 18 -53 37 -22 q 17 -62 14 -63 q 51 -56 29 -58 q 96 -62 74 -54 q 134 -101 121 -73 q 146 -156 147 -130 q 68 -254 145 -189 q -75 -318 -9 -318 q -126 -287 -103 -318 q -149 -221 -150 -255 q -111 -175 -147 -202 q -48 -151 -74 -147 q -90 -205 -68 -172 q -110 -244 -112 -238 q -37 -210 -85 -244 q 45 -138 11 -176 q 72 -91 80 -100 q -14 -98 51 -71 q -38 -92 -26 -104 q -54 -73 -51 -81 q 4 -6 -59 -56 q -79 48 -33 5 q -123 123 -124 90 q -43 294 -122 193 q 142 471 36 394 q 350 564 249 550 q 361 565 359 565 q 444 535 406 565 q 481 467 482 505 q 434 402 480 442 q 359 351 388 361 q 357 351 357 350 q 358 357 356 354 q 404 433 377 385 q 433 497 432 482 q 422 507 433 507 z "},"":{"ha":512,"x_min":-125,"x_max":541,"o":"m 284 688 q 278 697 280 692 q 280 776 267 719 q 323 847 294 833 l 326 847 q 326 810 314 833 q 402 717 348 761 q 515 644 455 673 q 518 638 517 643 q 518 630 519 634 q 515 626 517 626 q 400 643 474 626 q 284 688 325 659 m 163 485 q 359 565 288 565 q 450 523 405 565 q 493 440 495 481 q 447 381 491 420 q 337 305 402 343 q 190 238 272 267 q 41 209 107 209 q -18 80 -10 139 q -12 63 -19 68 q 7 58 -5 58 q 79 75 36 57 q 524 354 313 178 q 530 354 526 355 q 537 349 534 353 q 538 344 541 346 q 259 104 421 219 q 25 -12 97 -12 q -69 38 -14 -12 q -124 127 -125 89 q -69 261 -123 184 q 36 381 -29 319 q 163 485 100 442 m 423 504 q 259 421 365 504 q 64 237 152 339 q 318 376 159 257 q 378 431 351 401 q 416 481 405 462 q 423 504 427 501 z "},"":{"ha":512,"x_min":-125,"x_max":541,"o":"m 493 687 q 348 638 436 657 q 217 619 261 620 q 214 625 214 619 q 216 638 214 631 q 223 646 219 645 q 367 718 288 669 q 490 818 446 767 q 503 857 511 840 l 507 857 q 533 792 535 840 q 521 735 533 774 q 493 687 509 696 m 163 485 q 359 565 288 565 q 450 523 405 565 q 493 440 495 481 q 447 381 491 420 q 337 305 402 343 q 190 238 272 267 q 41 209 107 209 q -18 80 -10 139 q -12 63 -19 68 q 7 58 -5 58 q 79 75 36 57 q 524 354 313 178 q 530 354 526 355 q 537 349 534 353 q 538 344 541 346 q 259 104 421 219 q 25 -12 97 -12 q -69 38 -14 -12 q -124 127 -125 89 q -69 261 -123 184 q 36 381 -29 319 q 163 485 100 442 m 423 504 q 259 421 365 504 q 64 237 152 339 q 318 376 159 257 q 378 431 351 401 q 416 481 405 462 q 423 504 427 501 z "},"":{"ha":512,"x_min":-125,"x_max":564,"o":"m 482 753 q 551 606 497 668 q 553 592 563 593 q 537 596 547 591 q 443 678 466 638 q 214 629 363 646 q 203 632 205 628 q 202 640 201 636 q 206 645 204 644 q 423 779 308 691 q 455 774 429 784 q 482 753 480 763 m 163 485 q 359 565 288 565 q 450 523 405 565 q 493 440 495 481 q 447 381 491 420 q 337 305 402 343 q 190 238 272 267 q 41 209 107 209 q -18 80 -10 139 q -12 63 -19 68 q 7 58 -5 58 q 79 75 36 57 q 524 354 313 178 q 530 354 526 355 q 537 349 534 353 q 538 344 541 346 q 259 104 421 219 q 25 -12 97 -12 q -69 38 -14 -12 q -124 127 -125 89 q -69 261 -123 184 q 36 381 -29 319 q 163 485 100 442 m 423 504 q 259 421 365 504 q 64 237 152 339 q 318 376 159 257 q 378 431 351 401 q 416 481 405 462 q 423 504 427 501 z "},"":{"ha":512,"x_min":-125,"x_max":606,"o":"m 163 485 q 359 565 288 565 q 450 523 405 565 q 493 440 495 481 q 447 381 491 420 q 337 305 402 343 q 190 238 272 267 q 41 209 107 209 q -18 80 -10 139 q -12 63 -19 68 q 7 58 -5 58 q 79 75 36 57 q 524 354 313 178 q 530 354 526 355 q 537 349 534 353 q 538 344 541 346 q 259 104 421 219 q 25 -12 97 -12 q -69 38 -14 -12 q -124 127 -125 89 q -69 261 -123 184 q 36 381 -29 319 q 163 485 100 442 m 423 504 q 259 421 365 504 q 64 237 152 339 q 318 376 159 257 q 378 431 351 401 q 416 481 405 462 q 423 504 427 501 m 431 748 q 370 699 407 744 q 327 636 333 655 q 287 645 322 619 q 259 683 260 668 q 282 744 256 707 q 330 787 308 781 q 389 780 357 795 q 431 748 422 766 m 606 749 q 545 701 581 745 q 502 637 510 657 q 463 646 497 619 q 433 683 436 668 q 455 743 429 708 q 504 784 480 778 q 565 778 532 791 q 606 749 598 765 z "},"":{"ha":296,"x_min":-152,"x_max":371,"o":"m 176 393 q 68 249 118 317 q -32 75 -30 112 q -27 69 -32 69 q 97 161 -11 69 q 308 354 205 252 q 323 354 316 362 q 323 346 326 350 q 177 183 277 287 q 42 53 113 115 q -49 -10 -29 -10 q -113 29 -75 -10 q -151 94 -152 67 q -146 111 -151 100 q -97 200 -132 146 q -1 340 -62 254 q 93 475 60 425 q 118 567 143 554 q 168 550 146 567 q 205 513 186 537 q 223 470 224 488 q 176 393 223 457 m 136 703 q 134 707 136 704 q 130 712 131 709 q 132 791 120 734 q 175 862 145 848 l 178 862 q 177 825 167 849 q 253 732 200 776 q 365 659 306 688 q 370 653 369 658 q 369 645 371 649 q 365 641 368 641 q 251 658 326 641 q 136 703 176 674 z "},"":{"ha":296,"x_min":-152,"x_max":399,"o":"m 176 393 q 68 249 118 317 q -32 75 -30 112 q -27 69 -32 69 q 97 161 -11 69 q 308 354 205 252 q 323 354 316 362 q 323 346 326 350 q 177 183 277 287 q 42 53 113 115 q -49 -10 -29 -10 q -113 29 -75 -10 q -151 94 -152 67 q -146 111 -151 100 q -97 200 -132 146 q -1 340 -62 254 q 93 475 60 425 q 118 567 143 554 q 168 550 146 567 q 205 513 186 537 q 223 470 224 488 q 176 393 223 457 m 356 720 q 211 671 299 690 q 80 652 123 653 q 77 658 77 652 q 80 671 77 665 q 87 679 82 678 q 230 751 152 702 q 354 851 309 800 q 365 890 372 872 l 370 890 q 396 825 399 873 q 384 768 396 807 q 356 720 371 729 z "},"":{"ha":296,"x_min":-152,"x_max":393,"o":"m 176 393 q 68 249 118 317 q -32 75 -30 112 q -27 69 -32 69 q 97 161 -11 69 q 308 354 205 252 q 323 354 316 362 q 323 346 326 350 q 177 183 277 287 q 42 53 113 115 q -49 -10 -29 -10 q -113 29 -75 -10 q -151 94 -152 67 q -146 111 -151 100 q -97 200 -132 146 q -1 340 -62 254 q 93 475 60 425 q 118 567 143 554 q 168 550 146 567 q 205 513 186 537 q 223 470 224 488 q 176 393 223 457 m 326 774 q 354 668 334 706 q 382 621 365 644 q 384 606 392 607 q 368 612 376 606 q 280 703 303 659 q 49 674 208 681 q 38 678 41 674 q 39 686 36 683 q 44 691 42 690 q 269 804 143 725 q 301 797 277 810 q 326 774 325 784 z "},"":{"ha":296,"x_min":-152,"x_max":440,"o":"m 176 393 q 68 249 118 317 q -32 75 -30 112 q -27 69 -32 69 q 97 161 -11 69 q 308 354 205 252 q 323 354 316 362 q 323 346 326 350 q 177 183 277 287 q 42 53 113 115 q -49 -10 -29 -10 q -113 29 -75 -10 q -151 94 -152 67 q -146 111 -151 100 q -97 200 -132 146 q -1 340 -62 254 q 93 475 60 425 q 118 567 143 554 q 168 550 146 567 q 205 513 186 537 q 223 470 224 488 q 176 393 223 457 m 265 760 q 204 711 240 755 q 162 647 168 667 q 121 659 156 629 q 94 694 96 681 q 116 756 91 719 q 166 799 142 793 q 225 792 193 807 q 265 760 257 778 m 440 761 q 379 712 416 756 q 338 649 343 668 q 295 659 331 629 q 267 694 271 681 q 289 755 264 720 q 340 796 314 790 q 400 790 368 802 q 440 761 433 777 z "},"":{"ha":548,"x_min":-119,"x_max":731,"o":"m 260 566 q 257 557 259 560 q 254 554 255 554 q 250 557 252 554 q 241 581 245 561 q 243 632 238 600 q 265 689 248 663 q 330 732 278 707 q 440 774 382 756 l 450 776 q 390 886 435 855 q 386 892 386 890 q 394 897 386 897 q 409 894 400 897 q 467 855 437 882 q 514 787 497 827 q 707 806 632 811 q 729 798 731 804 q 723 795 728 796 q 530 730 669 780 q 552 588 554 647 q 500 363 548 475 q 381 168 452 250 q 225 35 310 87 q 65 -16 140 -16 q 25 -14 40 -16 q -66 41 -14 -6 q -118 142 -119 89 q -40 310 -115 217 q 137 466 35 403 q 317 530 239 530 q 378 501 350 530 q 404 446 405 471 q 403 444 404 444 q 396 448 402 444 q 381 454 391 451 q 360 456 371 456 q 194 382 290 456 q 35 219 99 309 q -32 79 -30 129 q 0 35 -34 35 q 145 98 63 35 q 298 253 228 160 q 415 460 368 345 q 459 670 462 575 q 458 707 459 693 q 318 632 370 670 q 260 566 267 595 z "},"":{"ha":607,"x_min":-161,"x_max":635,"o":"m 546 447 q 501 395 535 435 q 443 326 467 356 q 389 254 420 296 q 278 75 281 109 q 283 69 278 69 q 406 160 299 69 q 619 354 513 250 q 627 356 622 357 q 633 353 631 356 q 632 345 635 349 q 488 183 577 275 q 261 -10 299 -10 q 187 30 225 -10 q 153 101 149 71 q 155 112 153 106 q 296 328 175 163 q 351 401 317 358 q 407 471 385 443 q 428 499 428 498 l 426 501 q 394 483 421 501 q 311 422 366 466 q 198 322 256 378 q 10 130 97 225 q -73 13 -77 35 q -68 9 -71 9 q -69 1 -60 5 q -81 0 -76 -1 q -131 42 -100 3 q -156 98 -161 80 q -108 184 -149 124 q -3 334 -68 245 q 91 467 62 423 q 114 559 139 546 l 115 559 q 117 559 115 559 q 121 559 119 559 q 127 559 124 560 q 133 558 129 559 q 141 556 137 558 q 150 553 145 554 q 159 548 154 551 q 168 542 163 545 q 222 460 222 500 q 191 409 222 451 q 105 295 160 368 q 18 178 50 223 q 181 350 75 247 q 440 564 394 564 q 500 533 465 564 q 548 453 553 486 q 546 447 548 451 m 435 634 q 366 667 410 634 q 303 701 322 701 q 262 691 285 701 q 224 666 239 681 q 221 664 223 665 q 217 665 219 663 q 216 668 216 666 q 270 745 224 702 q 360 788 315 788 q 420 753 378 788 q 484 718 462 718 q 613 797 556 718 q 620 799 616 802 q 620 794 621 797 q 547 688 610 743 q 435 634 484 634 z "},"":{"ha":577,"x_min":-119,"x_max":689,"o":"m 330 676 q 324 685 326 681 q 326 764 313 707 q 369 835 339 822 l 372 835 q 372 798 361 823 q 448 705 394 749 q 560 632 501 661 q 565 627 563 631 q 565 618 566 622 q 561 614 563 614 q 445 631 520 614 q 330 676 370 647 m -116 134 q 2 349 -113 228 q 220 502 116 471 q 286 546 244 526 q 360 567 328 567 q 466 526 425 567 q 513 425 507 484 q 673 427 631 419 q 688 422 687 429 q 670 410 688 417 l 668 409 q 507 389 614 390 q 459 278 503 346 q 353 147 415 210 q 213 37 291 83 q 73 -9 136 -9 q -63 30 -7 -9 q -116 134 -119 68 m -20 75 q -17 48 -21 57 q 4 40 -13 40 q 206 159 72 40 q 400 391 340 278 q 285 421 337 395 q 173 355 230 402 q 74 255 115 308 q 7 153 33 203 q -20 75 -19 104 m 431 480 q 420 523 432 510 q 386 532 409 536 q 347 513 363 528 q 327 482 331 499 q 420 432 319 446 q 431 480 431 459 z "},"":{"ha":577,"x_min":-119,"x_max":689,"o":"m 510 682 q 364 633 452 652 q 234 613 277 614 q 230 620 231 613 q 232 633 230 626 q 239 641 235 640 q 384 713 304 663 q 507 813 463 762 q 518 851 528 834 l 522 851 q 550 786 552 835 q 537 729 550 768 q 510 682 525 690 m -116 134 q 2 349 -113 228 q 220 502 116 471 q 286 546 244 526 q 360 567 328 567 q 466 526 425 567 q 513 425 507 484 q 673 427 631 419 q 688 422 687 429 q 670 410 688 417 l 668 409 q 507 389 614 390 q 459 278 503 346 q 353 147 415 210 q 213 37 291 83 q 73 -9 136 -9 q -63 30 -7 -9 q -116 134 -119 68 m -20 75 q -17 48 -21 57 q 4 40 -13 40 q 206 159 72 40 q 400 391 340 278 q 285 421 337 395 q 173 355 230 402 q 74 255 115 308 q 7 153 33 203 q -20 75 -19 104 m 431 480 q 420 523 432 510 q 386 532 409 536 q 347 513 363 528 q 327 482 331 499 q 420 432 319 446 q 431 480 431 459 z "},"":{"ha":577,"x_min":-119,"x_max":689,"o":"m 505 752 q 514 710 511 724 q 533 666 517 697 q 573 605 548 635 q 576 591 584 593 q 560 595 569 590 q 466 677 490 636 q 237 628 387 645 q 225 631 228 627 q 224 639 222 635 q 230 644 226 643 q 447 778 331 690 q 478 772 453 783 q 505 752 503 762 m -116 134 q 2 349 -113 228 q 220 502 116 471 q 286 546 244 526 q 360 567 328 567 q 466 526 425 567 q 513 425 507 484 q 673 427 631 419 q 688 422 687 429 q 670 410 688 417 l 668 409 q 507 389 614 390 q 459 278 503 346 q 353 147 415 210 q 213 37 291 83 q 73 -9 136 -9 q -63 30 -7 -9 q -116 134 -119 68 m -20 75 q -17 48 -21 57 q 4 40 -13 40 q 206 159 72 40 q 400 391 340 278 q 285 421 337 395 q 173 355 230 402 q 74 255 115 308 q 7 153 33 203 q -20 75 -19 104 m 431 480 q 420 523 432 510 q 386 532 409 536 q 347 513 363 528 q 327 482 331 499 q 420 432 319 446 q 431 480 431 459 z "},"":{"ha":577,"x_min":-119,"x_max":689,"o":"m 471 619 q 402 652 447 619 q 340 686 358 686 q 298 676 322 686 q 261 651 275 666 q 254 651 257 647 q 253 653 253 651 q 306 730 260 686 q 396 774 351 774 q 456 738 415 774 q 520 703 497 703 q 649 782 592 703 q 652 785 650 784 q 655 784 654 785 q 657 779 657 782 q 583 673 646 728 q 471 619 520 619 m -116 134 q 2 349 -113 228 q 220 502 116 471 q 286 546 244 526 q 360 567 328 567 q 466 526 425 567 q 513 425 507 484 q 673 427 631 419 q 688 422 687 429 q 670 410 688 417 l 668 409 q 507 389 614 390 q 459 278 503 346 q 353 147 415 210 q 213 37 291 83 q 73 -9 136 -9 q -63 30 -7 -9 q -116 134 -119 68 m -20 75 q -17 48 -21 57 q 4 40 -13 40 q 206 159 72 40 q 400 391 340 278 q 285 421 337 395 q 173 355 230 402 q 74 255 115 308 q 7 153 33 203 q -20 75 -19 104 m 431 480 q 420 523 432 510 q 386 532 409 536 q 347 513 363 528 q 327 482 331 499 q 420 432 319 446 q 431 480 431 459 z "},"":{"ha":577,"x_min":-119,"x_max":689,"o":"m 457 736 q 394 688 431 732 q 354 624 358 643 q 332 621 347 614 q 301 645 317 628 q 283 671 284 661 q 307 732 281 696 q 357 776 332 769 q 415 769 382 783 q 457 736 448 754 m 630 737 q 570 689 606 733 q 527 625 534 645 q 486 635 521 607 q 458 671 460 656 q 480 731 456 697 q 529 772 504 766 q 590 766 557 779 q 630 737 623 753 m -116 134 q 2 349 -113 228 q 220 502 116 471 q 286 546 244 526 q 360 567 328 567 q 466 526 425 567 q 513 425 507 484 q 673 427 631 419 q 688 422 687 429 q 670 410 688 417 l 668 409 q 507 389 614 390 q 459 278 503 346 q 353 147 415 210 q 213 37 291 83 q 73 -9 136 -9 q -63 30 -7 -9 q -116 134 -119 68 m -20 75 q -17 48 -21 57 q 4 40 -13 40 q 206 159 72 40 q 400 391 340 278 q 285 421 337 395 q 173 355 230 402 q 74 255 115 308 q 7 153 33 203 q -20 75 -19 104 m 431 480 q 420 523 432 510 q 386 532 409 536 q 347 513 363 528 q 327 482 331 499 q 420 432 319 446 q 431 480 431 459 z "},"":{"ha":781,"x_min":77,"x_max":624,"o":"m 388 404 q 355 413 377 396 q 333 436 332 429 q 351 468 335 446 q 376 511 366 491 q 387 607 418 591 q 389 607 388 607 q 393 607 391 607 q 399 606 395 607 q 407 604 403 605 q 415 599 410 603 q 425 593 420 596 q 473 543 455 572 q 490 500 491 514 q 488 494 490 498 q 455 459 479 481 q 411 421 431 437 q 388 404 391 405 m 357 156 q 321 99 356 139 q 272 51 286 60 q 238 72 263 46 q 213 110 213 98 q 221 128 213 113 q 240 161 229 142 q 256 194 251 181 q 260 226 265 221 q 317 209 277 240 q 357 156 357 177 m 95 190 q 82 184 84 172 q 97 248 77 193 q 145 334 118 302 q 226 364 163 354 q 346 372 288 374 q 569 327 459 366 q 619 296 623 307 q 609 294 616 294 q 264 274 400 306 q 95 190 128 241 z "},"":{"ha":593,"x_min":-127,"x_max":705,"o":"m -99 134 q 18 349 -96 228 q 237 502 132 471 q 302 546 260 526 q 377 567 345 567 q 436 556 407 567 q 498 645 495 630 q 489 671 501 662 q 497 671 497 671 q 541 645 515 669 q 565 606 566 622 q 522 552 565 595 l 489 518 q 530 425 525 480 q 690 427 646 419 q 704 422 704 429 q 686 410 704 417 l 684 409 q 530 399 659 401 q 480 286 526 356 q 372 152 435 217 q 230 39 309 87 q 88 -9 151 -9 q 15 1 45 -9 q -76 -131 -71 -105 q -74 -142 -77 -137 l -71 -147 q -84 -152 -73 -154 q -113 -141 -98 -151 q -124 -115 -127 -131 q -33 21 -119 -87 q -99 134 -103 60 m 380 404 q 49 45 172 187 q 247 185 127 71 q 422 401 368 299 l 380 404 m -3 75 l -3 59 q 72 147 28 96 q 147 233 115 198 q 235 331 178 268 q 313 417 292 393 q 301 421 304 419 q 155 326 229 396 q 40 185 82 255 q -3 75 -2 114 m 353 459 l 416 533 q 403 532 407 533 q 344 482 355 522 q 353 459 341 471 m 448 474 l 409 436 q 437 432 418 434 q 448 474 447 457 z "},"":{"ha":630,"x_min":-146,"x_max":658,"o":"m 564 447 q 518 394 544 425 q 375 200 449 308 q 299 75 301 92 q 304 69 299 69 q 429 160 322 69 q 642 354 536 250 q 656 354 650 361 q 656 346 658 349 q 510 183 612 288 q 376 53 448 116 q 283 -10 304 -10 q 216 31 253 -10 q 179 101 178 72 q 315 316 181 134 q -24 -7 48 31 l -27 -9 q -103 36 -60 -9 q -145 118 -146 80 q -138 141 -145 126 q -115 179 -130 156 q -85 225 -100 203 q -44 282 -69 247 q -1 340 -18 316 q 48 405 17 364 q 96 469 79 447 q 138 537 131 513 q 122 561 143 557 q 130 563 124 562 q 148 559 136 563 q 171 546 160 556 q 232 446 238 487 q 230 439 232 443 q 112 303 153 354 q 11 164 52 228 q -31 83 -30 100 q -24 73 -31 73 q 186 233 2 73 q 426 465 370 394 q 464 546 465 513 q 456 563 465 559 l 457 563 q 459 563 457 563 q 463 563 460 563 q 467 563 465 563 q 474 561 470 562 q 481 559 478 561 q 489 556 485 558 q 497 552 493 554 q 505 546 501 549 q 552 494 537 521 q 565 453 567 467 q 565 450 565 452 q 564 447 564 448 m 285 696 q 280 704 281 700 q 282 783 268 725 q 324 855 295 841 l 327 855 q 327 817 316 842 q 403 724 349 768 q 516 652 456 681 q 520 646 519 651 q 519 637 520 641 q 516 634 518 634 q 401 650 475 634 q 285 696 326 667 z "},"":{"ha":630,"x_min":-146,"x_max":658,"o":"m 564 447 q 518 394 544 425 q 375 200 449 308 q 299 75 301 92 q 304 69 299 69 q 429 160 322 69 q 642 354 536 250 q 656 354 650 361 q 656 346 658 349 q 510 183 612 288 q 376 53 448 116 q 283 -10 304 -10 q 216 31 253 -10 q 179 101 178 72 q 315 316 181 134 q -24 -7 48 31 l -27 -9 q -103 36 -60 -9 q -145 118 -146 80 q -138 141 -145 126 q -115 179 -130 156 q -85 225 -100 203 q -44 282 -69 247 q -1 340 -18 316 q 48 405 17 364 q 96 469 79 447 q 138 537 131 513 q 122 561 143 557 q 130 563 124 562 q 148 559 136 563 q 171 546 160 556 q 232 446 238 487 q 230 439 232 443 q 112 303 153 354 q 11 164 52 228 q -31 83 -30 100 q -24 73 -31 73 q 186 233 2 73 q 426 465 370 394 q 464 546 465 513 q 456 563 465 559 l 457 563 q 459 563 457 563 q 463 563 460 563 q 467 563 465 563 q 474 561 470 562 q 481 559 478 561 q 489 556 485 558 q 497 552 493 554 q 505 546 501 549 q 552 494 537 521 q 565 453 567 467 q 565 450 565 452 q 564 447 564 448 m 506 692 q 362 644 450 662 q 231 624 274 625 q 228 630 228 624 q 230 644 228 637 q 237 652 233 651 q 381 723 302 674 q 504 824 459 772 q 517 862 524 844 l 520 862 q 548 797 548 846 q 534 739 547 777 q 506 692 521 701 z "},"":{"ha":630,"x_min":-146,"x_max":658,"o":"m 564 447 q 518 394 544 425 q 375 200 449 308 q 299 75 301 92 q 304 69 299 69 q 429 160 322 69 q 642 354 536 250 q 656 354 650 361 q 656 346 658 349 q 510 183 612 288 q 376 53 448 116 q 283 -10 304 -10 q 216 31 253 -10 q 179 101 178 72 q 315 316 181 134 q -24 -7 48 31 l -27 -9 q -103 36 -60 -9 q -145 118 -146 80 q -138 141 -145 126 q -115 179 -130 156 q -85 225 -100 203 q -44 282 -69 247 q -1 340 -18 316 q 48 405 17 364 q 96 469 79 447 q 138 537 131 513 q 122 561 143 557 q 130 563 124 562 q 148 559 136 563 q 171 546 160 556 q 232 446 238 487 q 230 439 232 443 q 112 303 153 354 q 11 164 52 228 q -31 83 -30 100 q -24 73 -31 73 q 186 233 2 73 q 426 465 370 394 q 464 546 465 513 q 456 563 465 559 l 457 563 q 459 563 457 563 q 463 563 460 563 q 467 563 465 563 q 474 561 470 562 q 481 559 478 561 q 489 556 485 558 q 497 552 493 554 q 505 546 501 549 q 552 494 537 521 q 565 453 567 467 q 565 450 565 452 q 564 447 564 448 m 490 780 q 560 632 505 694 q 561 619 571 620 q 546 623 556 618 q 452 705 476 662 q 222 656 372 673 q 210 659 213 655 q 209 667 207 662 q 214 672 212 671 q 432 806 317 719 q 463 800 438 811 q 490 780 487 790 z "},"":{"ha":630,"x_min":-146,"x_max":658,"o":"m 564 447 q 518 394 544 425 q 375 200 449 308 q 299 75 301 92 q 304 69 299 69 q 429 160 322 69 q 642 354 536 250 q 656 354 650 361 q 656 346 658 349 q 510 183 612 288 q 376 53 448 116 q 283 -10 304 -10 q 216 31 253 -10 q 179 101 178 72 q 315 316 181 134 q -24 -7 48 31 l -27 -9 q -103 36 -60 -9 q -145 118 -146 80 q -138 141 -145 126 q -115 179 -130 156 q -85 225 -100 203 q -44 282 -69 247 q -1 340 -18 316 q 48 405 17 364 q 96 469 79 447 q 138 537 131 513 q 122 561 143 557 q 130 563 124 562 q 148 559 136 563 q 171 546 160 556 q 232 446 238 487 q 230 439 232 443 q 112 303 153 354 q 11 164 52 228 q -31 83 -30 100 q -24 73 -31 73 q 186 233 2 73 q 426 465 370 394 q 464 546 465 513 q 456 563 465 559 l 457 563 q 459 563 457 563 q 463 563 460 563 q 467 563 465 563 q 474 561 470 562 q 481 559 478 561 q 489 556 485 558 q 497 552 493 554 q 505 546 501 549 q 552 494 537 521 q 565 453 567 467 q 565 450 565 452 q 564 447 564 448 m 418 743 q 357 694 394 738 q 314 630 321 650 q 275 641 309 613 q 247 677 248 662 q 269 739 244 702 q 317 782 295 776 q 377 775 345 790 q 418 743 409 761 m 593 744 q 533 695 569 739 q 489 631 496 651 q 448 642 483 613 q 420 677 423 663 q 442 738 418 703 q 491 779 467 772 q 551 772 518 785 q 593 744 584 760 z "},"":{"ha":599,"x_min":-140,"x_max":611,"o":"m 231 441 q 115 306 156 356 q -45 75 -43 108 q -36 64 -45 64 q 97 152 -15 64 q 318 345 208 239 q 356 381 331 358 q 399 424 380 405 q 435 463 418 442 q 473 548 474 512 q 466 564 473 560 q 468 564 467 564 q 472 564 470 564 q 477 564 474 564 q 483 563 480 563 q 490 560 486 562 q 497 557 494 559 q 505 552 501 554 q 514 546 510 549 q 557 499 542 522 q 572 463 573 475 l 568 456 q 458 313 502 370 q 198 -65 310 112 q 409 160 277 29 q 599 340 542 291 q 605 340 603 342 q 610 333 608 338 q 610 327 611 329 q 443 150 574 293 q 219 -106 313 7 q 22 -386 68 -291 q 0 -471 0 -438 q 3 -490 0 -484 q -27 -482 3 -500 q -82 -431 -58 -465 q -92 -363 -106 -396 q 225 173 -32 -213 q 322 310 250 214 q -15 -7 64 35 q -20 -9 -18 -9 q -96 42 -52 -9 q -139 131 -140 92 q -135 148 -139 138 q -121 173 -130 158 q -103 203 -112 188 q -76 240 -93 218 q -46 280 -60 263 q -12 325 -33 298 q 24 371 9 353 q 63 420 38 390 q 100 469 87 451 q 142 537 136 510 q 126 561 147 557 l 127 562 q 130 562 128 562 q 136 563 132 562 q 144 562 140 563 q 153 559 149 561 q 162 554 157 558 q 173 547 168 551 q 221 489 206 517 q 233 448 235 462 q 231 441 233 446 m 515 685 q 371 636 458 655 q 240 616 283 618 q 237 623 237 616 q 240 636 237 629 q 247 644 243 643 q 390 716 311 667 q 514 816 469 765 q 525 855 532 838 l 528 855 q 557 790 559 839 q 544 732 557 771 q 515 685 531 693 z "},"":{"ha":583,"x_min":-435,"x_max":564,"o":"m -128 155 q 24 371 -87 216 q 219 650 134 526 q 342 841 304 775 q 359 929 382 917 q 362 929 360 929 q 365 929 363 929 q 371 929 368 929 q 377 929 374 929 q 384 927 380 928 q 392 925 388 926 q 400 920 395 923 q 408 915 404 918 q 453 865 437 893 q 468 818 469 837 q 466 812 468 816 l 266 524 q 409 563 335 563 q 513 524 462 563 q 563 437 564 485 q 442 205 559 335 q 263 53 362 118 q 72 -12 163 -12 q 1 7 43 -12 q -61 54 -41 27 q -159 -106 -120 -40 q -247 -262 -198 -172 q -314 -411 -296 -353 q -315 -490 -331 -469 q -348 -482 -315 -500 q -408 -428 -381 -464 q -421 -360 -435 -393 q -293 -108 -384 -265 q -128 155 -203 48 m 374 314 q 465 488 463 418 q 432 524 467 524 q 264 443 373 524 q 31 187 155 365 q 139 245 66 215 q 164 249 163 253 q 144 230 165 246 q 54 135 104 196 q 5 54 4 75 q 180 131 77 54 q 374 314 283 208 z "},"":{"ha":599,"x_min":-140,"x_max":611,"o":"m 231 441 q 115 306 156 356 q -45 75 -43 108 q -36 64 -45 64 q 97 152 -15 64 q 318 345 208 239 q 356 381 331 358 q 399 424 380 405 q 435 463 418 442 q 473 548 474 512 q 466 564 473 560 q 468 564 467 564 q 472 564 470 564 q 477 564 474 564 q 483 563 480 563 q 490 560 486 562 q 497 557 494 559 q 505 552 501 554 q 514 546 510 549 q 557 499 542 522 q 572 463 573 475 l 568 456 q 458 313 502 370 q 198 -65 310 112 q 409 160 277 29 q 599 340 542 291 q 605 340 603 342 q 610 333 608 338 q 610 327 611 329 q 443 150 574 293 q 219 -106 313 7 q 22 -386 68 -291 q 0 -471 0 -438 q 3 -490 0 -484 q -27 -482 3 -500 q -82 -431 -58 -465 q -92 -363 -106 -396 q 225 173 -32 -213 q 322 310 250 214 q -15 -7 64 35 q -20 -9 -18 -9 q -96 42 -52 -9 q -139 131 -140 92 q -135 148 -139 138 q -121 173 -130 158 q -103 203 -112 188 q -76 240 -93 218 q -46 280 -60 263 q -12 325 -33 298 q 24 371 9 353 q 63 420 38 390 q 100 469 87 451 q 142 537 136 510 q 126 561 147 557 l 127 562 q 130 562 128 562 q 136 563 132 562 q 144 562 140 563 q 153 559 149 561 q 162 554 157 558 q 173 547 168 551 q 221 489 206 517 q 233 448 235 462 q 231 441 233 446 m 413 741 q 353 693 389 737 q 309 629 316 650 q 270 640 303 612 q 241 676 244 661 q 264 738 238 701 q 313 781 290 775 q 372 774 340 788 q 413 741 405 760 m 588 743 q 527 694 564 738 q 484 630 490 650 q 443 640 479 612 q 416 676 417 661 q 437 737 412 702 q 486 778 462 771 q 546 771 513 784 q 588 743 579 759 z "},"":{"ha":1165,"x_min":-234,"x_max":1331,"o":"m 925 -129 q 435 -84 713 -76 q 150 -116 240 -89 q -13 -204 123 -139 q -199 -271 -150 -268 q -224 -263 -215 -272 q -233 -240 -234 -254 q -218 -189 -233 -224 q -188 -135 -204 -154 q 60 -52 -157 -91 q 216 68 130 -28 q 415 327 301 165 q 159 242 264 293 q 52 161 53 191 q 98 131 51 147 q 189 114 145 114 l 189 113 q 173 103 189 110 q 130 89 156 95 q 84 82 105 82 q 29 96 53 82 q 5 138 4 109 q 50 269 7 210 q 157 357 92 327 q 480 420 278 409 l 488 431 q 580 563 546 515 q 667 681 614 611 q 754 790 719 750 q 834 877 788 830 q 917 949 880 924 q 996 993 954 974 q 1076 1012 1037 1011 q 1256 952 1182 1016 q 1310 798 1331 889 q 1201 650 1292 726 q 1000 513 1111 574 q 989 510 994 510 q 984 514 984 510 q 993 529 984 519 q 1033 574 997 534 q 1097 647 1068 613 q 1159 725 1125 681 q 1213 809 1193 769 q 1234 875 1233 848 q 1219 935 1235 918 q 1170 951 1203 953 q 1052 907 1116 949 q 913 782 988 864 q 776 620 839 700 q 627 422 714 541 q 882 394 766 418 q 1059 332 999 371 q 1057 330 1061 330 q 709 364 891 370 q 578 355 640 362 q 373 107 478 222 q 223 -44 268 -7 q 556 -11 385 -16 q 862 -20 729 -5 q 1026 -66 996 -34 q 1048 -99 1036 -77 q 1092 -226 1090 -169 q 1091 -235 1093 -235 l 1087 -230 q 1074 -206 1079 -214 q 1052 -183 1068 -199 q 1004 -154 1035 -167 q 925 -129 972 -141 z "},"":{"ha":298,"x_min":-152,"x_max":526,"o":"m 197 427 q 171 392 197 426 q 114 312 146 358 q 49 216 82 266 q -7 127 16 167 q -30 75 -30 88 q -25 69 -30 69 q 99 161 -9 69 q 310 354 207 252 q 325 354 318 362 q 325 346 328 350 q 179 183 279 287 q 44 53 115 115 q -47 -10 -27 -10 q -105 18 -67 -10 q -151 85 -152 60 q -145 103 -151 90 q 62 427 -114 181 l 123 511 q -12 426 7 458 q 22 542 -18 474 q 201 618 43 575 q 351 841 315 778 q 368 929 391 918 q 370 929 369 929 q 374 929 372 929 q 380 929 377 929 q 386 929 382 929 q 393 927 389 928 q 400 925 396 926 q 408 920 404 923 q 417 915 412 918 q 462 865 446 893 q 476 818 478 838 q 474 812 476 816 l 356 646 q 526 651 517 663 q 521 646 525 649 q 311 585 399 616 l 197 427 z "},"":{"ha":2097,"x_min":42,"x_max":2176,"o":"m 1274 -268 q 1054 -213 1171 -271 q 902 -59 937 -155 q 411 -272 636 -272 q 313 -254 365 -272 q 210 -202 260 -236 q 129 -111 160 -169 q 99 17 97 -53 q 119 118 100 54 q 45 267 42 188 q 142 519 49 380 q 378 772 234 658 q 671 947 515 881 q 985 1012 828 1012 q 1238 921 1127 1012 q 1358 686 1348 831 q 1507 841 1403 766 q 1731 963 1612 916 q 1974 1002 1860 1013 q 2116 948 2058 994 q 2176 832 2175 902 q 2093 712 2176 787 q 1923 598 2011 637 q 1912 600 1917 595 q 1913 605 1911 603 q 2035 755 1979 668 q 2092 888 2091 842 q 2020 942 2092 942 q 1795 879 1926 942 q 1560 722 1661 815 q 1455 550 1458 628 q 1498 488 1454 518 q 1646 448 1542 458 q 1702 464 1657 450 q 1791 488 1747 478 q 1860 499 1835 499 q 1881 496 1873 499 q 1888 487 1889 494 q 1854 421 1888 460 q 1776 382 1819 382 q 1688 395 1739 382 q 1627 408 1637 407 q 1190 198 1358 332 q 1016 -68 1021 64 q 1045 -149 1014 -118 q 1150 -179 1077 -179 q 1401 -126 1263 -179 q 1678 20 1540 -72 q 1933 205 1816 112 q 2163 404 2050 298 q 2174 406 2174 413 q 2169 391 2174 397 q 2049 263 2122 338 q 1871 95 1976 189 q 1663 -77 1766 1 q 1455 -210 1561 -155 q 1274 -268 1348 -265 m 497 494 q 332 304 404 409 q 225 89 261 199 l 245 87 q 435 135 307 87 q 741 289 563 184 q 1063 525 919 394 q 1067 526 1067 530 q 1063 514 1067 519 q 664 173 896 312 q 293 33 432 33 q 213 53 262 33 q 193 -60 194 -6 q 228 -161 191 -122 q 338 -200 265 -200 q 571 -137 442 -200 q 817 28 699 -75 q 1035 253 935 131 q 1198 506 1136 375 q 1264 743 1261 637 q 1202 896 1267 845 q 1036 946 1138 948 q 728 873 884 942 q 439 687 572 803 q 222 435 309 572 q 131 203 135 299 q 134 162 131 174 q 273 405 176 275 q 473 621 370 535 q 573 695 516 657 q 699 769 629 733 q 841 823 768 806 q 969 828 913 841 q 1053 775 1022 815 q 1090 686 1085 734 q 1088 675 1091 676 q 1082 679 1085 674 q 973 740 1050 740 q 744 673 870 740 q 497 494 619 605 m 1342 549 q 1256 351 1313 450 q 1571 428 1447 428 q 1440 464 1513 432 q 1342 549 1368 497 z "},"":{"ha":891,"x_min":-128,"x_max":919,"o":"m 543 485 q 737 565 666 565 q 829 524 784 565 q 871 440 873 482 q 825 381 870 420 q 715 305 780 343 q 568 238 651 267 q 420 209 486 209 q 360 80 369 138 q 366 63 359 68 q 386 58 373 58 q 456 75 417 57 q 903 354 689 176 q 909 354 905 355 q 916 349 913 353 q 917 344 919 346 q 637 104 799 219 q 402 -12 475 -12 q 334 17 375 -12 q 271 81 294 46 q 68 -9 154 -9 q -64 30 1 -9 q -125 127 -128 69 q -72 261 -122 188 q 49 392 -22 333 q 176 513 87 457 q 345 563 265 569 q 438 528 395 559 q 498 453 481 498 q 543 485 520 470 m 425 476 q 362 527 418 527 q 241 475 299 527 q 270 479 256 479 q 326 456 303 479 q 347 409 348 434 q 344 409 347 408 q 304 420 312 420 q 142 340 243 420 q 147 273 129 299 q 217 244 166 247 q 298 254 247 241 l 348 313 q 425 476 433 422 m -11 46 q 105 84 24 32 q 267 219 186 136 q 200 216 225 214 q 77 276 114 221 q -29 91 -17 170 q -28 61 -31 72 q -11 46 -25 51 m 802 504 q 637 421 744 504 q 443 237 530 339 q 698 376 535 256 q 757 431 730 401 q 795 481 784 462 q 802 504 807 501 z "},"":{"ha":1244,"x_min":-209,"x_max":1281,"o":"m 1240 344 q 1249 334 1252 341 q 1243 332 1248 331 q 1075 359 1179 347 q 1093 280 1094 316 q 988 89 1090 191 q 738 -95 887 -13 q 418 -226 590 -177 q 130 -275 247 -275 q -17 -248 61 -275 q -152 -172 -95 -222 q -207 -63 -209 -122 q -84 131 -203 35 q 221 295 34 226 q 825 402 506 399 q 975 393 896 402 q 701 526 921 463 q 620 548 677 532 q 527 574 562 563 q 468 594 493 584 q 413 632 433 608 q 401 675 400 654 q 504 826 403 745 q 757 958 600 902 q 1040 1014 916 1014 q 1176 957 1124 1014 q 1225 818 1229 901 q 1150 712 1224 771 q 994 615 1076 653 q 877 577 912 577 q 871 579 873 577 q 870 583 869 580 q 875 590 871 587 q 1066 752 958 645 q 1168 896 1173 858 q 1153 925 1166 916 q 1109 934 1140 934 q 853 881 993 934 q 619 758 713 828 q 522 639 525 688 q 528 625 522 631 q 544 612 533 619 q 568 601 556 606 q 600 590 580 596 q 636 579 621 583 q 677 568 652 575 q 718 558 702 562 q 1060 386 991 480 q 1240 344 1150 372 m 991 337 q 987 360 991 345 q 884 362 929 363 q 356 252 620 356 q 19 67 154 173 q -119 -121 -116 -38 q -106 -155 -120 -141 q -68 -175 -93 -169 q -24 -182 -44 -181 q 20 -184 -4 -184 q 304 -130 135 -184 q 622 -1 473 -77 q 887 175 785 82 q 991 337 988 267 m 928 1076 q 927 1106 928 1080 q 924 1150 926 1132 q 912 1193 922 1167 q 886 1240 903 1220 q 883 1254 878 1250 q 897 1251 888 1257 q 941 1217 916 1241 q 982 1166 967 1192 q 1131 1250 1035 1202 q 1267 1307 1228 1298 q 1279 1304 1277 1309 q 1278 1295 1281 1300 q 1272 1288 1276 1291 q 1174 1219 1220 1255 q 1105 1162 1128 1183 q 1043 1103 1082 1142 q 991 1053 1003 1064 q 957 1057 985 1047 q 928 1076 929 1066 z "},"":{"ha":475,"x_min":-185,"x_max":615,"o":"m 105 324 q 162 290 121 307 q 516 375 340 353 q 521 372 521 376 q 516 362 520 365 q 450 343 500 357 q 340 310 400 330 q 220 265 281 291 q 282 223 256 248 q 306 176 307 199 q 294 135 304 154 q 251 90 284 116 q 100 8 191 43 q -60 -27 9 -27 q -146 15 -108 -27 q -177 88 -185 57 q -74 184 -167 127 q 127 276 18 240 q 82 293 99 285 q 45 313 65 301 q 15 340 25 325 q 6 372 5 355 q 66 463 7 415 q 203 544 125 512 q 339 576 281 576 q 418 543 382 576 q 452 479 453 510 q 400 416 451 446 q 318 386 348 386 q 309 392 310 388 q 326 408 311 394 q 353 433 342 422 q 377 457 363 443 q 399 482 391 471 q 407 499 407 494 q 397 504 407 504 q 312 485 364 504 q 213 437 260 466 q 149 391 176 416 q 110 349 122 366 q 105 324 98 331 m 120 149 q 208 232 207 200 q 205 243 208 239 q 189 251 202 247 q 77 197 135 228 q -32 130 19 166 q -107 71 -82 94 q -131 41 -131 48 q -25 76 -120 33 q 120 149 69 119 m 261 627 q 260 658 261 631 q 256 701 259 684 q 245 745 254 718 q 218 792 235 771 q 216 804 212 801 q 232 802 220 808 q 276 768 251 793 q 314 717 300 743 q 465 801 369 753 q 601 858 561 849 q 613 856 611 860 q 612 847 615 851 q 606 840 609 842 q 509 771 554 807 q 439 713 463 735 q 377 654 415 691 q 325 605 339 618 q 290 608 318 599 q 261 627 262 618 z "},"":{"ha":1387,"x_min":35,"x_max":1562,"o":"m 995 147 q 1063 241 1029 193 q 1129 339 1097 290 q 1185 427 1161 388 q 1239 516 1209 466 q 1284 591 1269 566 q 1324 662 1298 615 q 1355 717 1350 709 q 1027 327 1229 530 q 752 124 825 124 q 609 167 668 124 q 551 288 550 210 q 567 341 551 310 q 619 418 582 372 q 680 495 655 465 q 756 583 705 525 q 803 636 764 592 q 869 711 843 681 q 919 785 894 741 q 944 858 943 828 q 937 900 946 882 q 912 926 928 918 q 883 939 896 935 q 851 946 870 943 q 649 911 770 957 q 422 794 528 865 q 239 638 316 722 q 160 496 162 553 q 169 468 159 480 q 198 457 179 457 q 419 541 260 457 q 686 717 579 625 q 698 722 698 726 q 688 703 699 717 q 464 483 593 573 q 255 393 335 393 q 135 457 192 393 q 79 572 77 520 q 152 726 82 644 q 323 871 221 808 q 553 974 425 935 q 790 1006 681 1014 q 957 931 886 1001 q 1025 768 1028 860 q 1018 738 1025 755 q 998 699 1012 721 q 974 661 984 677 q 942 618 964 645 q 911 579 920 590 q 878 539 902 567 q 851 509 854 511 q 793 440 830 483 q 735 372 755 397 q 690 316 714 347 q 656 262 667 285 q 644 219 645 238 q 675 183 643 183 q 972 369 748 183 q 1340 736 1197 556 q 1424 855 1382 790 q 1467 956 1466 921 q 1454 984 1467 978 q 1459 985 1456 985 q 1503 965 1479 985 q 1561 878 1562 917 q 1559 864 1561 871 q 1169 179 1374 468 q 1340 193 1265 191 q 1347 186 1348 193 q 1339 178 1347 181 q 1144 150 1286 174 q 1027 -19 1090 65 q 879 -200 965 -103 q 712 -371 794 -298 q 538 -493 629 -444 q 370 -542 447 -542 q 224 -518 300 -542 q 92 -447 149 -495 q 37 -339 35 -399 q 147 -168 41 -254 q 433 -7 254 -82 q 569 41 488 16 q 695 77 650 65 q 858 116 740 89 q 995 147 975 143 m 142 -401 q 182 -459 147 -439 q 259 -480 217 -480 q 438 -429 342 -480 q 627 -293 533 -379 q 806 -108 721 -206 q 971 106 890 -10 q 780 51 855 75 q 596 -21 705 27 q 385 -130 486 -68 q 201 -274 267 -202 q 142 -401 136 -346 m 1233 1090 q 1173 1042 1208 1085 q 1129 978 1137 998 q 1089 988 1124 960 q 1060 1025 1061 1010 q 1083 1086 1058 1049 q 1132 1129 1109 1123 q 1192 1122 1159 1137 q 1233 1090 1224 1108 m 1407 1091 q 1347 1042 1384 1087 q 1303 979 1310 998 q 1264 988 1298 960 q 1235 1025 1237 1010 q 1256 1085 1232 1050 q 1306 1126 1281 1120 q 1367 1120 1334 1132 q 1407 1091 1400 1108 z "},"":{"ha":1185,"x_min":-84,"x_max":1491,"o":"m 557 453 q 557 444 565 447 q 540 449 551 444 q 456 506 493 468 q 426 584 419 544 q 474 717 437 645 q 578 851 512 790 q 850 979 681 950 q 1433 926 1029 1001 q 1461 893 1443 925 q 1485 833 1479 860 q 1480 800 1491 806 q 1214 709 1442 816 q 854 518 986 601 q 388 181 584 354 q 195 -4 276 83 q 113 -112 114 -91 q 657 -48 339 -44 q 978 -89 818 -50 q 1214 -198 1137 -128 q 1213 -205 1219 -202 q 1204 -203 1208 -206 q 1012 -132 1126 -150 q 736 -113 899 -115 q 444 -139 600 -112 q 172 -203 287 -167 q 38 -274 67 -238 q -5 -269 27 -288 q -60 -216 -36 -250 q -77 -160 -84 -182 q 236 173 -16 -30 q 847 580 487 375 q 1150 737 1014 674 q 1425 834 1286 799 q 1233 852 1333 845 q 1013 861 1134 859 q 819 851 893 863 q 493 667 548 811 q 504 545 474 620 q 557 453 534 470 m 1021 1037 l 1021 1067 q 1018 1112 1020 1097 q 1006 1154 1016 1127 q 980 1202 997 1181 q 976 1215 972 1212 q 991 1213 981 1218 q 1036 1178 1011 1203 q 1075 1127 1062 1153 q 1225 1212 1129 1163 q 1361 1268 1322 1260 q 1373 1266 1371 1270 q 1372 1257 1375 1262 q 1365 1250 1369 1252 q 1268 1181 1313 1217 q 1199 1123 1222 1145 q 1138 1065 1175 1101 q 1087 1015 1100 1028 q 1051 1019 1079 1010 q 1021 1037 1022 1028 z "},"":{"ha":500,"x_min":-189,"x_max":636,"o":"m 283 629 q 282 660 283 634 q 279 703 281 686 q 267 747 277 720 q 240 794 257 774 q 238 807 233 803 q 254 804 243 810 q 296 769 271 794 q 337 719 322 745 q 488 804 392 756 q 623 860 583 851 q 634 858 632 862 q 633 849 636 854 q 627 842 630 844 q 529 773 575 809 q 460 716 483 737 q 399 657 437 694 q 347 607 360 620 q 313 611 341 601 q 283 629 284 620 m -113 -11 q -128 -20 -113 -11 q -161 -28 -143 -29 q -184 10 -179 -27 q -182 74 -189 47 q -92 143 -168 138 q 386 499 26 220 q 326 474 374 495 q 248 442 279 454 q 176 419 217 429 q 112 409 136 408 q 79 426 90 411 q 73 462 67 441 q 143 581 84 512 q 151 585 152 588 q 151 582 151 584 q 140 542 141 559 q 145 516 140 525 q 161 502 150 507 q 179 496 172 497 q 198 495 187 495 q 464 541 298 487 q 501 567 484 547 q 511 558 505 573 q 526 463 527 515 q 526 458 526 460 q 524 450 526 453 q 517 446 521 448 q 512 443 513 444 q 271 285 409 388 q 45 106 134 182 q 338 42 226 103 q 370 18 354 32 q 385 -4 386 4 l 384 -6 q 321 25 356 12 q 193 51 265 44 q 68 57 121 59 q -28 48 15 54 q -113 -11 -83 6 z "},"":{"ha":500,"x_min":183,"x_max":547,"o":"m 466 737 q 534 590 475 657 q 534 576 547 576 l 519 580 q 425 662 449 626 q 199 613 346 630 q 186 616 189 612 q 185 624 183 620 q 190 629 187 628 q 407 763 294 677 q 438 757 413 768 q 466 737 463 747 z "},"":{"ha":436,"x_min":226,"x_max":630,"o":"m 277 624 q 276 654 277 628 q 272 698 275 681 q 261 741 270 715 q 234 788 251 768 q 231 801 226 798 q 248 799 236 804 q 291 764 266 788 q 330 714 316 739 q 481 798 385 750 q 616 855 577 846 q 628 853 626 857 q 627 843 630 848 q 621 837 624 839 q 522 768 568 803 q 454 710 476 732 q 392 652 431 689 q 341 601 354 614 q 306 605 334 595 q 277 624 278 614 z "},"":{"ha":409,"x_min":196,"x_max":491,"o":"m 198 629 q 218 700 196 662 q 278 763 241 738 q 313 788 277 776 q 384 801 349 801 q 456 780 424 801 q 488 729 487 760 q 431 621 491 684 q 304 559 370 559 q 235 579 270 559 q 198 629 199 598 m 417 760 q 409 778 423 778 q 337 713 388 779 q 274 603 286 646 q 282 587 270 589 q 357 659 303 585 q 417 760 410 732 z "},"":{"ha":503,"x_min":217,"x_max":622,"o":"m 436 627 q 367 661 411 627 q 304 694 323 694 q 263 684 286 694 q 225 659 240 674 q 222 658 224 658 q 218 658 220 657 q 217 661 217 659 q 270 738 224 694 q 360 782 316 782 q 421 747 379 782 q 485 712 463 712 q 613 791 556 712 q 620 792 616 796 q 621 787 621 791 q 548 682 611 736 q 436 627 485 627 z "},"":{"ha":333,"x_min":281,"x_max":500,"o":"m 285 756 q 375 855 312 801 q 471 928 438 909 q 491 922 476 933 q 496 915 499 918 q 379 676 385 767 q 392 642 376 652 q 389 641 392 642 q 318 682 356 641 q 283 747 281 723 q 285 756 283 752 z "},"":{"ha":299,"x_min":188,"x_max":405,"o":"m 401 815 q 310 716 373 770 q 215 643 248 661 q 205 644 213 642 q 193 651 198 646 q 190 657 188 655 q 308 895 301 803 q 294 929 310 921 q 297 931 294 929 q 368 889 330 931 q 403 825 405 848 q 401 815 403 819 z "},"":{"ha":490,"x_min":267,"x_max":632,"o":"m 271 756 q 362 856 299 801 q 458 928 425 910 q 479 922 464 933 q 482 915 485 918 q 365 676 371 767 q 378 642 362 652 q 375 641 378 642 q 304 682 342 641 q 269 747 267 723 q 271 756 269 752 m 419 756 q 510 856 448 801 q 606 928 573 910 q 615 927 608 929 q 627 921 622 925 q 630 915 632 917 q 514 676 519 771 q 526 642 511 652 q 522 641 526 642 q 452 682 489 641 q 418 747 416 723 q 419 756 418 754 z "},"":{"ha":434,"x_min":202,"x_max":567,"o":"m 563 811 q 472 712 535 766 q 376 639 409 658 q 367 640 374 638 q 355 646 360 642 q 353 653 350 651 q 469 891 463 798 q 456 925 471 918 q 459 926 456 925 q 530 885 493 926 q 565 821 567 844 q 563 811 565 815 m 415 811 q 324 712 387 766 q 229 639 262 658 q 220 640 226 638 q 207 646 213 642 q 204 653 202 651 q 321 891 314 795 q 309 925 323 917 q 312 926 309 925 q 382 885 345 926 q 417 821 419 844 q 415 811 417 815 z "},"":{"ha":474,"x_min":113,"x_max":284,"o":"m 114 295 q 150 384 116 340 q 228 427 184 427 q 269 407 254 427 q 283 356 284 386 q 249 270 282 314 q 170 226 217 226 q 129 246 145 226 q 114 295 113 265 z "},"":{"ha":894,"x_min":19,"x_max":600,"o":"m 191 101 q 135 50 168 96 q 95 -17 101 3 q 54 -10 90 -35 q 24 26 26 11 q 41 88 19 50 q 87 131 63 125 q 145 127 106 137 q 191 101 184 116 m 395 101 q 353 56 380 96 q 316 -6 325 16 q 271 -6 311 -22 q 228 26 231 10 q 245 88 222 50 q 292 131 268 125 q 349 127 310 137 q 395 101 388 116 m 600 101 q 545 44 583 91 q 503 -17 507 -3 q 480 -22 498 -27 q 441 -2 462 -17 q 419 22 421 13 q 446 85 415 46 q 502 130 476 124 q 556 126 520 136 q 600 101 592 116 z "},"":{"ha":1449,"x_min":90,"x_max":1272,"o":"m 530 129 q 579 262 534 190 q 683 379 624 334 q 742 427 685 404 q 850 451 799 451 q 968 399 924 451 q 1036 435 988 419 q 1124 451 1083 451 q 1229 412 1185 451 q 1268 317 1272 373 q 1216 191 1265 266 q 1092 58 1168 116 q 951 -1 1017 -1 q 883 16 920 -1 q 824 62 846 33 q 677 -1 745 -1 q 576 36 627 -1 q 530 129 526 73 m 93 415 q 143 548 97 475 q 248 665 188 620 q 307 713 250 689 q 416 736 364 736 q 521 697 478 736 q 559 603 564 658 q 507 476 556 551 q 384 343 459 402 q 243 284 309 284 q 141 321 192 284 q 93 415 90 358 m 1188 378 q 1167 413 1194 413 q 1073 351 1134 413 q 961 207 1013 288 q 899 74 909 125 q 916 47 894 47 q 1071 187 966 47 q 1188 378 1175 327 m 478 663 q 457 699 485 699 q 364 636 424 699 q 252 492 303 574 q 189 359 200 410 q 205 332 186 332 q 304 404 239 332 q 420 556 370 476 q 478 663 471 635 m 913 378 q 892 413 921 413 q 742 284 843 413 q 624 74 641 155 q 642 47 620 47 q 741 119 676 47 q 856 270 806 191 q 913 378 907 349 m 830 766 q 839 768 832 768 q 913 743 870 768 q 965 696 957 718 q 965 688 967 688 q 952 692 956 692 q 616 403 890 692 q 405 161 499 277 q 310 26 311 46 q 311 18 310 21 q 313 12 313 14 q 307 7 313 7 q 285 14 299 7 q 262 32 270 21 q 256 64 251 45 q 502 407 268 119 q 830 766 736 696 z "},"":{"ha":699,"x_min":62,"x_max":666,"o":"m 63 18 q 188 278 65 67 q 434 693 311 489 q 559 928 558 897 q 548 954 559 950 l 552 955 l 554 955 q 597 935 574 955 q 644 887 623 915 q 665 845 666 860 q 662 837 665 843 q 545 666 646 812 q 361 395 444 519 q 202 146 277 271 q 127 -12 128 21 q 130 -24 127 -19 q 132 -29 132 -28 q 120 -36 131 -36 q 82 -19 103 -36 q 63 18 62 -1 z "},"":{"ha":1183,"x_min":40,"x_max":1147,"o":"m 201 333 q 159 371 159 356 q 186 440 160 397 q 238 490 213 482 q 267 499 252 496 q 301 504 282 502 q 332 507 321 506 q 368 510 343 509 q 401 513 393 512 q 681 763 516 660 q 981 865 845 865 q 1104 806 1060 865 q 1138 691 1147 747 q 1080 616 1132 657 q 985 553 1027 575 q 913 518 943 531 q 899 519 900 512 q 911 538 899 525 q 1076 783 1075 715 q 1063 816 1077 807 q 1028 826 1049 826 q 800 737 934 826 q 556 517 666 647 q 863 481 732 516 q 867 477 865 481 q 866 470 869 473 q 860 466 864 466 q 501 448 741 472 q 440 350 463 395 q 764 313 572 348 q 765 303 771 310 q 759 300 763 300 q 406 276 598 301 q 384 165 386 218 q 415 77 381 103 q 501 51 449 51 q 1065 370 720 51 q 1076 374 1073 377 q 1077 372 1077 374 q 1064 348 1077 368 q 1015 286 1036 312 q 934 193 995 260 q 824 83 874 126 q 711 3 775 40 q 599 -34 647 -34 q 501 -19 556 -34 q 393 24 447 -4 q 303 100 339 51 q 269 207 267 149 q 275 255 271 239 q 137 221 201 245 q 46 173 73 198 q 41 177 40 167 q 73 263 43 213 q 138 319 103 309 q 201 333 175 329 m 243 338 l 299 344 q 335 415 317 384 q 244 376 266 396 q 236 359 236 366 q 243 338 236 353 z "},"":{"ha":897,"x_min":233,"x_max":946,"o":"m 400 545 q 486 678 401 571 q 583 817 572 785 q 493 813 550 817 q 515 775 515 785 q 514 771 514 772 q 384 613 451 702 q 315 494 316 524 q 318 484 315 491 q 309 482 318 482 q 268 506 298 482 q 238 545 238 531 q 275 613 239 565 q 356 719 310 661 q 417 806 402 777 q 309 773 353 794 q 251 732 266 752 q 238 726 243 721 q 258 785 233 734 q 307 853 283 835 q 414 877 330 869 q 576 875 498 885 q 771 815 693 858 q 768 809 778 812 q 762 809 765 809 q 653 816 733 814 q 682 772 687 777 q 645 705 668 761 q 636 627 622 649 q 772 752 690 665 q 842 859 855 840 q 845 866 841 866 q 903 826 861 863 q 946 775 946 788 q 943 771 944 772 q 800 573 892 713 q 706 403 707 434 q 707 395 706 397 q 700 391 707 391 q 659 415 688 391 q 629 454 629 439 q 633 470 629 460 q 645 495 637 480 q 661 522 654 510 q 684 556 669 534 q 708 591 700 578 q 737 631 717 604 q 765 671 756 658 q 638 588 704 619 q 611 581 626 582 q 594 582 596 579 q 589 630 587 598 q 596 678 592 662 q 478 494 479 531 q 479 487 476 489 l 480 484 q 471 482 480 482 q 430 505 460 482 q 400 545 400 529 z "}}}
